<svg width="24" height="25" viewBox="0 0 24 25" fill="none" xmlns="http://www.w3.org/2000/svg">
<path d="M5.5 6.39307H20.5V4.39307H5.5V6.39307ZM20.5 6.39307C20.3619 6.39307 20.25 6.28114 20.25 6.14307H22.25C22.25 5.17657 21.4665 4.39307 20.5 4.39307V6.39307ZM20.25 6.14307V21.1431H22.25V6.14307H20.25ZM20.25 21.1431C20.25 21.005 20.3619 20.8931 20.5 20.8931V22.8931C21.4665 22.8931 22.25 22.1096 22.25 21.1431H20.25ZM20.5 20.8931H5.5V22.8931H20.5V20.8931ZM5.5 20.8931C5.63807 20.8931 5.75 21.005 5.75 21.1431H3.75C3.75 22.1096 4.5335 22.8931 5.5 22.8931V20.8931ZM5.75 21.1431V6.14307H3.75V21.1431H5.75ZM5.75 6.14307C5.75 6.28114 5.63807 6.39307 5.5 6.39307V4.39307C4.5335 4.39307 3.75 5.17657 3.75 6.14307H5.75Z" fill="#6E6E6E"/>
<path d="M12 17.6431C12.5523 17.6431 13 17.1954 13 16.6431C13 16.0908 12.5523 15.6431 12 15.6431L12 17.6431ZM10 15.6431C9.44772 15.6431 9 16.0908 9 16.6431C9 17.1954 9.44772 17.6431 10 17.6431L10 15.6431ZM12 15.6431L10 15.6431L10 17.6431L12 17.6431L12 15.6431Z" fill="#6E6E6E"/>
<path d="M4.75 10.8931C4.19771 10.8931 3.75 11.3408 3.75 11.8931C3.75 12.4454 4.19771 12.8931 4.75 12.8931V10.8931ZM21.25 12.8931C21.8023 12.8931 22.25 12.4454 22.25 11.8931C22.25 11.3408 21.8023 10.8931 21.25 10.8931V12.8931ZM4.75 12.8931H21.25V10.8931H4.75V12.8931Z" fill="#6E6E6E"/>
<path d="M18.5 3.89307C18.5 3.34078 18.0523 2.89307 17.5 2.89307C16.9477 2.89307 16.5 3.34078 16.5 3.89307H18.5ZM16.5 7.89307C16.5 8.44535 16.9477 8.89307 17.5 8.89307C18.0523 8.89307 18.5 8.44535 18.5 7.89307H16.5ZM16.5 3.89307V7.89307H18.5V3.89307H16.5Z" fill="#6E6E6E"/>
<path d="M9.5 3.89307C9.5 3.34078 9.05228 2.89307 8.5 2.89307C7.94771 2.89307 7.5 3.34078 7.5 3.89307H9.5ZM7.5 7.89307C7.5 8.44535 7.94771 8.89307 8.5 8.89307C9.05228 8.89307 9.5 8.44535 9.5 7.89307H7.5ZM7.5 3.89307V7.89307H9.5V3.89307H7.5Z" fill="#6E6E6E"/>
</svg>
