<svg width="24" height="24" viewBox="0 0 24 24" fill="none" xmlns="http://www.w3.org/2000/svg">
<path d="M5.93256 6.20223H22.1123V4.04492H5.93256V6.20223ZM22.1123 6.20223C21.9634 6.20223 21.8427 6.08149 21.8427 5.93256H24C24 4.89005 23.1549 4.04492 22.1123 4.04492V6.20223ZM21.8427 5.93256V22.1123H24V5.93256H21.8427ZM21.8427 22.1123C21.8427 21.9634 21.9634 21.8427 22.1123 21.8427V24C23.1549 24 24 23.1549 24 22.1123H21.8427ZM22.1123 21.8427H5.93256V24H22.1123V21.8427ZM5.93256 21.8427C6.08149 21.8427 6.20223 21.9634 6.20223 22.1123H4.04492C4.04492 23.1549 4.89005 24 5.93256 24V21.8427ZM6.20223 22.1123V5.93256H4.04492V22.1123H6.20223ZM6.20223 5.93256C6.20223 6.08149 6.08149 6.20223 5.93256 6.20223V4.04492C4.89005 4.04492 4.04492 4.89005 4.04492 5.93256H6.20223Z" fill="#1A1A1A"/>
<path d="M22.1586 18.0211C22.5798 18.4423 23.2628 18.4423 23.684 18.0211C24.1053 17.5998 24.1053 16.9169 23.684 16.4956L22.1586 18.0211ZM18.6438 12.9808L17.8753 13.7377L17.8811 13.7435L18.6438 12.9808ZM17.491 12.9808L18.2538 13.7436L18.2595 13.7377L17.491 12.9808ZM12.9809 17.4909L12.2181 16.7282L12.2123 16.7341L12.9809 17.4909ZM11.8281 17.4909L12.5966 16.734L12.5908 16.7282L11.8281 17.4909ZM9.74492 15.4078L8.97635 16.1647L8.9822 16.1705L9.74492 15.4078ZM8.59212 15.4078L9.35485 16.1705L9.36066 16.1647L8.59212 15.4078ZM4.36085 18.1136C3.93961 18.5348 3.93961 19.2178 4.36085 19.6391C4.78209 20.0603 5.46506 20.0603 5.88629 19.6391L4.36085 18.1136ZM23.684 16.4956L19.4065 12.2181L17.8811 13.7435L22.1586 18.0211L23.684 16.4956ZM19.4124 12.224C19.2367 12.0456 19.0273 11.904 18.7965 11.8073L17.9632 13.7972C17.9303 13.7834 17.9003 13.7632 17.8753 13.7377L19.4124 12.224ZM18.7965 11.8073C18.5655 11.7106 18.3177 11.6608 18.0674 11.6608V13.8181C18.0316 13.8181 17.9962 13.811 17.9632 13.7972L18.7965 11.8073ZM18.0674 11.6608C17.817 11.6608 17.5693 11.7106 17.3383 11.8073L18.1716 13.7972C18.1386 13.811 18.1032 13.8181 18.0674 13.8181V11.6608ZM17.3383 11.8073C17.1075 11.904 16.8981 12.0456 16.7224 12.224L18.2595 13.7377C18.2345 13.7632 18.2045 13.7834 18.1716 13.7972L17.3383 11.8073ZM16.7282 12.2181L12.2182 16.7282L13.7436 18.2537L18.2537 13.7435L16.7282 12.2181ZM12.2123 16.7341C12.2374 16.7086 12.2673 16.6884 12.3003 16.6746L13.1335 18.6645C13.3644 18.5678 13.5738 18.4262 13.7494 18.2478L12.2123 16.7341ZM12.3003 16.6746C12.3333 16.6607 12.3687 16.6536 12.4045 16.6536V18.8109C12.6548 18.8109 12.9026 18.7611 13.1335 18.6645L12.3003 16.6746ZM12.4045 16.6536C12.4402 16.6536 12.4756 16.6607 12.5086 16.6746L11.6754 18.6645C11.9063 18.7611 12.1541 18.8109 12.4045 18.8109V16.6536ZM12.5086 16.6746C12.5416 16.6884 12.5715 16.7086 12.5966 16.7341L11.0595 18.2478C11.2352 18.4262 11.4445 18.5678 11.6754 18.6645L12.5086 16.6746ZM12.5908 16.7282L10.5076 14.6451L8.9822 16.1705L11.0653 18.2537L12.5908 16.7282ZM10.5135 14.6509C10.3378 14.4726 10.1285 14.3309 9.89756 14.2343L9.06437 16.2242C9.03139 16.2104 9.00148 16.1901 8.97638 16.1647L10.5135 14.6509ZM9.89756 14.2343C9.66666 14.1376 9.41884 14.0878 9.16852 14.0878V16.2451C9.13275 16.2451 9.09735 16.238 9.06437 16.2242L9.89756 14.2343ZM9.16852 14.0878C8.91819 14.0878 8.67037 14.1376 8.43948 14.2343L9.27266 16.2242C9.23969 16.238 9.20428 16.2451 9.16852 16.2451V14.0878ZM8.43948 14.2343C8.20858 14.3309 7.99921 14.4726 7.82358 14.6509L9.36066 16.1647C9.33556 16.1901 9.30565 16.2104 9.27266 16.2242L8.43948 14.2343ZM7.82939 14.6451L4.36085 18.1136L5.88629 19.6391L9.35483 16.1705L7.82939 14.6451Z" fill="#1A1A1A"/>
<path d="M10.1119 10.5169C10.7821 10.5169 11.3254 9.97358 11.3254 9.30339C11.3254 8.6332 10.7821 8.0899 10.1119 8.0899C9.44173 8.0899 8.89844 8.6332 8.89844 9.30339C8.89844 9.97358 9.44173 10.5169 10.1119 10.5169Z" fill="#1A1A1A"/>
</svg>
