<svg width="80" height="80" viewBox="0 0 80 80" fill="none" xmlns="http://www.w3.org/2000/svg">
<circle opacity="0.9" cx="40" cy="40" r="40" fill="white"/>
<path d="M47.1465 40.383C47.1465 44.1197 44.1175 47.1489 40.381 47.1489V49.7021C45.5275 49.7021 49.6995 45.5298 49.6995 40.383H47.1465ZM40.381 47.1489C36.6445 47.1489 33.6155 44.1197 33.6155 40.383H31.0625C31.0625 45.5298 35.2345 49.7021 40.381 49.7021V47.1489ZM33.6155 40.383C33.6155 36.6463 36.6445 33.6171 40.381 33.6171V31.0639C35.2345 31.0639 31.0625 35.2362 31.0625 40.383H33.6155ZM40.381 33.6171C44.1175 33.6171 47.1465 36.6463 47.1465 40.383H49.6995C49.6995 35.2362 45.5275 31.0639 40.381 31.0639V33.6171Z" fill="#1A1A1A"/>
<path d="M46.976 45.1673C46.4775 44.6688 45.6693 44.6688 45.1708 45.1673C44.6722 45.6659 44.6722 46.4742 45.1708 46.9727L46.976 45.1673ZM49.8237 51.6259C50.3222 52.1245 51.1304 52.1245 51.6289 51.6259C52.1274 51.1274 52.1274 50.3191 51.6289 49.8205L49.8237 51.6259ZM45.1708 46.9727L49.8237 51.6259L51.6289 49.8205L46.976 45.1673L45.1708 46.9727Z" fill="#1A1A1A"/>
</svg>
