<svg width="24" height="24" viewBox="0 0 24 24" fill="#787878" xmlns="http://www.w3.org/2000/svg">
<path d="M19.25 12C19.8023 12 20.25 11.5523 20.25 11C20.25 10.4477 19.8023 10 19.25 10L19.25 12ZM2.75 10C2.1977 10 1.75 10.4477 1.75 11C1.75 11.5523 2.1977 12 2.75 12L2.75 10ZM19.25 10L2.75 10L2.75 12L19.25 12L19.25 10Z"/>
<path d="M8.79289 18.4571C9.18342 18.8476 9.81658 18.8476 10.2071 18.4571C10.5976 18.0666 10.5976 17.4334 10.2071 17.0429L8.79289 18.4571ZM2.75 11L2.04289 10.2929C1.65237 10.6834 1.65237 11.3166 2.04289 11.7071L2.75 11ZM10.2071 4.9571C10.5976 4.5666 10.5976 3.9334 10.2071 3.5429C9.81659 3.1524 9.18342 3.1524 8.7929 3.5429L10.2071 4.9571ZM10.2071 17.0429L3.45711 10.2929L2.04289 11.7071L8.79289 18.4571L10.2071 17.0429ZM3.45711 11.7071L10.2071 4.9571L8.7929 3.5429L2.04289 10.2929L3.45711 11.7071Z" />
</svg>
