<svg width="17" height="17" viewBox="0 0 17 17" fill="none" xmlns="http://www.w3.org/2000/svg">
<path d="M14.2811 9.87565C14.574 9.58273 14.574 9.10786 14.2811 8.81499C13.9881 8.52212 13.5133 8.52216 13.2204 8.81508L14.2811 9.87565ZM8.7512 14.3458L8.22091 14.8761C8.51382 15.169 8.9887 15.169 9.28157 14.8761L8.7512 14.3458ZM4.28108 8.8158C3.98816 8.52293 3.51329 8.52296 3.22042 8.81588C2.92755 9.1088 2.92759 9.58367 3.22051 9.87654L4.28108 8.8158ZM13.2204 8.81508L8.22082 13.8155L9.28157 14.8761L14.2811 9.87565L13.2204 8.81508ZM9.28148 13.8154L4.28108 8.8158L3.22051 9.87654L8.22091 14.8761L9.28148 13.8154Z" fill="#6E6E6E"/>
</svg>
