<svg width="24" height="24" viewBox="0 0 24 24" fill="none" xmlns="http://www.w3.org/2000/svg">
<path d="M4.75 12C4.19771 12 3.75 12.4477 3.75 13C3.75 13.5523 4.19771 14 4.75 14V12ZM21.25 14C21.8023 14 22.25 13.5523 22.25 13C22.25 12.4477 21.8023 12 21.25 12V14ZM4.75 14H21.25V12H4.75V14Z" fill="#FD650B"/>
<path d="M15.2071 5.54289C14.8166 5.15237 14.1834 5.15237 13.7929 5.54289C13.4024 5.93342 13.4024 6.56658 13.7929 6.95711L15.2071 5.54289ZM21.25 13L21.9571 13.7071C22.3476 13.3166 22.3476 12.6834 21.9571 12.2929L21.25 13ZM13.7929 19.0429C13.4024 19.4334 13.4024 20.0666 13.7929 20.4571C14.1834 20.8476 14.8166 20.8476 15.2071 20.4571L13.7929 19.0429ZM13.7929 6.95711L20.5429 13.7071L21.9571 12.2929L15.2071 5.54289L13.7929 6.95711ZM20.5429 12.2929L13.7929 19.0429L15.2071 20.4571L21.9571 13.7071L20.5429 12.2929Z" fill="#FD650B"/>
</svg>
