<svg width="20" height="20" viewBox="0 0 20 20" fill="none" xmlns="http://www.w3.org/2000/svg">
<path d="M5.625 19.0001C5.625 19.1978 5.57002 19.3912 5.467 19.5557C5.36399 19.7201 5.21757 19.8483 5.04627 19.9239C4.87496 19.9996 4.68646 20.0195 4.5046 19.9809C4.32275 19.9422 4.1557 19.847 4.02459 19.7072C3.89348 19.5673 3.80419 19.3892 3.76801 19.1952C3.73184 19.0011 3.75041 18.8001 3.82136 18.6173C3.89232 18.4346 4.01248 18.2785 4.16665 18.1686C4.32082 18.0587 4.50208 18.0001 4.6875 18.0001C4.93614 18.0001 5.1746 18.1054 5.35041 18.293C5.52623 18.4805 5.625 18.7349 5.625 19.0001ZM6.875 15.6667C6.68958 15.6667 6.50832 15.7254 6.35415 15.8353C6.19998 15.9451 6.07982 16.1013 6.00886 16.284C5.93791 16.4667 5.91934 16.6678 5.95551 16.8618C5.99169 17.0559 6.08098 17.234 6.21209 17.3738C6.3432 17.5137 6.51025 17.6089 6.6921 17.6475C6.87396 17.6861 7.06246 17.6663 7.23377 17.5906C7.40507 17.5149 7.55149 17.3867 7.6545 17.2224C7.75752 17.0579 7.8125 16.8645 7.8125 16.6667C7.8125 16.4016 7.71373 16.1472 7.53791 15.9596C7.3621 15.7721 7.12364 15.6667 6.875 15.6667ZM2.1875 15.3334C2.00208 15.3334 1.82082 15.3921 1.66665 15.5019C1.51248 15.6118 1.39232 15.768 1.32136 15.9507C1.25041 16.1334 1.23184 16.3345 1.26801 16.5285C1.30419 16.7225 1.39348 16.9007 1.52459 17.0405C1.6557 17.1803 1.82275 17.2756 2.0046 17.3142C2.18646 17.3528 2.37496 17.333 2.54627 17.2572C2.71757 17.1816 2.86399 17.0534 2.967 16.889C3.07002 16.7245 3.125 16.5312 3.125 16.3334C3.125 16.0682 3.02623 15.8138 2.85041 15.6263C2.6746 15.4388 2.43614 15.3334 2.1875 15.3334ZM5.3125 14.0001C5.3125 13.8023 5.25752 13.6089 5.1545 13.4445C5.05149 13.2801 4.90507 13.1519 4.73377 13.0762C4.56246 13.0005 4.37396 12.9807 4.1921 13.0193C4.01025 13.0579 3.8432 13.1531 3.71209 13.293C3.58098 13.4328 3.49169 13.6111 3.45551 13.805C3.41934 13.999 3.43791 14.2001 3.50886 14.3828C3.57982 14.5655 3.69998 14.7217 3.85415 14.8315C4.00832 14.9414 4.18958 15.0001 4.375 15.0001C4.62364 15.0001 4.8621 14.8947 5.03791 14.7072C5.21373 14.5196 5.3125 14.2652 5.3125 14.0001ZM19.375 2.66675H17.1339C16.9696 2.66627 16.807 2.70054 16.6553 2.76758C16.5035 2.83462 16.3658 2.93309 16.25 3.0573L14.0747 5.3776L4.2202 7.12952C3.99366 7.1698 3.7819 7.27587 3.60816 7.43611C3.43443 7.59634 3.30544 7.80452 3.23535 8.03782C3.16526 8.27111 3.15679 8.5205 3.21085 8.75859C3.26492 8.99669 3.37943 9.2143 3.54183 9.38753L11.1993 17.5554C11.3617 17.7286 11.5657 17.8508 11.7889 17.9085C12.0121 17.9661 12.2459 17.9572 12.4646 17.8824C12.6833 17.8076 12.8785 17.67 13.0287 17.4848C13.179 17.2994 13.2784 17.0736 13.3162 16.8319L14.9586 6.32044V6.3204L17.1339 4.00008H19.375C19.5408 4.00008 19.6997 3.92985 19.8169 3.80483C19.9342 3.6798 20 3.51023 20 3.33342C20 3.15661 19.9342 2.98704 19.8169 2.86201C19.6997 2.73699 19.5408 2.66675 19.375 2.66675Z" fill="#636363"/>
</svg>
