<svg width="21" height="20" viewBox="0 0 21 20" fill="none" xmlns="http://www.w3.org/2000/svg">
<path d="M16.7775 6.66658H1.93876V4.44435C1.93876 4.2479 1.87079 4.05949 1.74979 3.92057C1.62881 3.78166 1.46471 3.70361 1.2936 3.70361C1.12249 3.70361 0.958392 3.78166 0.837401 3.92057C0.71641 4.05949 0.648438 4.2479 0.648438 4.44435V19.2592C0.648438 19.4557 0.71641 19.644 0.837401 19.7829C0.958392 19.9219 1.12249 19.9999 1.2936 19.9999C1.46471 19.9999 1.62881 19.9219 1.74979 19.7829C1.87079 19.644 1.93876 19.4557 1.93876 19.2592V16.2962H18.713V19.2592C18.713 19.4557 18.7809 19.644 18.902 19.7829C19.0229 19.9219 19.187 19.9999 19.3581 19.9999C19.5293 19.9999 19.6933 19.9219 19.8143 19.7829C19.9354 19.644 20.0033 19.4557 20.0033 19.2592V10.3703C20.0023 9.38834 19.6621 8.44693 19.0574 7.75259C18.4526 7.05826 17.6327 6.66768 16.7775 6.66658ZM1.93876 8.14806H7.74521V14.8147H1.93876V8.14806Z" fill="#636363"/>
</svg>
