<svg width="24" height="24" viewBox="0 0 24 24" fill="none" xmlns="http://www.w3.org/2000/svg">
<path d="M22.2231 22.4001H16.7275C17.6521 21.6583 18.5241 20.8651 19.3383 20.0251C22.3885 16.8679 24.0009 13.5397 24.0009 10.4001C24.0009 8.06619 22.9707 5.82787 21.137 4.17756C19.3034 2.52724 16.8163 1.6001 14.2231 1.6001C11.6299 1.6001 9.14284 2.52724 7.30916 4.17756C5.47547 5.82787 4.44531 8.06619 4.44531 10.4001C4.44531 13.5397 6.05761 16.8679 9.10785 20.0251C9.92208 20.8651 10.7941 21.6583 11.7187 22.4001H6.22309C5.98735 22.4001 5.76125 22.4844 5.59455 22.6344C5.42785 22.7844 5.3342 22.9879 5.3342 23.2001C5.3342 23.4123 5.42785 23.6158 5.59455 23.7657C5.76125 23.9158 5.98735 24.0001 6.22309 24.0001H22.2231C22.4588 24.0001 22.685 23.9158 22.8516 23.7657C23.0184 23.6158 23.112 23.4123 23.112 23.2001C23.112 22.9879 23.0184 22.7844 22.8516 22.6344C22.685 22.4844 22.4588 22.4001 22.2231 22.4001ZM14.2231 7.2001C14.9263 7.2001 15.6138 7.38778 16.1985 7.73939C16.7832 8.09102 17.2389 8.59079 17.5081 9.17551C17.7771 9.76024 17.8475 10.4036 17.7104 11.0244C17.5731 11.6451 17.2345 12.2153 16.7372 12.6628C16.24 13.1104 15.6065 13.4151 14.9168 13.5387C14.2271 13.6621 13.5122 13.5987 12.8625 13.3565C12.2128 13.1143 11.6575 12.7042 11.2668 12.1779C10.8761 11.6517 10.6676 11.033 10.6676 10.4001C10.6676 9.97986 10.7595 9.56375 10.9382 9.1755C11.1169 8.78727 11.3788 8.4345 11.709 8.13735C12.0391 7.8402 12.4311 7.60449 12.8625 7.44367C13.2938 7.28286 13.7562 7.2001 14.2231 7.2001Z" fill="#1A1A1A"/>
</svg>
