<svg width="16" height="17" viewBox="0 0 16 17" fill="none" xmlns="http://www.w3.org/2000/svg">
<path d="M13.7803 5.28033C14.0732 4.98744 14.0732 4.51256 13.7803 4.21967C13.4874 3.92678 13.0126 3.92678 12.7197 4.21967L13.7803 5.28033ZM3.71967 13.2197C3.42678 13.5126 3.42678 13.9874 3.71967 14.2803C4.01256 14.5732 4.48744 14.5732 4.78033 14.2803L3.71967 13.2197ZM12.7197 4.21967L3.71967 13.2197L4.78033 14.2803L13.7803 5.28033L12.7197 4.21967Z" fill="#1A1A1A"/>
<path d="M12.7197 14.2803C13.0126 14.5732 13.4874 14.5732 13.7803 14.2803C14.0732 13.9874 14.0732 13.5126 13.7803 13.2197L12.7197 14.2803ZM4.78033 4.21967C4.48744 3.92678 4.01256 3.92678 3.71967 4.21967C3.42678 4.51256 3.42678 4.98744 3.71967 5.28033L4.78033 4.21967ZM13.7803 13.2197L4.78033 4.21967L3.71967 5.28033L12.7197 14.2803L13.7803 13.2197Z" fill="#1A1A1A"/>
</svg>
