<svg width="24" height="24" viewBox="0 0 24 24" fill="none" xmlns="http://www.w3.org/2000/svg">
<path d="M22.5808 10.8142C23.0305 10.4934 23.1349 9.86893 22.8142 9.41933C22.4934 8.96973 21.869 8.86526 21.4194 9.18599L22.5808 10.8142ZM14.6407 15.2501V16.2501C14.8489 16.2501 15.052 16.1851 15.2215 16.0642L14.6407 15.2501ZM11.3595 15.2501L10.7787 16.0642C10.9482 16.1851 11.1512 16.2501 11.3595 16.2501V15.2501ZM4.58082 9.18599C4.13122 8.86526 3.50673 8.96973 3.18599 9.41933C2.86526 9.86893 2.96973 10.4934 3.41933 10.8142L4.58082 9.18599ZM21.4194 9.18599L14.06 14.436L15.2215 16.0642L22.5808 10.8142L21.4194 9.18599ZM14.6407 14.2501H11.3595V16.2501H14.6407V14.2501ZM11.9402 14.436L4.58082 9.18599L3.41933 10.8142L10.7787 16.0642L11.9402 14.436Z" fill="#6E6E6E"/>
<path d="M4 10L3.4453 9.16795C3.1671 9.35342 3 9.66565 3 10H4ZM22 10H23C23 9.66565 22.8329 9.35342 22.5547 9.16795L22 10ZM13 4L13.5547 3.16795C13.2188 2.94402 12.7812 2.94402 12.4453 3.16795L13 4ZM3 10V19.75H5V10H3ZM3 19.75C3 20.2141 3.18437 20.6592 3.51256 20.9874L4.92678 19.5732C4.97366 19.6201 5 19.6837 5 19.75H3ZM3.51256 20.9874C3.84075 21.3156 4.28587 21.5 4.75 21.5V19.5C4.8163 19.5 4.87989 19.5263 4.92678 19.5732L3.51256 20.9874ZM4.75 21.5H21.25V19.5H4.75V21.5ZM21.25 21.5C21.7141 21.5 22.1592 21.3156 22.4874 20.9874L21.0732 19.5732C21.1201 19.5263 21.1837 19.5 21.25 19.5V21.5ZM22.4874 20.9874C22.8156 20.6592 23 20.2141 23 19.75H21C21 19.6837 21.0263 19.6201 21.0732 19.5732L22.4874 20.9874ZM23 19.75V10H21V19.75H23ZM22.5547 9.16795L13.5547 3.16795L12.4453 4.83205L21.4453 10.832L22.5547 9.16795ZM12.4453 3.16795L3.4453 9.16795L4.5547 10.832L13.5547 4.83205L12.4453 3.16795Z" fill="#6E6E6E"/>
</svg>
