<svg width="30" height="30" viewBox="0 0 30 30" fill="none" xmlns="http://www.w3.org/2000/svg">
<path d="M12.5 30H20V27.5H12.5V30ZM20 30C23.2483 30 25.8473 29.358 27.6026 27.6026C29.358 25.8473 30 23.2483 30 20H27.5C27.5 23.0017 26.892 24.7777 25.8349 25.8349C24.7777 26.892 23.0017 27.5 20 27.5V30ZM30 20V12.5H27.5V20H30ZM30 12.5C30 9.25171 29.358 6.65273 27.6026 4.89737C25.8473 3.142 23.2483 2.5 20 2.5V5C23.0017 5 24.7777 5.608 25.8349 6.66513C26.892 7.72227 27.5 9.49829 27.5 12.5H30ZM20 2.5H12.5V5H20V2.5ZM12.5 2.5C9.25171 2.5 6.65273 3.142 4.89737 4.89737C3.142 6.65273 2.5 9.25171 2.5 12.5H5C5 9.49829 5.608 7.72227 6.66513 6.66513C7.72227 5.608 9.49829 5 12.5 5V2.5ZM2.5 12.5V20H5V12.5H2.5ZM2.5 20C2.5 23.2483 3.142 25.8473 4.89737 27.6026C6.65273 29.358 9.25171 30 12.5 30V27.5C9.49829 27.5 7.72227 26.892 6.66513 25.8349C5.608 24.7777 5 23.0017 5 20H2.5Z" fill="#FD650B"/>
<path d="M21.25 11.5625C21.25 11.9077 20.9702 12.1875 20.625 12.1875V14.6875C22.3509 14.6875 23.75 13.2884 23.75 11.5625H21.25ZM20.625 12.1875C20.2798 12.1875 20 11.9077 20 11.5625H17.5C17.5 13.2884 18.8991 14.6875 20.625 14.6875V12.1875ZM20 11.5625C20 11.2173 20.2798 10.9375 20.625 10.9375V8.4375C18.8991 8.4375 17.5 9.83661 17.5 11.5625H20ZM20.625 10.9375C20.9702 10.9375 21.25 11.2173 21.25 11.5625H23.75C23.75 9.83661 22.3509 8.4375 20.625 8.4375V10.9375Z" fill="#FD650B"/>
<path d="M12.5 11.5625C12.5 11.9077 12.2202 12.1875 11.875 12.1875V14.6875C13.6009 14.6875 15 13.2884 15 11.5625H12.5ZM11.875 12.1875C11.5298 12.1875 11.25 11.9077 11.25 11.5625H8.75C8.75 13.2884 10.1491 14.6875 11.875 14.6875V12.1875ZM11.25 11.5625C11.25 11.2173 11.5298 10.9375 11.875 10.9375V8.4375C10.1491 8.4375 8.75 9.83661 8.75 11.5625H11.25ZM11.875 10.9375C12.2202 10.9375 12.5 11.2173 12.5 11.5625H15C15 9.83661 13.6009 8.4375 11.875 8.4375V10.9375Z" fill="#FD650B"/>
<path d="M11.75 19.125H20.75V16.625H11.75V19.125ZM20.75 19.125C20.7217 19.125 20.6876 19.1117 20.663 19.087C20.6383 19.0624 20.625 19.0283 20.625 19H23.125C23.125 17.6846 22.0654 16.625 20.75 16.625V19.125ZM20.625 19C20.625 21.4221 18.6721 23.375 16.25 23.375V25.875C20.0529 25.875 23.125 22.8029 23.125 19H20.625ZM16.25 23.375C13.8279 23.375 11.875 21.4221 11.875 19H9.375C9.375 22.8029 12.4471 25.875 16.25 25.875V23.375ZM11.875 19C11.875 19.0283 11.8617 19.0624 11.837 19.087C11.8124 19.1117 11.7783 19.125 11.75 19.125V16.625C10.4346 16.625 9.375 17.6846 9.375 19H11.875Z" fill="#FD650B"/>
</svg>
