<svg width="15" height="15" viewBox="0 0 15 15" fill="none" xmlns="http://www.w3.org/2000/svg">
<path d="M11.1732 13.6688L10.7712 14.3019L10.7731 14.3031L11.1732 13.6688ZM11.9607
13.075L12.6877 12.8908L12.6875 12.8901L11.9607 13.075ZM11.0482 9.48751L10.3203 9.66813L10.3214
9.67239L11.0482 9.48751ZM11.2295 8.93751L11.7074 9.51552L11.7098 9.51347L11.2295 8.93751ZM14.0544
6.58126L13.5753 6.00429L13.574 6.0053L14.0544 6.58126ZM13.7544 5.62501L13.803 4.87659L13.8026
4.87656L13.7544 5.62501ZM10.067 5.38751L10.1152 4.63905L10.1105 4.63878L10.067 5.38751ZM9.61073
5.05001L10.3139 4.78923C10.3119 4.78387 10.3099 4.77852 10.3078 4.77321L9.61073 5.05001ZM8.23573
1.58752L7.53091 1.84389C7.5334 1.85074 7.53599 1.85755 7.53868 1.86432L8.23573 1.58752ZM7.74823
1.24609V0.496094V1.24609ZM7.26073 1.58752L7.95778 1.86432C7.96046 1.85755 7.96305 1.85074 7.96555 1.84389L7.26073 1.58752ZM5.88573 5.05001L5.18868 4.77321C5.18656 4.77852 5.18451 4.78387 5.18252 4.78923L5.88573 5.05001ZM5.42948 5.38751L5.38591 4.63876L5.38127 4.63906L5.42948 5.38751ZM1.74198 5.62501L1.69377 4.87656L1.69338 4.87659L1.74198 5.62501ZM1.44198 6.58126L1.92237 6.0053L1.92116 6.00429L1.44198 6.58126ZM4.26698 8.93751L3.78658 9.51347L3.78905 9.51551L4.26698 8.93751ZM4.44823 9.48751L5.1752 9.67199L5.17615 9.66813L4.44823 9.48751ZM3.60448 12.8125L4.33112 12.9982L4.33144 12.997L3.60448 12.8125ZM4.54198 13.525L4.14072 12.8914L4.13932 12.8923L4.54198 13.525ZM7.47323 11.6688L7.87448 12.3024L7.87566 12.3017L7.47323 11.6688ZM7.74823 11.5887V10.8387V11.5887ZM7.62122 12.3019L10.7712 14.3019L11.5752 13.0356L8.42523 11.0356L7.62122 12.3019ZM10.7731 14.3031C11.7978 14.9495 12.9595 13.9636 12.6877 12.8908L11.2337 13.2592C11.2131 13.1778 11.2518 13.0907 11.311 13.0459C11.3399 13.024 11.381 13.0054 11.4328 13.0018C11.4893 12.9979 11.5401 13.0135 11.5733 13.0344L10.7731 14.3031ZM12.6875 12.8901L11.775 9.30263L10.3214 9.67239L11.2339 13.2599L12.6875 12.8901ZM11.7761 9.30689C11.7855 9.34461 11.784 9.38421 11.7718 9.42112L10.3472 8.95163C10.2709 9.18316 10.2616 9.43153 10.3203 9.66813L11.7761 9.30689ZM11.7718 9.42112C11.7597 9.45803 11.7373 9.49075 11.7074 9.51551L10.7516 8.35951C10.5637 8.51485 10.4235 8.72011 10.3472 8.95163L11.7718 9.42112ZM11.7098 9.51347L14.5348 7.15722L13.574 6.0053L10.7491 8.36155L11.7098 9.51347ZM14.5336 7.15823C15.395 6.44284 14.9985 4.95422 13.803 4.87659L13.7058 6.37344C13.6631 6.37066 13.613 6.35196 13.5721 6.31735C13.535 6.28606 13.5157 6.2509 13.5067 6.22177C13.4893 6.16556 13.4982 6.06833 13.5753 6.00429L14.5336 7.15823ZM13.8026 4.87656L10.1152 4.63906L10.0188 6.13596L13.7062 6.37346L13.8026 4.87656ZM10.1105 4.63878C10.1554 4.64139 10.1985 4.657 10.2346 4.68372L9.34258 5.88965C9.54075 6.03624 9.77733 6.12193 10.0234 6.13625L10.1105 4.63878ZM10.2346 4.68372C10.2708 4.71044 10.2983 4.7471 10.3139 4.78923L8.90752 5.31079C8.99323 5.54191 9.14441 5.74305 9.34258 5.88965L10.2346 4.68372ZM10.3078 4.77321L8.93278 1.31071L7.53868 1.86432L8.91368 5.32682L10.3078 4.77321ZM8.94055 1.33114C8.85153 1.08641 8.68935 0.875002 8.47605 0.725616L7.61557 1.95426C7.57669 1.92703 7.54713 1.8885 7.53091 1.84389L8.94055 1.33114ZM8.47605 0.725616C8.26275 0.576228 8.00864 0.496094 7.74823 0.496094V1.99609C7.70076 1.99609 7.65445 1.98149 7.61557 1.95426L8.47605 0.725616ZM7.74823 0.496094C7.48781 0.496094 7.2337 0.576227 7.0204 0.725616L7.88088 1.95426C7.84201 1.98149 7.79569 1.99609 7.74823 1.99609V0.496094ZM7.0204 0.725616C6.8071 0.875003 6.64493 1.08641 6.55591 1.33114L7.96555 1.84389C7.94932 1.8885 7.91976 1.92703 7.88088 1.95426L7.0204 0.725616ZM6.56368 1.31071L5.18868 4.77321L6.58278 5.32682L7.95778 1.86432L6.56368 1.31071ZM5.18252 4.78923C5.19815 4.7471 5.2257 4.71044 5.26182 4.68372L6.15387 5.88965C6.35204 5.74305 6.50322 5.54191 6.58893 5.31079L5.18252 4.78923ZM5.26182 4.68372C5.29794 4.65701 5.34106 4.64139 5.38591 4.63878L5.47304 6.13625C5.71912 6.12193 5.9557 6.03624 6.15387 5.88965L5.26182 4.68372ZM5.38127 4.63906L1.69377 4.87656L1.79019 6.37346L5.47768 6.13596L5.38127 4.63906ZM1.69338 4.87659C0.497893 4.95422 0.101424 6.44284 0.962804 7.15823L1.92116 6.00429C1.99826 6.06833 2.00709 6.16556 1.98969 6.22177C1.98068 6.2509 1.96139 6.28606 1.92436 6.31735C1.88342 6.35196 1.83335 6.37066 1.79058 6.37344L1.69338 4.87659ZM0.961591 7.15722L3.78659 9.51347L4.74736 8.36155L1.92237 6.0053L0.961591 7.15722ZM3.78905 9.51551C3.7591 9.49075 3.73675 9.45803 3.72459 9.42112L5.14923 8.95163C5.07293 8.72011 4.93277 8.51485 4.7449 8.35951L3.78905 9.51551ZM3.72459 9.42112C3.71243 9.38421 3.71094 9.34461 3.7203 9.30689L5.17615 9.66813C5.23486 9.43153 5.22553 9.18316 5.14923 8.95163L3.72459 9.42112ZM3.72127 9.30304L2.87752 12.628L4.33144 12.997L5.17519 9.67198L3.72127 9.30304ZM2.87783 12.6268C2.58123 13.7874 3.83789 14.8621 4.94463 14.1578L4.13932 12.8923C4.15498 12.8823 4.1868 12.8712 4.22449 12.8738C4.25734 12.8761 4.27974 12.8876 4.29272 12.8975C4.30574 12.9074 4.31785 12.922 4.32558 12.9427C4.3347 12.9672 4.33342 12.9892 4.33112 12.9982L2.87783 12.6268ZM4.94323 14.1587L7.87448 12.3024L7.07197 11.0351L4.14072 12.8914L4.94323 14.1587ZM7.87566 12.3017C7.83757 12.3259 7.79337 12.3387 7.74823 12.3387V10.8387C7.50827 10.8387 7.27328 10.9071 7.07079 11.0359L7.87566 12.3017ZM7.74823 12.3387C7.70309 12.3387 7.65888 12.3259 7.62079 12.3017L8.42566 11.0359C8.22317 10.9071 7.98818 10.8387 7.74823 10.8387V12.3387Z" fill="#6E6E6E"/>
</svg>
