<svg width="24" height="24" viewBox="0 0 24 24" fill="none" xmlns="http://www.w3.org/2000/svg">
<path d="M16.7388 14.9475C16.6286 14.3221 16.0322 13.9043 15.4067 14.0145C14.7812 14.1247 14.3635 14.7211 14.4737 15.3466L16.7388 14.9475ZM15.1393 19.1247C15.2495 19.7502 15.8459 20.168 16.4714 20.0578C17.0969 19.9476 17.5146 19.3512 17.4044 18.7257L15.1393 19.1247ZM14.4737 15.3466L15.1393 19.1247L17.4044 18.7257L16.7388 14.9475L14.4737 15.3466Z" fill="#6E6E6E"/>
<path d="M11.8176 15.3367C11.9275 14.7112 11.5096 14.115 10.884 14.005C10.2585 13.8951 9.66225 14.3131 9.55231 14.9386L11.8176 15.3367ZM8.88669 18.7261C8.77675 19.3517 9.19474 19.9479 9.82028 20.0578C10.4458 20.1678 11.042 19.7498 11.152 19.1242L8.88669 18.7261ZM9.55231 14.9386L8.88669 18.7261L11.152 19.1242L11.8176 15.3367L9.55231 14.9386Z" fill="#6E6E6E"/>
<path d="M20.9986 12.5078C20.6801 11.9583 19.9764 11.7711 19.4269 12.0897C18.8775 12.4082 18.6903 13.1119 19.0088 13.6614L20.9986 12.5078ZM21.1557 17.3645C21.4742 17.914 22.1779 18.1011 22.7274 17.7826C23.2768 17.464 23.464 16.7604 23.1455 16.2109L21.1557 17.3645ZM19.0088 13.6614L21.1557 17.3645L23.1455 16.2109L20.9986 12.5078L19.0088 13.6614Z" fill="#6E6E6E"/>
<path d="M7.28346 13.6592C7.60081 13.109 7.41207 12.4058 6.86191 12.0884C6.31175 11.7711 5.6085 11.9598 5.29115 12.51L7.28346 13.6592ZM3.14427 16.2318C2.82693 16.782 3.01566 17.4853 3.56582 17.8026C4.11598 18.12 4.81923 17.9312 5.13658 17.3811L3.14427 16.2318ZM5.29115 12.51L3.14427 16.2318L5.13658 17.3811L7.28346 13.6592L5.29115 12.51Z" fill="#6E6E6E"/>
<path d="M5.04467 10.2618C4.6456 9.76771 3.92154 9.69068 3.42745 10.0898C2.93336 10.4888 2.85633 11.2129 3.25541 11.707L5.04467 10.2618ZM23.0446 11.707C23.4437 11.2129 23.3667 10.4888 22.8726 10.0898C22.3785 9.69068 21.6544 9.76771 21.2554 10.2618L23.0446 11.707ZM3.25541 11.707C4.95745 13.8143 8.142 16.55 13.15 16.55V14.25C9.08308 14.25 6.49263 12.0545 5.04467 10.2618L3.25541 11.707ZM13.15 16.55C18.158 16.55 21.3426 13.8143 23.0446 11.707L21.2554 10.2618C19.8074 12.0545 17.217 14.25 13.15 14.25V16.55Z" fill="#6E6E6E"/>
</svg>
