<svg width="30" height="30" viewBox="0 0 30 30" fill="none" xmlns="http://www.w3.org/2000/svg">
<path d="M11.607 20.9577C12.0004 21.5714 12.7854 21.7285 13.3604 21.3086C13.9354 20.8887 14.0826 20.0507 13.6892 19.437L11.607 20.9577ZM16.3945 20.9783C15.6979 20.9783 15.1331 21.5811 15.1331 22.3248C15.1331 23.0684 15.6979 23.6713 16.3945 23.6713V20.9783ZM13.6892 19.437C13.3415 18.8946 13.1401 18.2308 13.1401 17.5043H10.6172C10.6172 18.7707 10.9708 19.9651 11.607 20.9577L13.6892 19.437ZM13.1401 17.5043C13.1401 15.5819 14.5936 14.0304 16.3945 14.0304V11.3374C13.2002 11.3374 10.6172 14.0946 10.6172 17.5043H13.1401ZM16.3945 14.0304C18.1955 14.0304 19.649 15.5819 19.649 17.5043H22.1719C22.1719 14.0946 19.5889 11.3374 16.3945 11.3374V14.0304ZM19.649 17.5043C19.649 19.4268 18.1955 20.9783 16.3945 20.9783V23.6713C19.5889 23.6713 22.1719 20.9141 22.1719 17.5043H19.649Z" fill="#FD650B"/>
<path d="M22.6769 9.95785C23.2448 10.3884 24.0324 10.2459 24.4356 9.63953C24.839 9.03318 24.7055 8.19263 24.1374 7.76209L22.6769 9.95785ZM4.90196 14.017L5.96525 14.7415L5.96631 14.7397L4.90196 14.017ZM4.90196 21.0053L5.96631 20.2827L5.96525 20.2809L4.90196 21.0053ZM27.8853 21.0053L26.822 20.2809L26.821 20.2827L27.8853 21.0053ZM28.9485 13.2926C28.5737 12.6657 27.7938 12.4819 27.2065 12.8821C26.6193 13.2822 26.4472 14.1147 26.822 14.7415L28.9485 13.2926ZM24.1374 7.76209C21.8138 6.0009 19.1656 5.02246 16.3936 5.02246V7.71545C18.5917 7.71545 20.7369 8.48745 22.6769 9.95785L24.1374 7.76209ZM16.3936 5.02246C11.4057 5.02246 6.89604 8.16213 3.83762 13.2943L5.96631 14.7397C8.68524 10.1772 12.4758 7.71545 16.3936 7.71545V5.02246ZM3.83867 13.2926C3.11055 14.5102 2.78906 16.0516 2.78906 17.5112C2.78906 18.9707 3.11055 20.5122 3.83867 21.7298L5.96525 20.2809C5.55809 19.5999 5.31193 18.5965 5.31193 17.5112C5.31193 16.4259 5.55809 15.4224 5.96525 14.7415L3.83867 13.2926ZM3.83762 21.728C6.89604 26.8602 11.4057 29.9999 16.3936 29.9999V27.3069C12.4758 27.3069 8.68524 24.8452 5.96631 20.2827L3.83762 21.728ZM16.3936 29.9999C21.3816 29.9999 25.8911 26.8602 28.9495 21.728L26.821 20.2827C24.102 24.8452 20.3114 27.3069 16.3936 27.3069V29.9999ZM28.9485 21.7298C29.6766 20.5122 29.9981 18.9707 29.9981 17.5112C29.9981 16.0516 29.6766 14.5102 28.9485 13.2926L26.822 14.7415C27.2292 15.4224 27.4753 16.4259 27.4753 17.5112C27.4753 18.5965 27.2292 19.5999 26.822 20.2809L28.9485 21.7298Z" fill="#FD650B"/>
</svg>
