<svg width="30" height="30" viewBox="0 0 30 30" fill="none" xmlns="http://www.w3.org/2000/svg">
<path d="M27.8762 16.9912C27.8762 23.0028 23.0028 27.8762 16.9913 27.8762V30C24.1759 30 30.0001 24.1758 30.0001 16.9912H27.8762ZM16.9913 27.8762C10.9797 27.8762 6.10632 23.0028 6.10632 16.9912H3.98242C3.98242 24.1758 9.80668 30 16.9913 30V27.8762ZM6.10632 16.9912C6.10632 10.9797 10.9797 6.10631 16.9913 6.10631V3.98242C9.80668 3.98242 3.98242 9.80666 3.98242 16.9912H6.10632ZM16.9913 6.10631C23.0028 6.10631 27.8762 10.9797 27.8762 16.9912H30.0001C30.0001 9.80666 24.1759 3.98242 16.9913 3.98242V6.10631Z" fill="#FD650B"/>
<path d="M21.969 13.0751C22.5555 13.0751 23.031 12.5996 23.031 12.0131C23.031 11.4266 22.5555 10.9512 21.969 10.9512V13.0751ZM16.9911 14.9998H15.9292H16.9911ZM15.9292 28.9378C15.9292 29.5244 16.4046 29.9998 16.9911 29.9998C17.5776 29.9998 18.0531 29.5244 18.0531 28.9378H15.9292ZM21.969 10.9512H19.9779V13.0751H21.969V10.9512ZM19.9779 10.9512C18.9041 10.9512 17.8743 11.3777 17.115 12.137L18.6168 13.6388C18.9778 13.2778 19.4674 13.0751 19.9779 13.0751V10.9512ZM17.115 12.137C16.3558 12.8963 15.9292 13.9261 15.9292 14.9998H18.0531C18.0531 14.4893 18.2559 13.9998 18.6168 13.6388L17.115 12.137ZM15.9292 14.9998V28.9378H18.0531V14.9998H15.9292Z" fill="#FD650B"/>
<path d="M13.0087 17.9204C12.4222 17.9204 11.9468 18.3959 11.9468 18.9824C11.9468 19.5688 12.4222 20.0443 13.0087 20.0443V17.9204ZM20.9733 20.0443C21.5598 20.0443 22.0353 19.5688 22.0353 18.9824C22.0353 18.3959 21.5598 17.9204 20.9733 17.9204V20.0443ZM13.0087 20.0443H20.9733V17.9204H13.0087V20.0443Z" fill="#FD650B"/>
</svg>
