<svg width="30" height="30" viewBox="0 0 30 30" fill="none" xmlns="http://www.w3.org/2000/svg">
<path d="M27.8762 16.9913C27.8762 23.0028 23.0028 27.8762 16.9913 27.8762V30.0001C24.1759 30.0001 30.0001 24.1759 30.0001 16.9913H27.8762ZM16.9913 27.8762C10.9797 27.8762 6.10632 23.0028 6.10632 16.9913H3.98242C3.98242 24.1759 9.80668 30.0001 16.9913 30.0001V27.8762ZM6.10632 16.9913C6.10632 10.9797 10.9797 6.10632 16.9913 6.10632V3.98242C9.80668 3.98242 3.98242 9.80668 3.98242 16.9913H6.10632ZM16.9913 6.10632C23.0028 6.10632 27.8762 10.9797 27.8762 16.9913H30.0001C30.0001 9.80668 24.1759 3.98242 16.9913 3.98242V6.10632Z" fill="#FD650B"/>
<path d="M21.969 13.0753C22.5555 13.0753 23.031 12.5999 23.031 12.0134C23.031 11.4269 22.5555 10.9514 21.969 10.9514V13.0753ZM16.9911 15.0001H15.9292H16.9911ZM15.9292 28.9381C15.9292 29.5247 16.4046 30.0001 16.9911 30.0001C17.5776 30.0001 18.0531 29.5247 18.0531 28.9381H15.9292ZM21.969 10.9514H19.9779V13.0753H21.969V10.9514ZM19.9779 10.9514C18.9041 10.9514 17.8743 11.378 17.115 12.1372L18.6168 13.6391C18.9778 13.2781 19.4674 13.0753 19.9779 13.0753V10.9514ZM17.115 12.1372C16.3558 12.8965 15.9292 13.9263 15.9292 15.0001H18.0531C18.0531 14.4896 18.2559 14 18.6168 13.6391L17.115 12.1372ZM15.9292 15.0001V28.9381H18.0531V15.0001H15.9292Z" fill="#FD650B"/>
<path d="M13.009 17.9204C12.4225 17.9204 11.947 18.3959 11.947 18.9824C11.947 19.5689 12.4225 20.0443 13.009 20.0443V17.9204ZM20.9736 20.0443C21.5601 20.0443 22.0355 19.5689 22.0355 18.9824C22.0355 18.3959 21.5601 17.9204 20.9736 17.9204V20.0443ZM13.009 20.0443H20.9736V17.9204H13.009V20.0443Z" fill="#FD650B"/>
</svg>
