<svg width="21" height="20" viewBox="0 0 21 20" fill="none" xmlns="http://www.w3.org/2000/svg">
<path d="M17.1146 8.34655C18.7097 8.34655 20.0027 7.09099 20.0027 5.54218C20.0027 3.99335 18.7097 2.73779 17.1146 2.73779C15.5196 2.73779 14.2266 3.99335 14.2266 5.54218C14.2266 7.09099 15.5196 8.34655 17.1146 8.34655Z" fill="#636363"/>
<path d="M6.30214 8.34655C7.89717 8.34655 9.1902 7.09099 9.1902 5.54218C9.1902 3.99335 7.89717 2.73779 6.30214 2.73779C4.70709 2.73779 3.41406 3.99335 3.41406 5.54218C3.41406 7.09099 4.70709 8.34655 6.30214 8.34655Z" fill="#636363"/>
<path d="M17.1146 19.9999C18.7097 19.9999 20.0027 18.7443 20.0027 17.1955C20.0027 15.6467 18.7097 14.3911 17.1146 14.3911C15.5196 14.3911 14.2266 15.6467 14.2266 17.1955C14.2266 18.7443 15.5196 19.9999 17.1146 19.9999Z" fill="#636363"/>
<path d="M6.30214 19.9999C7.89717 19.9999 9.1902 18.7443 9.1902 17.1955C9.1902 15.6467 7.89717 14.3911 6.30214 14.3911C4.70709 14.3911 3.41406 15.6467 3.41406 17.1955C3.41406 18.7443 4.70709 19.9999 6.30214 19.9999Z" fill="#636363"/>
</svg>
