<svg width="14" height="15" viewBox="0 0 14 15" fill="none" xmlns="http://www.w3.org/2000/svg">
<path d="M7.27549 11.9188L10.4255 13.9188C10.8317 14.175 11.3317 13.7938 11.213 13.325L10.3005 9.73751C10.2758 9.63807 10.2797 9.53368 10.3118 9.43638C10.3439 9.33907 10.4028 9.2528 10.4817 9.18751L13.3067 6.83126C13.6755 6.52501 13.488 5.90626 13.0067 5.87501L9.31924 5.63751C9.21862 5.63166 9.12189 5.59662 9.04087 5.53669C8.95984 5.47675 8.89803 5.39451 8.86299 5.30001L7.48799 1.83752C7.45159 1.73745 7.38528 1.65102 7.29807 1.58994C7.21086 1.52886 7.10696 1.49609 7.00049 1.49609C6.89401 1.49609 6.79012 1.52886 6.7029 1.58994C6.61569 1.65102 6.54938 1.73745 6.51299 1.83752L5.13799 5.30001C5.10294 5.39451 5.04113 5.47675 4.96011 5.53669C4.87908 5.59662 4.78235 5.63166 4.68174 5.63751L0.994236 5.87501C0.512985 5.90626 0.325486 6.52501 0.694236 6.83126L3.51924 9.18751C3.5982 9.2528 3.6571 9.33907 3.68917 9.43638C3.72124 9.53368 3.72516 9.63807 3.70049 9.73751L2.85674 13.0625C2.71299 13.625 3.31299 14.0813 3.79424 13.775L6.72549 11.9188C6.80768 11.8665 6.90308 11.8387 7.00049 11.8387C7.0979 11.8387 7.19329 11.8665 7.27549 11.9188Z" fill="#1A1A1A"/>
<path d="M7.27549 11.9188L10.4255 13.9188C10.8317 14.175 11.3317 13.7938 11.213 13.325L10.3005 9.73751C10.2758 9.63807 10.2797 9.53368 10.3118 9.43638C10.3439 9.33907 10.4028 9.2528 10.4817 9.18751L13.3067 6.83126C13.6755 6.52501 13.488 5.90626 13.0067 5.87501L9.31924 5.63751C9.21862 5.63166 9.12189 5.59662 9.04087 5.53669C8.95984 5.47675 8.89803 5.39451 8.86299 5.30001L7.48799 1.83752C7.45159 1.73745 7.38528 1.65102 7.29807 1.58994C7.21086 1.52886 7.10696 1.49609 7.00049 1.49609C6.89401 1.49609 6.79012 1.52886 6.7029 1.58994C6.61569 1.65102 6.54938 1.73745 6.51299 1.83752L5.13799 5.30001C5.10294 5.39451 5.04113 5.47675 4.96011 5.53669C4.87908 5.59662 4.78235 5.63166 4.68174 5.63751L0.994236 5.87501C0.512985 5.90626 0.325486 6.52501 0.694236 6.83126L3.51924 9.18751C3.5982 9.2528 3.6571 9.33907 3.68917 9.43638C3.72124 9.53368 3.72516 9.63807 3.70049 9.73751L2.85674 13.0625C2.71299 13.625 3.31299 14.0813 3.79424 13.775L6.72549 11.9188C6.80768 11.8665 6.90308 11.8387 7.00049 11.8387C7.0979 11.8387 7.19329 11.8665 7.27549 11.9188ZM7.27549 11.9188V11.9188Z" stroke="#1A1A1A" stroke-linecap="round" stroke-linejoin="round"/>
</svg>
