<svg width="30" height="30" viewBox="0 0 30 30" fill="none" xmlns="http://www.w3.org/2000/svg">
<path d="M23.4375 15.0938C23.4375 19.7019 19.7019 23.4375 15.0938 23.4375V26.4375C21.3587 26.4375 26.4375 21.3587 26.4375 15.0938H23.4375ZM15.0938 23.4375C10.4856 23.4375 6.75 19.7019 6.75 15.0938H3.75C3.75 21.3587 8.82877 26.4375 15.0938 26.4375V23.4375ZM6.75 15.0938C6.75 10.4856 10.4856 6.75 15.0938 6.75V3.75C8.82877 3.75 3.75 8.82877 3.75 15.0938H6.75ZM15.0938 6.75C19.7019 6.75 23.4375 10.4856 23.4375 15.0938H26.4375C26.4375 8.82877 21.3587 3.75 15.0938 3.75V6.75Z" fill="white"/>
<path d="M23.1144 20.994C22.5286 20.4082 21.5788 20.4082 20.9931 20.994C20.4073 21.5798 20.4073 22.5296 20.9931 23.1154L23.1144 20.994ZM26.6884 28.8107C27.2742 29.3965 28.224 29.3965 28.8098 28.8107C29.3955 28.2249 29.3955 27.2752 28.8098 26.6894L26.6884 28.8107ZM20.9931 23.1154L26.6884 28.8107L28.8098 26.6894L23.1144 20.994L20.9931 23.1154Z" fill="white"/>
</svg>
