<svg width="51" height="48" viewBox="0 0 51 48" fill="none" xmlns="http://www.w3.org/2000/svg">
<g clip-path="url(#clip0_12_52)">
<path d="M25.0018 36.1219L36.655 42.2531L34.4331 29.2781L43.8643 20.0906L30.8331 18.1969L25.0018 6.38437V0C26.0706 0 27.1393 0.553125 27.6925 1.66875L33.8143 14.0812L47.5112 16.0687C49.9675 16.425 50.9518 19.4531 49.1706 21.1875L39.2612 30.8438L41.605 44.4844C42.0268 46.9313 39.4487 48.7969 37.255 47.6438L25.0018 41.2125V36.1219Z" fill="#1A1A1A"/>
</g>
<path d="M25.1581 0C24.0894 0 23.0206 0.553125 22.4675 1.66875L16.3456 14.0812L2.64875 16.0687C0.192501 16.425 -0.791874 19.4531 0.989376 21.1875L10.8987 30.8438L8.555 44.4844C8.13313 46.9313 10.7113 48.7969 12.905 47.6438L25.1581 41.2125V0Z" fill="#1A1A1A"/>
<defs>
<clipPath id="clip0_12_52">
<rect width="25.08" height="48" fill="white" transform="translate(25.08)"/>
</clipPath>
</defs>
</svg>
