<svg width="33" height="32" viewBox="0 0 33 32" fill="none" xmlns="http://www.w3.org/2000/svg">
<path d="M25.4004 19.2582C25.4941 18.6951 25.0903 18.1664 24.4986 18.0773C23.9068 17.9882 23.3512 18.3724 23.2576 18.9355L25.4004 19.2582ZM18.2747 23.6773C17.683 23.7664 17.2792 24.2951 17.3729 24.8582C17.4665 25.4213 18.0221 25.8056 18.6138 25.7165L18.2747 23.6773ZM23.2576 18.9355C23.0598 20.1254 22.471 21.2251 21.5759 22.077L23.11 23.5368C24.3291 22.3766 25.131 20.8788 25.4004 19.2582L23.2576 18.9355ZM21.5759 22.077C20.6807 22.9288 19.5251 23.489 18.2747 23.6773L18.6138 25.7165C20.3168 25.46 21.8908 24.697 23.11 23.5368L21.5759 22.077Z" fill="#FD650B"/>
<path d="M11.3925 9.98693L12.2935 8.6976C11.9339 8.47007 11.4941 8.38787 11.0709 8.46907C10.6476 8.55029 10.2756 8.78827 10.0368 9.1306L11.3925 9.98693ZM7.59587 19.6128H5.96875H7.59587ZM30.3755 19.6128H32.0026H30.3755ZM21.5349 3.98689L22.6834 2.89013C22.3094 2.53539 21.7777 2.37548 21.2574 2.46118C20.737 2.54689 20.2927 2.86759 20.0657 3.32133L21.5349 3.98689ZM16.8162 13.4192L15.9152 14.7085C16.3081 14.9572 16.7951 15.0313 17.2499 14.9115C17.7047 14.7919 18.0825 14.4902 18.2853 14.0848L16.8162 13.4192ZM10.0368 9.1306C7.89872 12.1958 5.96875 15.9455 5.96875 19.6128H9.22299C9.22299 16.8801 10.71 13.7652 12.7481 10.8433L10.0368 9.1306ZM5.96875 19.6128C5.96875 22.8981 7.34017 26.0487 9.78133 28.3719L12.0824 26.1821C10.2516 24.4398 9.22299 22.0768 9.22299 19.6128H5.96875ZM9.78133 28.3719C12.2225 30.6949 15.5334 32 18.9857 32V28.9032C16.3965 28.9032 13.9133 27.9244 12.0824 26.1821L9.78133 28.3719ZM18.9857 32C22.438 32 25.7489 30.6949 28.1901 28.3719L25.889 26.1821C24.0581 27.9244 21.5749 28.9032 18.9857 28.9032V32ZM28.1901 28.3719C30.6312 26.0487 32.0026 22.8981 32.0026 19.6128H28.7484C28.7484 22.0768 27.7199 24.4398 25.889 26.1821L28.1901 28.3719ZM32.0026 19.6128C32.0026 12.1944 26.616 6.61964 22.6834 2.89013L20.3863 5.08365C24.3723 8.86386 28.7484 13.6118 28.7484 19.6128H32.0026ZM20.0657 3.32133L15.3471 12.7536L18.2853 14.0848L23.004 4.65245L20.0657 3.32133ZM17.7172 12.1299L12.2935 8.6976L10.4915 11.2763L15.9152 14.7085L17.7172 12.1299Z" fill="#FD650B"/>
</svg>
