<svg width="32" height="32" viewBox="0 0 32 32" fill="none" xmlns="http://www.w3.org/2000/svg">
<path d="M21.7953 30.1378L22.1767 31.3926C22.3829 31.3299 22.5703 31.2175 22.7227 31.0651L21.7953 30.1378ZM18.097 30.6886V32.0001H18.0978L18.097 30.6886ZM30.6871 18.0984L31.9986 18.0993V18.0984H30.6871ZM30.1363 21.7968L31.0637 22.7241C31.216 22.5718 31.3285 22.3843 31.3911 22.1782L30.1363 21.7968ZM21.4139 28.8829C20.3383 29.2099 19.2203 29.3764 18.0961 29.3771L18.0978 32.0001C19.4799 31.9991 20.8543 31.7944 22.1767 31.3926L21.4139 28.8829ZM18.097 29.3771C15.8662 29.3771 13.6856 28.7156 11.8309 27.4763L10.3736 29.6572C12.6597 31.1847 15.3475 32.0001 18.097 32.0001V29.3771ZM11.8309 27.4763C9.97608 26.237 8.53046 24.4755 7.67681 22.4146L5.25352 23.4184C6.3057 25.9586 8.08751 28.1296 10.3736 29.6572L11.8309 27.4763ZM7.67681 22.4146C6.82315 20.3536 6.59979 18.0859 7.03498 15.8981L4.46243 15.3863C3.92604 18.083 4.20133 20.8781 5.25352 23.4184L7.67681 22.4146ZM7.03498 15.8981C7.47017 13.7102 8.54436 11.7005 10.1217 10.1232L8.26701 8.26848C6.32283 10.2127 4.99883 12.6897 4.46243 15.3863L7.03498 15.8981ZM10.1217 10.1232C11.6991 8.54583 13.7087 7.47164 15.8966 7.03645L15.3849 4.4639C12.6882 5.0003 10.2112 6.3243 8.26701 8.26848L10.1217 10.1232ZM15.8966 7.03645C18.0845 6.60126 20.3522 6.82462 22.4132 7.67827L23.4169 5.25498C20.8766 4.2028 18.0815 3.9275 15.3849 4.4639L15.8966 7.03645ZM22.4132 7.67827C24.4741 8.53193 26.2355 9.97755 27.4748 11.8323L29.6558 10.3751C28.1282 8.08897 25.9571 6.30716 23.4169 5.25498L22.4132 7.67827ZM27.4748 11.8323C28.7141 13.6871 29.3756 15.8677 29.3756 18.0984H31.9986C31.9986 15.3489 31.1833 12.6612 29.6558 10.3751L27.4748 11.8323ZM29.3756 18.0976C29.3749 19.2218 29.2084 20.3398 28.8815 21.4154L31.3911 22.1782C31.7929 20.8558 31.9976 19.4813 31.9986 18.0993L29.3756 18.0976ZM29.2089 20.8694L20.8679 29.2104L22.7227 31.0651L31.0637 22.7241L29.2089 20.8694Z" fill="#FD650B"/>
<path d="M24.6856 21.9046C25.0491 21.2782 24.8361 20.4756 24.2097 20.112C23.5832 19.7484 22.7806 19.9615 22.417 20.5879L24.6856 21.9046ZM13.7741 20.5879C13.4105 19.9615 12.6079 19.7484 11.9814 20.112C11.355 20.4756 11.142 21.2782 11.5056 21.9046L13.7741 20.5879ZM22.417 20.5879C21.9777 21.3448 21.3473 21.973 20.5889 22.4097L21.8977 24.6828C23.0543 24.0168 24.0156 23.0588 24.6856 21.9046L22.417 20.5879ZM20.5889 22.4097C19.8305 22.8464 18.9707 23.0762 18.0956 23.0762V25.6992C19.4301 25.6992 20.7412 25.3487 21.8977 24.6828L20.5889 22.4097ZM18.0956 23.0762C17.2204 23.0762 16.3606 22.8464 15.6022 22.4097L14.2934 24.6828C15.4499 25.3487 16.761 25.6992 18.0956 25.6992V23.0762ZM15.6022 22.4097C14.8438 21.973 14.2134 21.3448 13.7741 20.5879L11.5056 21.9046C12.1755 23.0588 13.1368 24.0168 14.2934 24.6828L15.6022 22.4097Z" fill="#FD650B"/>
<path d="M21.5113 15.7379C22.3804 15.7379 23.085 15.0333 23.085 14.1641C23.085 13.2949 22.3804 12.5903 21.5113 12.5903C20.6421 12.5903 19.9375 13.2949 19.9375 14.1641C19.9375 15.0333 20.6421 15.7379 21.5113 15.7379Z" fill="#FD650B"/>
<path d="M12.066 15.7379C12.9351 15.7379 13.6397 15.0333 13.6397 14.1641C13.6397 13.2949 12.9351 12.5903 12.066 12.5903C11.1968 12.5903 10.4922 13.2949 10.4922 14.1641C10.4922 15.0333 11.1968 15.7379 12.066 15.7379Z" fill="#FD650B"/>
</svg>
