<svg width="30" height="30" viewBox="0 0 30 30" fill="none" xmlns="http://www.w3.org/2000/svg">
<path d="M21.26 17.278C21.26 19.4772 19.4772 21.26 17.278 21.26V23.4197C20.6699 23.4197 23.4197 20.6699 23.4197 17.278H21.26ZM17.278 21.26C15.0788 21.26 13.296 19.4772 13.296 17.278H11.1362C11.1362 20.6699 13.886 23.4197 17.278 23.4197V21.26ZM13.296 17.278C13.296 15.0788 15.0788 13.296 17.278 13.296V11.1362C13.886 11.1362 11.1362 13.886 11.1362 17.278H13.296ZM17.278 13.296C19.4772 13.296 21.26 15.0788 21.26 17.278H23.4197C23.4197 13.886 20.6699 11.1362 17.278 11.1362V13.296Z" fill="#FD650B"/>
<path d="M11.7098 6.71539H22.8459V4.55566H11.7098V6.71539ZM22.8459 6.71539C25.6042 6.71539 27.8403 8.95145 27.8403 11.7098H30C30 7.75866 26.797 4.55566 22.8459 4.55566V6.71539ZM27.8403 11.7098V22.8459H30V11.7098H27.8403ZM27.8403 22.8459C27.8403 25.6042 25.6042 27.8403 22.8459 27.8403V30C26.797 30 30 26.797 30 22.8459H27.8403ZM22.8459 27.8403H11.7098V30H22.8459V27.8403ZM11.7098 27.8403C8.95145 27.8403 6.71539 25.6042 6.71539 22.8459H4.55566C4.55566 26.797 7.75866 30 11.7098 30V27.8403ZM6.71539 22.8459V11.7098H4.55566V22.8459H6.71539ZM6.71539 11.7098C6.71539 8.95145 8.95145 6.71539 11.7098 6.71539V4.55566C7.75866 4.55566 4.55566 7.75866 4.55566 11.7098H6.71539Z" fill="#FD650B"/>
<path d="M22.7783 11.1362C23.617 11.1362 24.2969 10.4564 24.2969 9.61768C24.2969 8.779 23.617 8.09912 22.7783 8.09912C21.9396 8.09912 21.2598 8.779 21.2598 9.61768C21.2598 10.4564 21.9396 11.1362 22.7783 11.1362Z" fill="#FD650B"/>
</svg>
