<svg width="30" height="30" viewBox="0 0 30 30" fill="none" xmlns="http://www.w3.org/2000/svg">
<path d="M6.6479 6.71539H27.9077V4.55566H6.6479V6.71539ZM27.9077 6.71539C27.8705 6.71539 27.8403 6.68518 27.8403 6.6479H30C30 5.49239 29.0633 4.55566 27.9077 4.55566V6.71539ZM27.8403 6.6479V27.9077H30V6.6479H27.8403ZM27.8403 27.9077C27.8403 27.8705 27.8705 27.8403 27.9077 27.8403V30C29.0633 30 30 29.0633 30 27.9077H27.8403ZM27.9077 27.8403H6.6479V30H27.9077V27.8403ZM6.6479 27.8403C6.68518 27.8403 6.71539 27.8705 6.71539 27.9077H4.55566C4.55566 29.0633 5.49239 30 6.6479 30V27.8403ZM6.71539 27.9077V6.6479H4.55566V27.9077H6.71539ZM6.71539 6.6479C6.71539 6.68518 6.68518 6.71539 6.6479 6.71539V4.55566C5.49239 4.55566 4.55566 5.49239 4.55566 6.6479H6.71539Z" fill="#FD650B"/>
<path d="M17.3453 15.2532C17.3453 14.6568 16.8618 14.1733 16.2654 14.1733C15.669 14.1733 15.1855 14.6568 15.1855 15.2532H17.3453ZM15.1855 23.3522C15.1855 23.9486 15.669 24.4321 16.2654 24.4321C16.8618 24.4321 17.3453 23.9486 17.3453 23.3522H15.1855ZM15.1855 15.2532V23.3522H17.3453V15.2532H15.1855Z" fill="#FD650B"/>
<path d="M13.2958 15.2532C13.2958 14.6568 12.8124 14.1733 12.216 14.1733C11.6196 14.1733 11.1361 14.6568 11.1361 15.2532H13.2958ZM11.1361 23.3522C11.1361 23.9486 11.6196 24.4321 12.216 24.4321C12.8124 24.4321 13.2958 23.9486 13.2958 23.3522H11.1361ZM11.1361 15.2532V23.3522H13.2958V15.2532H11.1361Z" fill="#FD650B"/>
<path d="M15.1855 18.7965C15.1855 19.3929 15.669 19.8764 16.2654 19.8764C16.8618 19.8764 17.3453 19.3929 17.3453 18.7965H15.1855ZM19.8087 15.2532V14.1733V15.2532ZM22.2722 23.3522C22.2722 23.9486 22.7556 24.4321 23.352 24.4321C23.9484 24.4321 24.4319 23.9486 24.4319 23.3522H22.2722ZM17.3453 18.7965C17.3453 18.1432 17.6048 17.5166 18.0668 17.0546L16.5396 15.5274C15.6726 16.3944 15.1855 17.5704 15.1855 18.7965H17.3453ZM18.0668 17.0546C18.5288 16.5926 19.1554 16.3331 19.8087 16.3331V14.1733C18.5826 14.1733 17.4067 14.6604 16.5396 15.5274L18.0668 17.0546ZM19.8087 16.3331C20.4621 16.3331 21.0887 16.5926 21.5506 17.0546L23.0778 15.5274C22.2108 14.6604 21.0349 14.1733 19.8087 14.1733V16.3331ZM21.5506 17.0546C22.0126 17.5166 22.2722 18.1432 22.2722 18.7965H24.4319C24.4319 17.5704 23.9448 16.3944 23.0778 15.5274L21.5506 17.0546ZM22.2722 18.7965V23.3522H24.4319V18.7965H22.2722Z" fill="#FD650B"/>
<path d="M11.1361 11.6421C11.9748 11.6421 12.6547 10.9622 12.6547 10.1235C12.6547 9.28486 11.9748 8.60498 11.1361 8.60498C10.2974 8.60498 9.61755 9.28486 9.61755 10.1235C9.61755 10.9622 10.2974 11.6421 11.1361 11.6421Z" fill="#FD650B"/>
</svg>
