<svg width="24" height="24" viewBox="0 0 24 24" fill="none" xmlns="http://www.w3.org/2000/svg">
<path d="M21 13C21 17.4183 17.4183 21 13 21V23C18.5228 23 23 18.5228 23 13H21ZM13 21C8.58172 21 5 17.4183 5 13H3C3 18.5228 7.47715 23 13 23V21ZM5 13C5 8.58172 8.58172 5 13 5V3C7.47715 3 3 7.47715 3 13H5ZM13 5C17.4183 5 21 8.58172 21 13H23C23 7.47715 18.5228 3 13 3V5Z" fill="#6E6E6E"/>
<path d="M13.9062 13.0812L13.5952 12.5105C13.3008 12.671 13.1767 13.0291 13.3088 13.3373L13.9062 13.0812ZM11.3938 13.0812L11.9912 13.3373C12.1233 13.0291 11.9993 12.671 11.7048 12.5105L11.3938 13.0812ZM10.1 16.1L10.6957 16.36L10.6974 16.356L10.1 16.1ZM10.7844 17.15L10.7818 17.8H10.7844V17.15ZM14.5156 17.15V17.8L14.5182 17.8L14.5156 17.15ZM15.2 16.1L14.6025 16.356L14.6043 16.36L15.2 16.1ZM14.2173 13.652C14.8564 13.3036 15.3612 12.7524 15.6521 12.0852L14.4604 11.5656C14.285 11.968 13.9806 12.3004 13.5952 12.5105L14.2173 13.652ZM15.6521 12.0852C15.943 11.418 16.0033 10.6729 15.8236 9.96764L14.5638 10.2887C14.6722 10.714 14.6358 11.1633 14.4604 11.5656L15.6521 12.0852ZM15.8236 9.96764C15.6439 9.26234 15.2343 8.63702 14.6596 8.19041L13.8619 9.21688C14.2085 9.48621 14.4555 9.86332 14.5638 10.2887L15.8236 9.96764ZM14.6596 8.19041C14.0849 7.74379 13.3778 7.50134 12.65 7.50134V8.80134C13.0889 8.80134 13.5153 8.94755 13.8619 9.21688L14.6596 8.19041ZM12.65 7.50134C11.9222 7.50134 11.2151 7.74379 10.6404 8.19041L11.4381 9.21688C11.7847 8.94755 12.2111 8.80134 12.65 8.80134V7.50134ZM10.6404 8.19041C10.0657 8.63702 9.65614 9.26234 9.47642 9.96764L10.7362 10.2887C10.8445 9.86332 11.0915 9.48621 11.4381 9.21688L10.6404 8.19041ZM9.47642 9.96764C9.2967 10.6729 9.35703 11.418 9.64791 12.0852L10.8396 11.5656C10.6642 11.1633 10.6278 10.714 10.7362 10.2887L9.47642 9.96764ZM9.64791 12.0852C9.93878 12.7524 10.4436 13.3036 11.0827 13.652L11.7048 12.5105C11.3194 12.3004 11.015 11.968 10.8396 11.5656L9.64791 12.0852ZM10.7963 12.8252L9.50256 15.8439L10.6974 16.356L11.9912 13.3373L10.7963 12.8252ZM9.50427 15.84C9.41147 16.0526 9.37297 16.2849 9.39221 16.5161L10.6877 16.4083C10.6864 16.3918 10.6891 16.3752 10.6957 16.36L9.50427 15.84ZM9.39221 16.5161C9.41146 16.7473 9.48785 16.9701 9.61452 17.1644L10.7036 16.4546C10.6946 16.4407 10.6891 16.4248 10.6877 16.4083L9.39221 16.5161ZM9.61452 17.1644C9.7412 17.3588 9.91418 17.5186 10.1179 17.6295L10.7396 16.4878C10.725 16.4799 10.7127 16.4685 10.7036 16.4546L9.61452 17.1644ZM10.1179 17.6295C10.3217 17.7405 10.5498 17.799 10.7818 17.8L10.787 16.5C10.7704 16.4999 10.7541 16.4957 10.7396 16.4878L10.1179 17.6295ZM10.7844 17.8H14.5156V16.5H10.7844V17.8ZM14.5182 17.8C14.7502 17.799 14.9783 17.7405 15.1821 17.6295L14.5604 16.4878C14.5459 16.4957 14.5296 16.4999 14.513 16.5L14.5182 17.8ZM15.1821 17.6295C15.3858 17.5186 15.5588 17.3588 15.6855 17.1644L14.5964 16.4546C14.5873 16.4685 14.575 16.4799 14.5604 16.4878L15.1821 17.6295ZM15.6855 17.1644C15.8122 16.9701 15.8886 16.7473 15.9078 16.5161L14.6123 16.4083C14.6109 16.4248 14.6054 16.4407 14.5964 16.4546L15.6855 17.1644ZM15.9078 16.5161C15.927 16.2849 15.8885 16.0526 15.7957 15.84L14.6043 16.36C14.6109 16.3752 14.6136 16.3918 14.6123 16.4083L15.9078 16.5161ZM15.7975 15.8439L14.5037 12.8252L13.3088 13.3373L14.6026 16.356L15.7975 15.8439Z" fill="#6E6E6E"/>
</svg>
