<svg width="129" height="41" viewBox="0 0 129 41" fill="none" xmlns="http://www.w3.org/2000/svg">
<path d="M35.5957 25.7002L19.9999 16.1023L4.40569 25.7028C3.81696 26.0641 3.04695 25.8816 2.6869 25.2928C2.32436 24.7053 2.50805 23.9351 3.09677 23.5737L19.3459 13.5707C19.7472 13.3231 20.2547 13.3231 20.6559 13.5706L36.9068 23.571C37.4956 23.9335 37.6782 24.7024 37.3169 25.29C36.9519 25.8814 36.1795 26.0603 35.5957 25.7002Z" fill="#FD650B"/>
<path d="M23.1273 28.3866L16.8773 28.3871C16.5323 28.3872 16.2523 28.6672 16.2523 29.0123L16.2531 38.3889L7.50307 38.3896L7.50207 25.9988L20.0015 18.3052L32.5021 25.998L32.5031 38.3876L23.7531 38.3883L23.7523 29.0117C23.7523 28.6666 23.4723 28.3866 23.1273 28.3866ZM35.0003 3.38139L35.0009 11.1702C35.0009 11.5253 34.5723 11.7029 34.3209 11.4516L31.7307 8.86134L27.3561 13.2374C26.8486 13.7463 26.0624 13.8402 25.4474 13.4726L20.0108 10.2113L2.50166 20.9908L2.50137 17.3214L19.1818 7.0533C19.678 6.74695 20.303 6.74315 20.8056 7.04441L26.0095 10.167L29.5218 6.65364L26.9315 4.06341C26.6791 3.81089 26.8578 3.38205 27.2128 3.38202L35.0003 3.38139Z" fill="#FD650B"/>
<path d="M63.4041 25.1507C63.5539 25.3004 63.6906 25.4111 63.8143 25.4827C63.938 25.5478 64.0357 25.5836 64.1073 25.5901C64.1789 25.5966 64.2798 25.5999 64.41 25.5998C64.5468 25.5998 64.7323 25.538 64.9667 25.4143L65.2792 26.1174C64.8431 26.6578 64.306 27.0387 63.668 27.2601C63.4011 27.3512 63.1862 27.3968 63.0235 27.3968C62.405 27.3969 61.8841 27.2407 61.4609 26.9282C61.0377 26.6157 60.6731 26.2544 60.3671 25.8443C60.0611 25.4342 59.7713 24.9655 59.4978 24.4381C58.9899 23.4746 58.5992 22.4948 58.3257 21.4988C57.7398 21.5769 57.0985 21.6161 56.4019 21.6161L56.4021 23.7646C56.4021 24.2919 56.4412 25.135 56.5195 26.2938L56.5586 26.8798C56.0052 27.0491 55.3444 27.1338 54.5762 27.1338C53.8145 27.1339 53.3294 27.0493 53.1211 26.8801C53.3098 25.5063 53.4041 24.4582 53.404 23.7355L53.4034 15.9035C53.4033 15.324 53.3512 14.953 53.2471 14.7902C53.1429 14.6274 53.0745 14.5233 53.042 14.4777C53.0094 14.4256 52.9508 14.3768 52.8662 14.3312C52.788 14.2792 52.7327 14.2434 52.7001 14.2238C52.6285 14.1913 52.5146 14.149 52.3583 14.0969C52.2606 13.843 52.2118 13.5924 52.2118 13.345C52.2118 13.0911 52.215 12.9348 52.2215 12.8762C53.9663 12.6092 55.8934 12.4755 58.0027 12.4754L58.5594 12.4753C59.9461 12.5012 61.131 12.8429 62.1141 13.5004C62.5959 13.8259 62.9801 14.249 63.2666 14.7699C63.5531 15.2907 63.6964 15.8799 63.6964 16.5374C63.6965 17.6312 63.4329 18.5654 62.9056 19.3402C62.3849 20.1085 61.5223 20.688 60.3179 21.0787C60.8257 21.7622 61.2522 22.3481 61.5973 22.8364C61.9424 23.3247 62.2224 23.712 62.4372 23.9984C62.6521 24.2849 62.8279 24.5095 62.9646 24.6722C63.1079 24.835 63.2544 24.9945 63.4041 25.1507ZM60.8058 16.5572C60.8057 14.8384 59.7834 13.9791 57.7392 13.9793C57.3551 13.9793 56.9091 14.0054 56.4013 14.0575L56.4018 20.1024C58.7065 20.0046 60.0834 19.3925 60.5325 18.2662C60.7147 17.7909 60.8058 17.2212 60.8058 16.5572ZM69.7516 22.66C69.947 23.6235 70.3637 24.4014 71.0018 24.9938C71.6399 25.5862 72.3853 25.8824 73.2382 25.8823C74.091 25.8823 74.9504 25.5144 75.8162 24.7786C76.1418 24.9934 76.3403 25.2473 76.412 25.5403C75.8131 26.2369 74.9277 26.7351 73.7559 27.0346C73.2806 27.1584 72.7305 27.2203 72.1055 27.2203C71.487 27.2204 70.8457 27.1065 70.1816 26.8787C69.5175 26.6574 68.9218 26.3319 68.3944 25.9023C67.8736 25.4726 67.4601 24.9095 67.1541 24.2129C66.848 23.5098 66.695 22.7318 66.6949 21.879C66.6948 21.0261 66.851 20.2546 67.1635 19.5645C67.4759 18.8678 67.8893 18.2981 68.4036 17.8554C69.4777 16.9243 70.7081 16.4587 72.0948 16.4586C73.3123 16.4585 74.367 16.7872 75.259 17.4447C75.6887 17.7702 76.0305 18.1933 76.2845 18.7141C76.5449 19.2284 76.6752 19.8111 76.6752 20.4621C76.6753 21.5754 76.3075 22.1614 75.5719 22.22L69.7516 22.66ZM74.0483 20.1694C74.0482 19.3946 73.8333 18.7892 73.4036 18.353C72.9739 17.9169 72.4107 17.6988 71.7141 17.6989C71.0175 17.6989 70.4902 18.0277 70.1321 18.6853C69.7741 19.3364 69.5952 20.2414 69.5952 21.4002C71.2163 21.2243 72.6812 21.0386 73.9897 20.8432C74.0288 20.6088 74.0483 20.3842 74.0483 20.1694ZM79.0869 14.417C78.9761 13.7855 78.5627 13.4275 77.8465 13.3429C77.8009 13.0239 77.7781 12.8449 77.7781 12.8058C77.7781 12.7602 77.7814 12.7114 77.7879 12.6593C79.0183 12.1774 80.2651 11.9365 81.5281 11.9364C81.5867 11.9364 81.6485 11.9363 81.7136 11.9363C81.8504 12.1121 81.9415 12.5223 81.9872 13.1668C82.0328 13.8048 82.0557 15.2957 82.0559 17.6394C82.0561 19.9767 82.0205 23.0561 81.9492 26.8777C81.5195 27.0015 81.0052 27.0634 80.4062 27.0634C79.8073 27.0634 79.3418 26.9951 79.0097 26.8584C79.1269 25.986 79.1853 24.3226 79.1851 21.8682C79.1849 19.4138 79.1522 16.93 79.0869 14.417ZM93.6284 21.3592L93.5701 24.6405C93.5701 24.673 93.5701 24.7056 93.5701 24.7381C93.5702 25.0962 93.7394 25.2752 94.078 25.2752C94.3384 25.2752 94.6151 25.1905 94.908 25.0212C94.9992 25.0993 95.0838 25.21 95.162 25.3532C95.2466 25.4899 95.2955 25.5974 95.3085 25.6755C94.5013 26.7042 93.6615 27.2186 92.7891 27.2187C91.9232 27.2187 91.3177 26.7923 90.9726 25.9395C90.3736 26.3562 89.7617 26.672 89.1367 26.8869C88.5182 27.1083 87.9844 27.219 87.5352 27.2191C87.0925 27.2191 86.679 27.1703 86.2949 27.0727C85.9173 26.9751 85.5657 26.8188 85.2402 26.604C84.537 26.1484 84.1854 25.3964 84.1853 24.3483C84.1853 23.7884 84.3382 23.3001 84.6442 22.8834C84.9567 22.4602 85.3798 22.1281 85.9136 21.8872C86.9357 21.4249 88.1564 21.1741 89.5757 21.1349L90.7085 21.0958C90.754 20.5684 90.7768 20.1518 90.7768 19.8458C90.7767 19.1557 90.6432 18.6348 90.3762 18.2833C90.1158 17.9318 89.6275 17.756 88.9114 17.7561C88.4817 17.7561 88.1464 17.9059 87.9055 18.2054C87.6712 18.5049 87.554 18.9476 87.5541 19.5335C87.5541 19.6117 87.4434 19.7061 87.2221 19.8168C86.851 19.9926 86.4799 20.0805 86.1088 20.0805C85.7442 20.0805 85.4512 19.9764 85.2299 19.7681C85.015 19.5598 84.9076 19.2668 84.9075 18.8892C84.9075 18.5116 85.0442 18.1568 85.3176 17.8247C85.591 17.4927 85.9556 17.2355 86.4113 17.0531C87.3162 16.695 88.3481 16.5159 89.507 16.5158C90.7179 16.5157 91.6033 16.7077 92.1633 17.0917C92.6711 17.4302 93.0325 17.9152 93.2474 18.5467C93.5013 19.2824 93.6284 20.2199 93.6284 21.3592ZM90.7088 24.9141C90.6241 24.4389 90.5818 24.0287 90.5818 23.6837C90.5817 23.3321 90.5915 22.8438 90.6109 22.2188L89.2535 22.2775C88.5569 22.2776 88.0198 22.4469 87.6422 22.7855C87.2647 23.124 87.0759 23.5472 87.0759 24.055C87.076 24.5629 87.1867 24.9274 87.408 25.1488C87.6294 25.3701 88.0754 25.4808 88.746 25.4807C89.423 25.4806 90.0773 25.2918 90.7088 24.9141ZM97.5837 23.771C97.7335 23.7449 97.9483 23.7319 98.2282 23.7319C98.5147 23.7319 98.8923 23.8458 99.3611 24.0736C99.3546 24.1257 99.3513 24.2233 99.3513 24.3666C99.3514 24.5098 99.3839 24.6856 99.449 24.8939C99.5207 25.1022 99.6281 25.2943 99.7714 25.47C100.084 25.8606 100.598 26.0559 101.314 26.0559C102.031 26.0558 102.499 25.8149 102.721 25.3331C102.909 24.8904 102.877 24.4314 102.623 23.9561C102.434 23.6046 101.929 23.2693 101.109 22.9504C100.972 22.8983 100.784 22.8267 100.543 22.7356C98.3811 21.961 97.2873 20.8413 97.2611 19.3765C97.261 18.7124 97.4465 18.1525 97.8176 17.6968C98.5207 16.8438 99.7088 16.4173 101.382 16.4172C102.482 16.4171 103.41 16.6449 104.165 17.1005C104.927 17.5562 105.308 18.1161 105.308 18.7801C105.308 19.5223 104.947 19.8935 104.224 19.8935C103.71 19.8936 103.348 19.8382 103.14 19.7276C102.932 19.6104 102.828 19.5453 102.828 19.5323C102.828 19.4932 102.828 19.4574 102.828 19.4249C102.827 18.2074 102.235 17.5987 101.05 17.5988C100.64 17.5989 100.314 17.7063 100.073 17.9212C99.8391 18.1295 99.722 18.4388 99.722 18.849C99.722 19.2526 99.8653 19.5879 100.152 19.8548C100.445 20.1217 101.005 20.4211 101.832 20.7531C102.665 21.085 103.199 21.3096 103.433 21.4268C104.898 22.1363 105.631 23.0542 105.631 24.1805C105.631 25.1571 105.217 25.9091 104.391 26.4365C103.57 26.9574 102.477 27.2179 101.109 27.218C100.204 27.2181 99.5208 27.14 99.0586 26.9838C98.5963 26.8276 98.2448 26.6844 98.0039 26.5542C97.7695 26.424 97.5742 26.2873 97.4179 26.1441C97.2681 26.0008 97.1412 25.8511 97.037 25.6949C96.757 25.2847 96.6756 24.8681 96.7928 24.4449C96.8904 24.0868 97.154 23.8622 97.5837 23.771ZM113.111 24.9123C113.346 25.1271 113.479 25.3485 113.512 25.5764C112.652 26.6702 111.66 27.2171 110.533 27.2172C109.798 27.2173 109.277 26.9244 108.971 26.3384C108.71 25.8241 108.551 24.942 108.492 23.692C108.44 21.7389 108.413 19.9192 108.413 18.233C107.749 18.207 107.342 18.1745 107.193 18.1355C107.16 18.0834 107.144 17.8913 107.144 17.5593C107.144 17.2273 107.16 17.045 107.193 17.0124L108.433 16.8951C108.433 16.7584 108.452 16.1041 108.491 14.9322C108.817 14.6002 109.292 14.3462 109.917 14.1704C110.548 13.9881 111.108 13.8969 111.597 13.8968C111.506 14.7237 111.431 15.723 111.372 16.8949C111.587 16.9014 112.235 16.9404 113.316 17.0119C113.348 17.1226 113.364 17.3342 113.364 17.6467C113.364 17.9592 113.348 18.148 113.316 18.2131C112.717 18.2913 112.049 18.3401 111.314 18.3597C111.288 19.1345 111.275 20.1143 111.275 21.2992C111.275 22.4776 111.301 23.5909 111.353 24.639C111.373 25.0427 111.575 25.2445 111.959 25.2444C112.349 25.2444 112.734 25.1337 113.111 24.9123ZM126.451 21.5616C126.451 22.4145 126.298 23.2153 125.992 23.964C125.686 24.7127 125.253 25.3248 124.693 25.8001C123.567 26.7572 122.079 27.2358 120.23 27.236C119.306 27.236 118.453 27.018 117.672 26.5819C116.891 26.1457 116.269 25.5371 115.806 24.7559C115.344 23.9681 115.113 23.0307 115.113 21.9434C115.113 20.8497 115.393 19.8666 115.952 18.9941C117.053 17.2753 118.898 16.4158 121.489 16.4156C122.791 16.4155 123.934 16.8613 124.917 17.7532C125.939 18.6841 126.451 19.9536 126.451 21.5616ZM117.994 21.8455C117.994 22.9588 118.316 23.9321 118.961 24.7654C119.605 25.5987 120.361 26.0153 121.226 26.0152C122.828 26.0151 123.629 24.7097 123.629 22.099C123.628 20.8034 123.332 19.752 122.74 18.9448C122.147 18.1375 121.392 17.7339 120.474 17.734C120.012 17.734 119.611 17.8513 119.273 18.0857C118.934 18.3201 118.677 18.6358 118.501 19.033C118.163 19.7947 117.994 20.7322 117.994 21.8455Z" fill="#FD650B"/>
</svg>
