<svg width="129" height="42" viewBox="0 0 129 42" fill="none" xmlns="http://www.w3.org/2000/svg">
<path d="M35.5957 25.8164L19.9999 16.2185L4.40569 25.8189C3.81696 26.1802 3.04695 25.9977 2.6869 25.409C2.32436 24.8214 2.50805 24.0512 3.09677 23.6898L19.3459 13.6868C19.7472 13.4393 20.2547 13.4392 20.6559 13.6867L36.9068 23.6871C37.4956 24.0496 37.6782 24.8185 37.3169 25.4062C36.9519 25.9975 36.1795 26.1764 35.5957 25.8164Z" fill="#FD650B"/>
<path d="M23.127 28.5027L16.877 28.5033C16.532 28.5033 16.2521 28.7834 16.2521 29.1284L16.2528 38.505L7.50283 38.5057L7.50183 26.1149L20.0012 18.4213L32.5019 26.1141L32.5029 38.5037L23.7529 38.5044L23.7521 29.1278C23.7521 28.7827 23.472 28.5027 23.127 28.5027ZM35 3.49752L35.0007 11.2863C35.0007 11.6414 34.572 11.819 34.3207 11.5677L31.7305 8.97747L27.3558 13.3536C26.8484 13.8624 26.0622 13.9563 25.4471 13.5887L20.0106 10.3274L2.50142 21.1069L2.50112 17.4375L19.1815 7.16942C19.6778 6.86308 20.3028 6.85928 20.8053 7.16054L26.0093 10.2832L29.5216 6.76977L26.9313 4.17953C26.6789 3.92701 26.8575 3.49817 27.2125 3.49814L35 3.49752Z" fill="#FD650B"/>
<path d="M63.4041 25.2668C63.5539 25.4166 63.6906 25.5272 63.8143 25.5988C63.938 25.6639 64.0357 25.6997 64.1073 25.7062C64.1789 25.7127 64.2798 25.716 64.41 25.716C64.5468 25.716 64.7323 25.6541 64.9667 25.5304L65.2792 26.2335C64.8431 26.7739 64.306 27.1548 63.668 27.3762C63.4011 27.4674 63.1862 27.5129 63.0235 27.513C62.405 27.513 61.8841 27.3568 61.4609 27.0443C61.0377 26.7319 60.6731 26.3706 60.3671 25.9604C60.0611 25.5503 59.7713 25.0816 59.4978 24.5543C58.9899 23.5908 58.5992 22.611 58.3257 21.6149C57.7398 21.6931 57.0985 21.7322 56.4019 21.7322L56.4021 23.8807C56.4021 24.408 56.4412 25.2511 56.5195 26.41L56.5586 26.9959C56.0052 27.1652 55.3444 27.2499 54.5762 27.25C53.8145 27.25 53.3294 27.1654 53.1211 26.9962C53.3098 25.6225 53.4041 24.5743 53.404 23.8516L53.4034 16.0196C53.4033 15.4402 53.3512 15.0691 53.2471 14.9063C53.1429 14.7436 53.0745 14.6394 53.042 14.5938C53.0094 14.5418 52.9508 14.4929 52.8662 14.4474C52.788 14.3953 52.7327 14.3595 52.7001 14.34C52.6285 14.3074 52.5146 14.2651 52.3583 14.213C52.2606 13.9591 52.2118 13.7085 52.2118 13.4611C52.2118 13.2072 52.215 13.0509 52.2215 12.9923C53.9663 12.7253 55.8934 12.5917 58.0027 12.5915L58.5594 12.5914C59.9461 12.6174 61.131 12.9591 62.1141 13.6165C62.5959 13.942 62.9801 14.3652 63.2666 14.886C63.5531 15.4068 63.6964 15.996 63.6964 16.6535C63.6965 17.7473 63.4329 18.6815 62.9056 19.4563C62.3849 20.2246 61.5223 20.8041 60.3179 21.1948C60.8257 21.8784 61.2522 22.4643 61.5973 22.9525C61.9424 23.4408 62.2224 23.8281 62.4372 24.1146C62.6521 24.401 62.8279 24.6256 62.9646 24.7884C63.1079 24.9511 63.2544 25.1106 63.4041 25.2668ZM60.8058 16.6733C60.8057 14.9545 59.7834 14.0952 57.7392 14.0954C57.3551 14.0954 56.9091 14.1215 56.4013 14.1736L56.4018 20.2186C58.7065 20.1207 60.0834 19.5086 60.5325 18.3823C60.7147 17.907 60.8058 17.3374 60.8058 16.6733ZM69.7516 22.7761C69.947 23.7396 70.3637 24.5176 71.0018 25.11C71.6399 25.7024 72.3853 25.9985 73.2382 25.9985C74.091 25.9984 74.9504 25.6305 75.8162 24.8947C76.1418 25.1096 76.3403 25.3634 76.412 25.6564C75.8131 26.3531 74.9277 26.8512 73.7559 27.1508C73.2806 27.2745 72.7305 27.3364 72.1055 27.3364C71.487 27.3365 70.8457 27.2226 70.1816 26.9948C69.5175 26.7735 68.9218 26.448 68.3944 26.0184C67.8736 25.5887 67.4601 25.0256 67.1541 24.329C66.848 23.6259 66.695 22.8479 66.6949 21.9951C66.6948 21.1422 66.851 20.3707 67.1635 19.6806C67.4759 18.984 67.8893 18.4143 68.4036 17.9715C69.4777 17.0404 70.7081 16.5748 72.0948 16.5747C73.3123 16.5746 74.367 16.9033 75.259 17.5608C75.6887 17.8863 76.0305 18.3094 76.2845 18.8302C76.5449 19.3445 76.6752 19.9272 76.6752 20.5783C76.6753 21.6915 76.3075 22.2775 75.5719 22.3362L69.7516 22.7761ZM74.0483 20.2855C74.0482 19.5108 73.8333 18.9053 73.4036 18.4692C72.9739 18.033 72.4107 17.8149 71.7141 17.815C71.0175 17.815 70.4902 18.1439 70.1321 18.8014C69.7741 19.4525 69.5952 20.3575 69.5952 21.5163C71.2163 21.3404 72.6812 21.1548 73.9897 20.9593C74.0288 20.725 74.0483 20.5003 74.0483 20.2855ZM79.0869 14.5331C78.9761 13.9016 78.5627 13.5436 77.8465 13.459C77.8009 13.14 77.7781 12.961 77.7781 12.9219C77.7781 12.8763 77.7814 12.8275 77.7879 12.7754C79.0183 12.2936 80.2651 12.0526 81.5281 12.0525C81.5867 12.0525 81.6485 12.0525 81.7136 12.0525C81.8504 12.2282 81.9415 12.6384 81.9872 13.2829C82.0328 13.9209 82.0557 15.4118 82.0559 17.7556C82.0561 20.0928 82.0205 23.1722 81.9492 26.9939C81.5195 27.1176 81.0052 27.1795 80.4062 27.1795C79.8073 27.1796 79.3418 27.1112 79.0097 26.9746C79.1269 26.1022 79.1853 24.4387 79.1851 21.9843C79.1849 19.5299 79.1522 17.0462 79.0869 14.5331ZM93.6284 21.4753L93.5701 24.7566C93.5701 24.7891 93.5701 24.8217 93.5701 24.8542C93.5702 25.2123 93.7394 25.3913 94.078 25.3913C94.3384 25.3913 94.6151 25.3066 94.908 25.1373C94.9992 25.2155 95.0838 25.3261 95.162 25.4693C95.2466 25.6061 95.2955 25.7135 95.3085 25.7916C94.5013 26.8203 93.6615 27.3347 92.7891 27.3348C91.9232 27.3348 91.3177 26.9085 90.9726 26.0556C90.3736 26.4723 89.7617 26.7881 89.1367 27.003C88.5182 27.2244 87.9844 27.3352 87.5352 27.3352C87.0925 27.3352 86.679 27.2864 86.2949 27.1888C85.9173 27.0912 85.5657 26.935 85.2402 26.7201C84.537 26.2645 84.1854 25.5126 84.1853 24.4644C84.1853 23.9045 84.3382 23.4162 84.6442 22.9995C84.9567 22.5763 85.3798 22.2442 85.9136 22.0033C86.9357 21.541 88.1564 21.2902 89.5757 21.251L90.7085 21.2119C90.754 20.6845 90.7768 20.2679 90.7768 19.9619C90.7767 19.2718 90.6432 18.751 90.3762 18.3994C90.1158 18.0479 89.6275 17.8721 88.9114 17.8722C88.4817 17.8722 88.1464 18.022 87.9055 18.3215C87.6712 18.621 87.554 19.0637 87.5541 19.6496C87.5541 19.7278 87.4434 19.8222 87.2221 19.9329C86.851 20.1087 86.4799 20.1966 86.1088 20.1966C85.7442 20.1967 85.4512 20.0925 85.2299 19.8842C85.015 19.6759 84.9076 19.3829 84.9075 19.0053C84.9075 18.6277 85.0442 18.2729 85.3176 17.9408C85.591 17.6088 85.9556 17.3516 86.4113 17.1693C87.3162 16.8111 88.3481 16.632 89.507 16.6319C90.7179 16.6318 91.6033 16.8238 92.1633 17.2079C92.6711 17.5464 93.0325 18.0314 93.2474 18.6629C93.5013 19.3985 93.6284 20.336 93.6284 21.4753ZM90.7088 25.0303C90.6241 24.555 90.5818 24.1448 90.5818 23.7998C90.5817 23.4482 90.5915 22.96 90.6109 22.335L89.2535 22.3937C88.5569 22.3937 88.0198 22.563 87.6422 22.9016C87.2647 23.2402 87.0759 23.6634 87.0759 24.1712C87.076 24.679 87.1867 25.0436 87.408 25.2649C87.6294 25.4862 88.0754 25.5969 88.746 25.5968C89.423 25.5968 90.0773 25.4079 90.7088 25.0303ZM97.5837 23.8871C97.7335 23.8611 97.9483 23.848 98.2282 23.848C98.5147 23.848 98.8923 23.9619 99.3611 24.1897C99.3546 24.2418 99.3513 24.3395 99.3513 24.4827C99.3514 24.6259 99.3839 24.8017 99.449 25.01C99.5207 25.2183 99.6281 25.4104 99.7714 25.5862C100.084 25.9768 100.598 26.172 101.314 26.172C102.031 26.1719 102.499 25.931 102.721 25.4492C102.909 25.0065 102.877 24.5475 102.623 24.0723C102.434 23.7207 101.929 23.3855 101.109 23.0665C100.972 23.0145 100.784 22.9429 100.543 22.8517C98.3811 22.0772 97.2873 20.9575 97.2611 19.4926C97.261 18.8286 97.4465 18.2686 97.8176 17.8129C98.5207 16.96 99.7088 16.5334 101.382 16.5333C102.482 16.5332 103.41 16.761 104.165 17.2167C104.927 17.6723 105.308 18.2322 105.308 18.8963C105.308 19.6385 104.947 20.0096 104.224 20.0096C103.71 20.0097 103.348 19.9544 103.14 19.8437C102.932 19.7265 102.828 19.6614 102.828 19.6484C102.828 19.6094 102.828 19.5735 102.828 19.541C102.827 18.3235 102.235 17.7149 101.05 17.715C100.64 17.715 100.314 17.8224 100.073 18.0373C99.8391 18.2457 99.722 18.5549 99.722 18.9651C99.722 19.3687 99.8653 19.704 100.152 19.9709C100.445 20.2378 101.005 20.5372 101.832 20.8692C102.665 21.2012 103.199 21.4257 103.433 21.5429C104.898 22.2524 105.631 23.1703 105.631 24.2966C105.631 25.2732 105.217 26.0252 104.391 26.5526C103.57 27.0735 102.477 27.334 101.109 27.3341C100.204 27.3342 99.5208 27.2561 99.0586 27.0999C98.5963 26.9437 98.2448 26.8005 98.0039 26.6703C97.7695 26.5401 97.5742 26.4034 97.4179 26.2602C97.2681 26.117 97.1412 25.9672 97.037 25.811C96.757 25.4009 96.6756 24.9842 96.7928 24.561C96.8904 24.2029 97.154 23.9783 97.5837 23.8871ZM113.111 25.0284C113.346 25.2433 113.479 25.4646 113.512 25.6925C112.652 26.7863 111.66 27.3333 110.533 27.3333C109.798 27.3334 109.277 27.0405 108.971 26.4546C108.71 25.9403 108.551 25.0581 108.492 23.8081C108.44 21.855 108.413 20.0353 108.413 18.3491C107.749 18.3232 107.342 18.2906 107.193 18.2516C107.16 18.1995 107.144 18.0074 107.144 17.6754C107.144 17.3434 107.16 17.1611 107.193 17.1285L108.433 17.0112C108.433 16.8745 108.452 16.2202 108.491 15.0484C108.817 14.7163 109.292 14.4623 109.917 14.2865C110.548 14.1042 111.108 14.013 111.597 14.0129C111.506 14.8398 111.431 15.8391 111.372 17.011C111.587 17.0175 112.235 17.0565 113.316 17.128C113.348 17.2387 113.364 17.4503 113.364 17.7628C113.364 18.0753 113.348 18.2641 113.316 18.3292C112.717 18.4074 112.049 18.4563 111.314 18.4759C111.288 19.2506 111.275 20.2304 111.275 21.4153C111.275 22.5937 111.301 23.707 111.353 24.7552C111.373 25.1588 111.575 25.3606 111.959 25.3606C112.349 25.3605 112.734 25.2498 113.111 25.0284ZM126.451 21.6778C126.451 22.5306 126.298 23.3314 125.992 24.0801C125.686 24.8289 125.253 25.4409 124.693 25.9162C123.567 26.8733 122.079 27.3519 120.23 27.3521C119.306 27.3522 118.453 27.1341 117.672 26.698C116.891 26.2619 116.269 25.6532 115.806 24.872C115.344 24.0843 115.113 23.1468 115.113 22.0595C115.113 20.9658 115.393 19.9827 115.952 19.1103C117.053 17.3914 118.898 16.5319 121.489 16.5317C122.791 16.5316 123.934 16.9774 124.917 17.8693C125.939 18.8002 126.451 20.0697 126.451 21.6778ZM117.994 21.9616C117.994 23.0749 118.316 24.0482 118.961 24.8815C119.605 25.7148 120.361 26.1314 121.226 26.1313C122.828 26.1312 123.629 24.8258 123.629 22.2151C123.628 20.9195 123.332 19.8681 122.74 19.0609C122.147 18.2536 121.392 17.85 120.474 17.8501C120.012 17.8502 119.611 17.9674 119.273 18.2018C118.934 18.4362 118.677 18.752 118.501 19.1491C118.163 19.9109 117.994 20.8484 117.994 21.9616Z" fill="#FD650B"/>
</svg>
