<svg width="24" height="25" viewBox="0 0 24 25" fill="none" xmlns="http://www.w3.org/2000/svg">
<path d="M15 10.75C15 11.8546 14.1046 12.75 13 12.75V14.75C15.2091 14.75 17 12.9591 17 10.75H15ZM13 12.75C11.8954 12.75 11 11.8546 11 10.75H9C9 12.9591 10.7909 14.75 13 14.75V12.75ZM11 10.75C11 9.64543 11.8954 8.75 13 8.75V6.75C10.7909 6.75 9 8.54086 9 10.75H11ZM13 8.75C14.1046 8.75 15 9.64543 15 10.75H17C17 8.54086 15.2091 6.75 13 6.75V8.75Z" fill="#6E6E6E"/>
<path d="M13.25 23L12.5332 24.024C12.9636 24.3253 13.5364 24.3253 13.9668 24.024L13.25 23ZM13.25 3.5V2.25V3.5ZM19.5 11C19.5 13.9249 17.8602 16.6371 16.0567 18.711C15.1703 19.7305 14.2806 20.5537 13.6123 21.1218C13.279 21.4051 13.0031 21.623 12.8132 21.7681C12.7183 21.8406 12.6451 21.8948 12.5972 21.9298C12.5733 21.9473 12.5556 21.9599 12.5448 21.9677C12.5394 21.9715 12.5357 21.9742 12.5337 21.9756C12.5327 21.9763 12.5322 21.9766 12.5321 21.9767C12.5321 21.9767 12.5321 21.9767 12.5323 21.9766C12.5324 21.9765 12.5326 21.9764 12.5326 21.9763C12.5329 21.9762 12.5332 21.976 13.25 23C13.9668 24.024 13.9672 24.0238 13.9675 24.0236C13.9677 24.0234 13.9681 24.0232 13.9684 24.023C13.969 24.0225 13.9698 24.022 13.9706 24.0214C13.9724 24.0202 13.9745 24.0186 13.9771 24.0168C13.9824 24.0131 13.9894 24.0081 13.9982 24.0018C14.0158 23.9892 14.0403 23.9716 14.0712 23.949C14.1332 23.9038 14.2211 23.8386 14.3313 23.7544C14.5516 23.586 14.8616 23.341 15.2314 23.0266C15.9694 22.3994 16.9547 21.4883 17.9433 20.3515C19.8898 18.1129 22 14.8251 22 11H19.5ZM13.25 23C13.9668 21.976 13.9671 21.9762 13.9674 21.9763C13.9674 21.9764 13.9676 21.9765 13.9677 21.9766C13.9679 21.9767 13.9679 21.9767 13.9679 21.9767C13.9678 21.9766 13.9673 21.9763 13.9663 21.9756C13.9643 21.9742 13.9606 21.9715 13.9552 21.9677C13.9444 21.9599 13.9267 21.9473 13.9028 21.9298C13.8549 21.8948 13.7817 21.8406 13.6868 21.7681C13.4969 21.623 13.221 21.4051 12.8877 21.1218C12.2194 20.5537 11.3297 19.7305 10.4433 18.711C8.63981 16.6371 7 13.9249 7 11H4.5C4.5 14.8251 6.61019 18.1129 8.55674 20.3515C9.54529 21.4883 10.5306 22.3994 11.2686 23.0266C11.6384 23.341 11.9484 23.586 12.1687 23.7544C12.2789 23.8386 12.3668 23.9038 12.4288 23.949C12.4597 23.9716 12.4842 23.9892 12.5018 24.0018C12.5106 24.0081 12.5176 24.0131 12.5229 24.0168C12.5255 24.0186 12.5276 24.0202 12.5294 24.0214C12.5302 24.022 12.531 24.0225 12.5316 24.023C12.5319 24.0232 12.5323 24.0234 12.5325 24.0236C12.5328 24.0238 12.5332 24.024 13.25 23ZM7 11C7 9.3424 7.65848 7.75269 8.83058 6.58058L7.06282 4.81282C5.42187 6.45376 4.5 8.67936 4.5 11H7ZM8.83058 6.58058C10.0027 5.40848 11.5924 4.75 13.25 4.75V2.25C10.9294 2.25 8.70376 3.17187 7.06282 4.81282L8.83058 6.58058ZM13.25 4.75C14.9076 4.75 16.4973 5.40848 17.6694 6.58058L19.4372 4.81282C17.7962 3.17187 15.5706 2.25 13.25 2.25V4.75ZM17.6694 6.58058C18.8415 7.75269 19.5 9.3424 19.5 11H22C22 8.67936 21.0781 6.45376 19.4372 4.81282L17.6694 6.58058Z" fill="#6E6E6E"/>
</svg>
