<svg width="465" height="480" viewBox="0 0 465 480" fill="none" xmlns="http://www.w3.org/2000/svg">
<path fill-rule="evenodd" clip-rule="evenodd" d="M348.659 167.321L344.687 174.142L370.846 173.727L367.312 166.675" fill="white"/>
<path fill-rule="evenodd" clip-rule="evenodd" d="M354.074 4.01573C345.405 22.2172 339.856 44.2651 337.44 70.1486C334.943 96.8517 335.627 129.228 339.491 167.278L374.733 166.435C378.218 127.853 378.664 95.45 376.068 69.2313C373.557 43.7974 367.964 22.025 359.305 3.89785C358.812 2.86924 357.799 2.23732 356.697 2.26084C355.588 2.28861 354.574 2.96759 354.074 4.01573Z" fill="#FD650B"/>
<path fill-rule="evenodd" clip-rule="evenodd" d="M343.115 35.7163L369.544 34.4835C363.784 12.5781 359.437 1.72104 356.5 1.91881C353.563 2.11603 349.101 13.382 343.115 35.7163Z" fill="#883402"/>
<path fill-rule="evenodd" clip-rule="evenodd" d="M366.781 174.094L368.268 193.05L361.647 184.383L356.618 192.842L353.623 184.156L346.01 192.084L348.221 174.387L343.45 174.462L347.939 166.755L348.872 167.346L345.416 173.28L369.686 172.892L366.571 166.681L367.547 166.127L371.5 174.019L366.781 174.094Z" fill="#1A1A1A"/>
<path d="M336.71 69.9285C334.211 96.673 334.898 129.086 338.765 167.172C338.794 167.467 339.031 167.685 339.314 167.677L374.552 166.84C374.836 166.832 375.068 166.603 375.099 166.305C378.588 127.684 379.033 95.2463 376.437 68.9829C373.912 43.4904 368.305 21.6483 359.615 3.45621C359.026 2.23669 357.824 1.48119 356.51 1.51232C355.196 1.54353 353.996 2.3458 353.407 3.5854C344.696 21.8649 339.135 43.9765 336.71 69.9285ZM339.807 166.51C335.991 128.722 335.327 96.5537 337.806 70.0188C340.214 44.204 345.744 22.2253 354.383 4.0909C354.793 3.23467 355.617 2.68405 356.515 2.66497C357.411 2.64318 358.23 3.1581 358.63 3.98974C367.259 22.0512 372.833 43.7596 375.342 69.1248C377.922 95.1832 377.488 127.379 374.048 165.7L339.807 166.51Z" fill="#1A1A1A"/>
<path fill-rule="evenodd" clip-rule="evenodd" d="M339.396 110.426L341.112 117.163L339.602 166.836L322.396 186.98L319.391 187.05L339.396 110.426ZM374.993 109.418L394.292 185.466L391.282 185.488L374.263 165.84L373.216 116.205L374.993 109.418Z" fill="white"/>
<path d="M338.79 110.744C338.939 110.174 339.708 110.162 339.855 110.725L341.571 117.461L341.586 117.631L340.081 167.299C340.077 167.437 340.025 167.57 339.936 167.675L322.729 187.818C322.625 187.94 322.476 188.014 322.323 188.017L319.318 188.088C318.953 188.098 318.688 187.74 318.785 187.369L338.79 110.744ZM320.037 186.919L322.08 186.866L338.985 167.076L340.485 117.701L339.312 113.094L320.037 186.919ZM340.488 117.615L340.508 117.78L340.485 117.701L340.488 117.615ZM374.387 109.737C374.536 109.166 375.305 109.154 375.446 109.723L394.746 185.771C394.841 186.136 394.573 186.503 394.21 186.504L391.205 186.52C391.05 186.522 390.904 186.455 390.802 186.336L373.778 166.694C373.691 166.592 373.641 166.461 373.637 166.325L372.59 116.69L372.61 116.523L374.387 109.737ZM373.689 116.729L374.734 166.063L391.459 185.367L393.499 185.355L374.907 112.085L373.689 116.729Z" fill="#1A1A1A"/>
<path d="M364.877 75.3024C369.224 70.7748 369.32 63.4659 365.088 58.9831C360.856 54.5004 353.897 54.5407 349.55 59.0684C345.203 63.596 345.106 70.9049 349.339 75.3876C353.571 79.8704 360.53 79.83 364.877 75.3024Z" fill="white"/>
<path d="M365.182 75.4111C369.749 70.6538 369.847 62.9827 365.403 58.2759C360.959 53.5686 353.656 53.6081 349.088 58.3654C344.521 63.1227 344.422 70.7933 348.866 75.5006C353.31 80.2074 360.614 80.1684 365.182 75.4111ZM364.415 74.5994C360.284 78.9029 353.675 78.9391 349.654 74.6804C345.633 70.4217 345.723 63.4805 349.855 59.1771C353.986 54.8736 360.595 54.8374 364.616 59.0961C368.637 63.3549 368.547 70.296 364.415 74.5994Z" fill="#1A1A1A"/>
<path d="M361.172 71.3803C358.925 73.7207 355.331 73.7405 353.144 71.4244C350.957 69.1083 351.006 65.3331 353.253 62.9927C355.5 60.6523 359.095 60.6327 361.281 62.9487C363.468 65.2648 363.419 69.0399 361.172 71.3803ZM360.406 70.5686C362.217 68.6821 362.258 65.6369 360.494 63.7689C358.73 61.901 355.831 61.918 354.02 63.8045C352.208 65.691 352.168 68.7362 353.932 70.6042C355.695 72.4721 358.595 72.4551 360.406 70.5686ZM342.875 36.0204L342.851 34.8695L369.656 33.7815L369.681 34.9324L342.875 36.0204Z" fill="#1A1A1A"/>
<path fill-rule="evenodd" clip-rule="evenodd" d="M271.643 217.146C271.77 215.235 272.318 197.4 273.287 163.64C273.529 155.19 267.957 147.779 260.075 146.069C259.547 145.954 259.282 145.897 259.282 145.897C249.769 145.198 241.301 152.191 239.704 162.066L231.547 212.478" fill="white"/>
<path d="M259.372 146.285L260.139 146.451C267.836 148.121 273.278 155.358 273.041 163.61C272.073 197.347 271.524 215.198 271.397 217.101C271.382 217.325 271.544 217.52 271.758 217.536C271.972 217.552 272.158 217.382 272.173 217.157C272.301 215.237 272.848 197.418 273.818 163.635C274.066 154.987 268.363 147.402 260.296 145.652L259.503 145.48L259.451 145.473C249.739 144.759 241.094 151.898 239.463 161.981L231.306 212.392C231.27 212.614 231.413 212.825 231.624 212.862C231.836 212.9 232.036 212.751 232.072 212.529L240.229 162.117C241.792 152.458 250.068 145.615 259.372 146.285Z" fill="#1A1A1A"/>
<path fill-rule="evenodd" clip-rule="evenodd" d="M277.966 212.709L282.133 178.679C282.535 175.403 280.331 172.406 277.212 171.984C276.971 171.951 276.728 171.935 276.486 171.935C272.624 171.935 269.2 174.543 268.002 178.398L257.324 212.732L277.966 212.709Z" fill="white"/>
<path d="M278.304 212.868C278.5 212.868 278.664 212.715 278.689 212.512L282.857 178.481C283.285 174.982 280.932 171.78 277.599 171.33C277.342 171.295 277.083 171.278 276.824 171.278C272.794 171.278 269.222 173.999 267.97 178.022L257.293 212.356C257.21 212.62 257.398 212.89 257.662 212.89L278.304 212.868ZM277.962 212.052L258.197 212.074L268.709 178.275C269.856 174.588 273.13 172.094 276.824 172.094C277.05 172.094 277.276 172.108 277.501 172.139C280.407 172.532 282.46 175.325 282.086 178.378L277.962 212.052Z" fill="#1A1A1A"/>
<path fill-rule="evenodd" clip-rule="evenodd" d="M175.238 296.229L214.79 282.687C219.273 281.153 222.543 277.086 223.234 272.187L231.687 212.188H277.52L269.411 288.422C267.983 301.85 261.096 313.974 250.524 321.672L205.534 354.433L175.238 296.229Z" fill="#FD650B"/>
<path fill-rule="evenodd" clip-rule="evenodd" d="M270.274 281.542C261.124 286.801 254.478 292.784 250.335 299.493C246.192 306.202 242.653 316.265 239.718 329.683C242.252 327.741 244.41 326.109 246.192 324.787C253.487 319.372 259.094 314.446 262.505 308.74C267.166 300.944 269.756 291.878 270.274 281.542Z" fill="#883402"/>
<path d="M220.489 278.057C220.492 278.052 220.496 278.047 220.499 278.041C220.509 278.027 220.52 278.013 220.531 278C221.779 276.313 222.624 274.29 222.933 272.094L231.38 212.151C231.408 211.951 231.571 211.803 231.764 211.803H277.596C277.829 211.803 278.008 212.014 277.983 212.256L274.461 245.365C274.521 245.444 274.554 245.546 274.544 245.656C274.534 245.771 274.479 245.871 274.4 245.938L269.878 288.443C268.434 302.016 261.463 314.266 250.765 322.028L206.017 354.496C205.873 354.6 205.681 354.592 205.548 354.474C199.389 349.079 194.264 342.237 190.174 333.95C186.093 325.685 181.512 312.881 176.423 295.534C176.361 295.32 176.474 295.093 176.677 295.025L214.682 282.291C217.023 281.506 219.028 280.01 220.489 278.057ZM189.44 291.605L177.279 295.68C182.309 312.788 186.839 325.422 190.864 333.575C194.857 341.666 199.843 348.356 205.819 353.648L217.222 345.374L189.44 291.605ZM190.193 291.352L217.866 344.907L250.323 321.357C260.836 313.729 267.687 301.691 269.107 288.353L273.614 245.977L228.031 241.674C228.022 241.673 228.013 241.672 228.005 241.67L223.702 272.213C223.391 274.419 222.573 276.46 221.366 278.192L248.489 298.618C248.664 298.749 248.704 299.004 248.578 299.187C248.453 299.37 248.211 299.412 248.036 299.281L220.888 278.836C219.353 280.781 217.299 282.27 214.918 283.068L190.193 291.352ZM228.119 240.863L273.7 245.166L277.162 212.619H232.099L228.119 240.863Z" fill="#1A1A1A"/>
<path fill-rule="evenodd" clip-rule="evenodd" d="M104.033 304.66C104.033 304.66 91.9492 311.278 67.7811 324.515L78.0653 344.346L109.212 322.316C105.759 310.545 104.033 304.66 104.033 304.66Z" fill="#883402"/>
<path fill-rule="evenodd" clip-rule="evenodd" d="M344.329 394.686L336.819 330.499L340.704 328.595L356.758 303.573L359.606 302.757C360.637 302.499 361.414 302.499 361.937 302.757C362.46 303.016 363.151 303.741 364.008 304.933V381.087C363.438 382.527 362.92 383.524 362.455 384.079C361.989 384.633 361.212 385.177 360.124 385.71L344.329 394.686ZM275.191 451.257L324.39 432.219L326.721 439.29L358.83 447.994L360.124 450.441C359.832 452.24 359.487 453.509 359.088 454.249C358.69 454.989 357.913 455.805 356.758 456.697L289.692 473.288C288.304 473.434 287.182 473.252 286.326 472.744C285.469 472.234 284.606 471.238 283.736 469.752L275.191 451.257Z" fill="white"/>
<path d="M103.668 304.321L67.416 324.175C67.2233 324.28 67.1503 324.532 67.2544 324.732L77.5386 344.564C77.6483 344.775 77.9067 344.842 78.0968 344.707L109.243 322.677C109.385 322.576 109.448 322.39 109.397 322.218L104.218 304.563C104.147 304.319 103.883 304.203 103.668 304.321ZM108.57 322.169L78.0165 343.78L68.1255 324.706L103.614 305.271L108.57 322.169Z" fill="#1A1A1A"/>
<path fill-rule="evenodd" clip-rule="evenodd" d="M215.116 372.111V372.95L179.641 300.853L129.406 323.155C130.342 355.355 134.634 376.75 142.28 387.342C149.926 397.934 163.502 401.288 183.007 397.405H211.232L215.116 372.111Z" fill="#FD650B"/>
<path d="M215.577 372.111V372.95C215.577 373.107 215.503 373.225 215.401 373.293L211.688 397.47C211.657 397.668 211.495 397.813 211.304 397.813H183.116C163.5 401.712 149.788 398.318 142.043 387.589C134.334 376.91 130.029 355.446 129.09 323.168C129.085 322.999 129.179 322.845 129.328 322.78L179.562 300.477C179.749 300.395 179.965 300.477 180.059 300.666L215.028 371.736C215.258 371.635 215.577 371.772 215.577 372.111ZM215.477 372.794L215.494 372.683L215.435 372.563C215.471 372.634 215.485 372.715 215.477 372.794ZM179.533 301.376L129.875 323.422C130.826 355.387 135.1 376.621 142.662 387.096C150.204 397.544 163.632 400.862 183.007 397.005L183.079 396.997H210.974L214.686 372.819L179.533 301.376Z" fill="#1A1A1A"/>
<path fill-rule="evenodd" clip-rule="evenodd" d="M205.796 354.433L208.385 359.6C200.428 366.193 194.127 370.816 189.482 373.471C184.837 376.126 179.745 378.573 174.205 380.814L171.097 375.103C176.147 372.813 180.981 370.274 185.598 367.488C190.215 364.701 196.948 360.349 205.796 354.433Z" fill="#883402"/>
<path fill-rule="evenodd" clip-rule="evenodd" d="M221.071 465.128L343.81 395.229L337.078 330.771L215.375 393.598" fill="#883402"/>
<path d="M205.576 353.822C196.472 360.268 189.402 364.977 184.369 367.947C179.346 370.913 174.622 373.169 170.195 374.715C169.992 374.787 169.882 375.018 169.949 375.232C170.017 375.445 170.237 375.561 170.441 375.49C174.916 373.926 179.686 371.649 184.75 368.659C189.804 365.675 196.89 360.955 206.01 354.499C206.188 354.372 206.235 354.119 206.115 353.932C205.995 353.745 205.754 353.696 205.576 353.822Z" fill="#1A1A1A"/>
<path d="M208.339 359.275C199.887 366.008 192.504 371.164 186.194 374.744C179.91 378.309 175.626 380.199 173.396 380.408C173.183 380.428 173.025 380.626 173.044 380.851C173.063 381.075 173.252 381.241 173.466 381.221C175.838 380.998 180.185 379.08 186.563 375.462C192.912 371.86 200.327 366.681 208.809 359.926C208.98 359.789 209.013 359.533 208.884 359.354C208.754 359.174 208.51 359.139 208.339 359.275Z" fill="#1A1A1A"/>
<path d="M343.525 394.861C343.512 394.826 343.502 394.789 343.499 394.751L336.768 331.129L215.361 393.964C215.168 394.064 214.936 393.98 214.841 393.778C214.746 393.576 214.825 393.332 215.017 393.232L339.995 328.549L355.983 303.792C356.546 302.921 357.487 302.406 358.49 302.42C358.846 302.425 359.185 302.496 359.5 302.621C359.521 302.584 359.556 302.538 359.607 302.485C359.779 302.304 359.981 302.189 360.212 302.141C360.446 302.092 360.683 302.067 360.92 302.066C362.932 302.063 364.564 303.773 364.567 305.885L364.676 378.941C364.68 382.082 363.19 385.174 360.328 385.933L360.327 385.989C360.325 386.136 360.248 386.271 360.124 386.341L221.071 465.487C220.882 465.594 220.646 465.52 220.544 465.322C220.442 465.124 220.512 464.877 220.701 464.769L343.525 394.861ZM344.248 394.449L359.554 385.738L360.648 305.582C360.665 304.305 359.694 303.255 358.479 303.237C357.738 303.226 357.041 303.606 356.625 304.25L340.581 329.096C340.543 329.154 340.492 329.202 340.431 329.233L337.436 330.784C337.491 330.846 337.528 330.927 337.538 331.017L344.248 394.449ZM360.299 303.098C360.997 303.681 361.439 304.584 361.425 305.593L360.34 385.083C362.723 384.324 363.903 381.633 363.899 378.942L363.79 305.886C363.788 304.225 362.503 302.88 360.922 302.882C360.734 302.883 360.548 302.903 360.364 302.941C360.341 303.001 360.32 303.053 360.299 303.098Z" fill="#1A1A1A"/>
<path fill-rule="evenodd" clip-rule="evenodd" d="M123.195 385.186L127.153 407.76L156.669 462.48C164.436 476.879 180.99 483.246 195.773 477.523L206.118 473.516C216.071 469.662 224.657 462.69 230.715 453.545L257.453 413.18L275.195 451.256L324.395 432.218L289.807 346.301C286.017 336.888 277.232 330.77 267.5 330.77C257.219 330.77 247.355 335.049 240.07 342.669L193.702 391.169" fill="#FD650B"/>
<path fill-rule="evenodd" clip-rule="evenodd" d="M238.164 344.642C246.45 351.35 255.081 356.155 264.058 359.056C273.034 361.957 282.961 361.323 293.836 357.153C291.409 348.705 288.733 342.812 285.809 339.474C282.326 335.497 275.831 331.956 272.085 331.043C267.171 329.844 258.095 331.231 250.852 334.85C247.368 336.592 243.138 339.855 238.164 344.642Z" fill="#883402"/>
<path d="M360.003 449.564L360.143 449.527L360.148 449.552C360.955 453.066 358.897 456.602 355.551 457.449L290.864 473.828C287.945 474.567 284.928 473.156 283.491 470.407C283.369 470.386 283.259 470.304 283.203 470.181L257.389 413.966L231.032 453.758C224.928 462.973 216.277 469.996 206.25 473.879L195.905 477.886C180.943 483.679 164.189 477.234 156.329 462.662L126.812 407.941C126.791 407.902 126.776 407.859 126.768 407.814L122.811 385.24C122.772 385.018 122.911 384.805 123.122 384.764C123.334 384.724 123.536 384.871 123.575 385.092L127.52 407.599L157.005 462.26C164.677 476.484 181.032 482.775 195.636 477.12L205.981 473.114C215.86 469.288 224.381 462.369 230.394 453.292L257.131 412.927C257.301 412.67 257.671 412.701 257.8 412.983L275.178 450.828L323.823 432.003L294.631 359.364C277.356 368.209 258.047 363.967 236.752 346.693L193.973 391.438C193.821 391.598 193.575 391.597 193.424 391.437C193.272 391.278 193.273 391.019 193.425 390.861L239.794 342.36C247.152 334.664 257.113 330.343 267.498 330.343C277.384 330.343 286.309 336.561 290.153 346.127L324.619 431.887C324.68 431.933 324.729 431.997 324.757 432.078C324.78 432.144 324.786 432.213 324.777 432.279L327.338 438.652L357.759 446.719C358.846 447.007 359.687 447.913 359.935 449.062C359.971 449.229 359.993 449.397 360.003 449.564ZM359.537 451.441C359.129 452.109 358.482 452.613 357.687 452.802L284.299 470.244C285.612 472.519 288.188 473.667 290.683 473.035L355.369 456.655C357.755 456.052 359.392 453.886 359.537 451.441ZM275.517 451.566L283.768 469.534L357.516 452.006C358.701 451.725 359.445 450.487 359.177 449.242C358.994 448.392 358.373 447.723 357.568 447.51L326.96 439.394C326.842 439.362 326.745 439.274 326.697 439.157L324.126 432.756L275.517 451.566ZM294.328 358.612L289.438 346.444C285.715 337.18 277.072 331.159 267.498 331.159C257.319 331.159 247.555 335.394 240.341 342.939L237.307 346.113C258.372 363.17 277.362 367.318 294.328 358.612Z" fill="#1A1A1A"/>
<path fill-rule="evenodd" clip-rule="evenodd" d="M148.568 295.413L51.7139 360.379C29.6829 375.157 21.5909 404.862 32.8446 429.643L39.79 444.937C52.1044 472.052 83.0146 483.549 108.83 470.615C110.209 469.924 111.558 469.169 112.873 468.353L157.181 440.864C165.433 435.744 172.17 428.321 176.643 419.418L177.181 418.347C181.817 409.122 181.962 398.121 177.571 388.765L166.694 365.583C150.548 378.227 141.831 386.93 140.54 391.694C139.391 395.941 126.226 404.691 101.046 417.943C95.5853 420.817 88.9382 418.804 85.7739 413.316C83.2321 408.907 84.574 403.17 88.7704 400.501C89.2505 400.195 89.7564 399.938 90.2821 399.734L137.433 381.358" fill="#FD650B"/>
<path fill-rule="evenodd" clip-rule="evenodd" d="M31.5281 427.051C32.8228 430.859 38.4444 442.779 40.5911 446.633C42.8491 450.689 45.2521 454.521 48.3594 458.328C51.4367 462.099 55.5766 465.827 61.8244 469.207C63.9146 470.338 66.1591 471.517 68.5569 472.743C66.9442 458.449 65.1316 448.476 63.1191 442.826C61.4878 438.244 59.8285 433.653 57.4224 430.043C51.3802 420.977 41.6145 411.813 28.1256 402.551C26.9412 408.73 28.0754 416.897 31.5281 427.051Z" fill="#883402"/>
<path fill-rule="evenodd" clip-rule="evenodd" d="M142.354 386.526L142.871 393.597C149.103 405.986 152.933 413.465 154.364 416.034C155.87 418.737 158.857 425.401 163.328 436.026C168.337 431.469 172.308 426.754 175.239 421.883C178.171 417.012 179.983 412.116 180.677 407.196C181.367 400.669 179.641 393.325 175.498 385.166C173.432 381.096 170.41 374.297 166.435 364.768C155.167 371.035 147.312 376.203 142.871 380.27C138.431 384.339 138.258 386.424 142.354 386.526Z" fill="white"/>
<path d="M177.04 388.695C181.375 397.936 181.232 408.798 176.654 417.908L176.116 418.979C171.676 427.815 164.99 435.183 156.8 440.264L112.334 467.852C111.076 468.631 109.788 469.355 108.472 470.02C82.8895 482.944 52.1761 471.638 39.8711 444.768L33.1831 430.163C22.0003 405.744 29.7842 376.402 51.377 361.574L147.229 295.755C147.408 295.631 147.459 295.378 147.342 295.19C147.224 295.001 146.984 294.949 146.804 295.072L50.9518 360.891C29.0327 375.943 21.1313 405.729 32.4829 430.517L39.1714 445.122C51.6618 472.398 82.8398 483.874 108.809 470.754C110.144 470.08 111.453 469.346 112.729 468.554L157.195 440.966C165.509 435.809 172.296 428.329 176.804 419.36L177.342 418.288C182.035 408.948 182.182 397.809 177.736 388.335L166.859 365.154C166.767 364.957 166.542 364.872 166.352 364.962C153.473 371.027 145.571 375.566 142.601 378.619C141.244 380.015 140.491 381.779 140.183 383.919C139.991 385.253 139.977 386.405 140.055 388.466C140.124 390.277 140.119 390.832 139.984 391.332C138.881 395.405 125.7 404.165 100.689 417.329C95.4089 420.108 88.9825 418.161 85.9228 412.855C83.5301 408.705 84.7932 403.304 88.7442 400.789C89.231 400.48 89.7464 400.224 90.2823 400.024L139.378 381.743C139.58 381.668 139.685 381.434 139.615 381.222C139.543 381.01 139.321 380.899 139.118 380.974L90.0229 399.255C89.4366 399.473 88.8737 399.754 88.3418 400.091C84.0236 402.839 82.643 408.742 85.2583 413.277C88.5278 418.947 95.3949 421.028 101.037 418.059C126.384 404.717 139.533 395.978 140.731 391.555C140.9 390.932 140.906 390.365 140.832 388.433C140.755 386.422 140.769 385.308 140.951 384.041C141.236 382.065 141.919 380.462 143.146 379.202C145.999 376.269 153.74 371.81 166.328 365.867L177.04 388.695Z" fill="#1A1A1A"/>
<path fill-rule="evenodd" clip-rule="evenodd" d="M179.718 300.798C170.67 279.684 165.232 265.658 163.405 258.718C157.481 236.224 153.348 216.604 131.222 216.604C109.097 216.604 91.16 235.444 91.16 258.684C91.16 265.303 96.5978 286.53 107.473 322.361C123.513 322.294 136.49 321.455 146.403 319.845C156.317 318.234 167.422 311.885 179.718 300.798Z" fill="#FD650B" stroke="#1A1A1A" stroke-width="0.877811" stroke-linecap="round" stroke-linejoin="round"/>
<path fill-rule="evenodd" clip-rule="evenodd" d="M179.644 300.734C170.596 279.621 165.159 265.594 163.331 258.654C157.407 236.161 153.274 216.54 131.148 216.54C109.022 216.54 91.0859 235.38 91.0859 258.62C91.0859 265.239 96.5237 286.465 107.399 322.297C123.439 322.23 136.416 321.391 146.329 319.78C156.243 318.17 167.348 311.822 179.644 300.734Z" fill="#FD650B"/>
<path d="M180.032 301.142L180.285 301.452C180.416 301.334 180.458 301.14 180.387 300.975L180.032 301.142ZM163.719 259.062L163.345 259.171L163.719 259.062ZM107.788 322.705L107.418 322.829C107.469 322.999 107.62 323.114 107.789 323.113L107.788 322.705ZM146.718 320.188L146.658 319.785L146.718 320.188ZM180.387 300.975C171.336 279.855 165.912 265.858 164.094 258.954L163.345 259.171C165.182 266.147 170.633 280.202 179.679 301.31L180.387 300.975ZM164.094 258.954C161.139 247.735 158.61 237.135 154.034 229.356C151.739 225.455 148.921 222.245 145.261 220.012C141.601 217.78 137.124 216.54 131.536 216.54V217.356C137.011 217.356 141.348 218.569 144.871 220.718C148.395 222.868 151.128 225.969 153.373 229.784C157.876 237.439 160.376 247.895 163.345 259.171L164.094 258.954ZM131.536 216.54C109.196 216.54 91.0859 235.563 91.0859 259.028H91.8627C91.8627 236.013 109.625 217.356 131.536 217.356V216.54ZM91.0859 259.028C91.0859 260.727 91.433 263.329 92.1134 266.813C92.7953 270.305 93.817 274.707 95.1776 280.018C97.8987 290.639 101.979 304.911 107.418 322.829L108.158 322.581C102.721 304.668 98.6444 290.41 95.9277 279.806C94.5693 274.504 93.5519 270.119 92.8744 266.649C92.1953 263.172 91.8627 260.639 91.8627 259.028H91.0859ZM107.789 323.113C123.839 323.045 136.837 322.207 146.777 320.591L146.658 319.785C136.772 321.392 123.817 322.23 107.786 322.297L107.789 323.113ZM146.777 320.591C156.794 318.965 167.965 312.561 180.285 301.452L179.78 300.833C167.508 311.899 156.469 318.191 146.658 319.785L146.777 320.591Z" fill="#1A1A1A"/>
<path d="M179.997 300.566C170.957 279.472 165.523 265.457 163.703 258.545C163.465 257.64 162.409 253.6 162.125 252.523C158.639 239.313 156.227 232.567 152.345 226.899C147.441 219.742 140.734 216.131 131.146 216.131C108.806 216.131 90.6952 235.154 90.6952 258.619C90.6952 265.302 96.1335 286.53 107.027 322.42C107.078 322.59 107.229 322.704 107.399 322.704C123.456 322.637 136.451 321.796 146.387 320.183C156.383 318.56 167.549 312.176 179.895 301.043C180.026 300.925 180.067 300.731 179.997 300.566ZM146.268 319.377C136.434 320.974 123.571 321.811 107.68 321.887C96.8803 286.287 91.472 265.158 91.472 258.619C91.472 235.604 109.234 216.947 131.146 216.947C140.485 216.947 146.957 220.432 151.714 227.376C155.525 232.939 157.915 239.623 161.376 252.741C161.66 253.817 162.715 257.856 162.954 258.762C164.781 265.698 170.183 279.644 179.169 300.622C167.01 311.541 156.04 317.789 146.268 319.377Z" fill="#1A1A1A"/>
<path d="M112.406 277.984C112.406 277.984 134.038 286.905 166.906 274.773C167.471 274.565 168.09 274.192 168.765 273.655C167.066 270.083 166.03 267.636 165.658 266.311C164.143 260.919 164.003 257.495 162.292 254.072C161.186 251.86 160.799 248.086 159.702 244.553C159.111 242.647 157.989 239.655 156.336 235.578C154.694 232.154 153.572 229.887 152.97 228.778C152.048 227.08 152.048 225.422 150.846 225.606C144.35 226.599 137.345 231.024 129.83 238.882C112.368 257.143 112.406 277.984 112.406 277.984Z" fill="#1A1A1A"/>
<path fill-rule="evenodd" clip-rule="evenodd" d="M126.301 242.922C128.113 240.746 129.116 239.383 130.703 237.754C132.289 236.125 134.328 234.218 137.953 231.499C139.852 236.757 141.751 242.469 144.168 250.265C147.793 261.96 142.053 263.804 135.105 255.977C130.473 250.758 127.71 246.588 126.301 242.922ZM146.84 242.245C148.132 242.341 148.835 248.227 149.229 249.238C149.45 249.801 149.193 250.445 148.657 250.675C148.167 250.886 147.604 250.681 147.344 250.196C145.831 247.376 145.08 245.682 145.091 245.117C145.119 243.686 145.548 242.151 146.84 242.245Z" fill="white"/>
<path d="M139.579 380.27C157.026 380.27 171.17 365.414 171.17 347.089C171.17 328.764 157.026 313.908 139.579 313.908C122.132 313.908 107.988 328.764 107.988 347.089C107.988 365.414 122.132 380.27 139.579 380.27Z" fill="#1A1A1A"/>
<path d="M112.77 275.197C110.04 262.468 114.051 250.367 124.839 238.856C135.629 227.343 143.253 221.764 147.578 222.114C147.792 222.131 147.518 222.204 147.534 221.979C147.551 221.755 147.489 221.725 147.275 221.707C147.152 221.697 147.388 221.285 147.26 221.283C142.572 221.23 134.954 226.899 124.285 238.284C113.322 249.982 109.22 262.358 112.013 275.377C112.06 275.597 112.267 275.734 112.477 275.685C112.686 275.635 112.817 275.417 112.77 275.197Z" fill="#1A1A1A"/>
<path fill-rule="evenodd" clip-rule="evenodd" d="M119.125 372.928L130.777 341.63L160.002 332.733C161.1 332.398 162.25 333.063 162.568 334.217C162.76 334.912 162.61 335.661 162.169 336.217L145.537 357.153L144.169 380.271L119.125 372.928Z" fill="white"/>
<path fill-rule="evenodd" clip-rule="evenodd" d="M130.713 341.649C126.738 346.21 124.211 349.209 123.131 350.644C117.462 358.181 117.671 361.03 120.356 362.864C125.535 366.399 130.899 373.49 134.525 366.963C136.941 362.611 135.671 354.173 130.713 341.649Z" fill="#FD650B"/>
<path d="M130.491 341.355C130.683 341.135 131.027 341.198 131.136 341.473C136.138 354.11 137.423 362.649 134.924 367.149C133.498 369.716 131.683 370.488 129.458 369.744C127.851 369.207 126.635 368.334 123.403 365.666C122.629 365.027 122.176 364.659 121.69 364.278C121.153 363.859 120.669 363.501 120.208 363.187C116.953 360.964 117.547 357.476 122.89 350.372C123.978 348.926 126.509 345.924 130.491 341.355ZM134.253 366.738C136.55 362.603 135.371 354.464 130.652 342.379C126.92 346.667 124.534 349.503 123.5 350.878C118.401 357.656 117.894 360.634 120.631 362.502C121.107 362.827 121.604 363.195 122.153 363.624C122.647 364.01 123.104 364.381 123.883 365.025C127.027 367.62 128.215 368.473 129.694 368.967C131.566 369.593 133.008 368.98 134.253 366.738ZM146.44 356.104C146.562 355.919 146.804 355.873 146.98 356.001C147.156 356.13 147.2 356.384 147.078 356.569C145.573 358.845 144.188 360.008 142.875 360.008C142.66 360.008 142.486 359.825 142.486 359.6C142.486 359.375 142.66 359.192 142.875 359.192C143.862 359.192 145.067 358.18 146.44 356.104Z" fill="#1A1A1A"/>
<path d="M111.025 282.902C113.17 282.902 114.909 281.075 114.909 278.822C114.909 276.569 113.17 274.743 111.025 274.743C108.879 274.743 107.14 276.569 107.14 278.822C107.14 281.075 108.879 282.902 111.025 282.902Z" fill="white"/>
<path d="M110.839 283.31C113.198 283.31 115.111 281.301 115.111 278.823C115.111 276.344 113.198 274.335 110.839 274.335C108.479 274.335 106.566 276.344 106.566 278.823C106.566 281.301 108.479 283.31 110.839 283.31ZM110.839 282.494C108.908 282.494 107.343 280.85 107.343 278.823C107.343 276.795 108.908 275.151 110.839 275.151C112.769 275.151 114.335 276.795 114.335 278.823C114.335 280.85 112.769 282.494 110.839 282.494Z" fill="#1A1A1A"/>
<path d="M110.839 281.134C112.186 281.134 113.299 280.112 113.299 278.822C113.299 277.532 112.186 276.51 110.839 276.51C109.491 276.51 108.379 277.532 108.379 278.822C108.379 280.112 109.491 281.134 110.839 281.134ZM110.839 280.318C109.898 280.318 109.156 279.635 109.156 278.822C109.156 278.009 109.898 277.326 110.839 277.326C111.779 277.326 112.522 278.009 112.522 278.822C112.522 279.635 111.779 280.318 110.839 280.318Z" fill="#1A1A1A"/>
<path fill-rule="evenodd" clip-rule="evenodd" d="M144.165 378.366L142.685 393.597L120.675 407.196L103.252 416.715L94.7069 404.748C101.852 404.313 105.908 403.135 106.877 401.212C109.745 395.523 113.801 386.184 119.048 373.199L144.165 378.366Z" fill="white"/>
<path d="M144.242 377.694C144.439 377.735 144.574 377.926 144.554 378.136L143.073 393.367C143.061 393.496 142.99 393.611 142.884 393.677L120.856 407.286L103.434 416.805C103.265 416.898 103.058 416.848 102.944 416.688L94.3985 404.721C94.2126 404.461 94.3773 404.088 94.687 404.069C101.687 403.643 105.66 402.489 106.536 400.75C109.398 395.073 113.45 385.744 118.692 372.768C118.764 372.59 118.944 372.49 119.124 372.527L144.242 377.694ZM119.284 373.391C114.094 386.228 110.074 395.474 107.223 401.132C106.197 403.166 102.294 404.359 95.4519 404.836L103.367 415.922L120.48 406.573L142.32 393.078L143.745 378.424L119.284 373.391ZM142.49 392.974L142.3 393.284L142.32 393.078L142.49 392.974Z" fill="#1A1A1A"/>
<path fill-rule="evenodd" clip-rule="evenodd" d="M49.6531 267.128C47.0787 267.128 44.9921 264.936 44.9921 262.232C44.9921 259.528 47.0787 257.337 49.6531 257.337C52.2275 257.337 54.314 259.528 54.314 262.232C54.314 264.936 52.2275 267.128 49.6531 267.128ZM95.227 279.367L96.4482 284.263C96.1555 284.367 95.8655 284.48 95.5786 284.602C87.3904 288.083 83.4394 297.877 86.7534 306.477L89.1978 312.82L84.5368 315.54L81.7796 306.112C78.8053 295.941 83.4632 285.03 92.6718 280.598L95.227 279.367Z" fill="white"/>
<path d="M60.3931 285.138C60.405 285.054 60.3916 284.969 60.3553 284.894L51.5512 266.671C51.4539 266.47 51.2203 266.39 51.0292 266.492C50.8376 266.594 50.7615 266.839 50.8583 267.041L59.6064 285.147L58.5888 292.362C58.5629 292.546 58.6592 292.726 58.8229 292.798L65.9246 295.92L77.5335 318.58C77.6356 318.778 77.8712 318.852 78.0597 318.745C78.2488 318.638 78.3197 318.391 78.2177 318.193L66.5435 295.406C66.5016 295.324 66.4337 295.259 66.3513 295.223L59.4013 292.168L60.3931 285.138Z" fill="#1A1A1A"/>
<path d="M49.4673 267.535C46.6785 267.535 44.4179 265.161 44.4179 262.232C44.4179 259.303 46.6785 256.928 49.4673 256.928C52.2556 256.928 54.5166 259.303 54.5166 262.232C54.5166 265.161 52.2556 267.535 49.4673 267.535ZM49.4673 266.719C51.8268 266.719 53.7398 264.71 53.7398 262.232C53.7398 259.753 51.8268 257.744 49.4673 257.744C47.1073 257.744 45.1947 259.753 45.1947 262.232C45.1947 264.71 47.1073 266.719 49.4673 266.719ZM94.8791 278.995C95.0987 278.89 95.3556 279.018 95.4167 279.263L96.6384 284.159C96.6896 284.366 96.5804 284.58 96.3872 284.648C96.1013 284.75 95.818 284.86 95.5384 284.979C87.549 288.376 83.6938 297.932 86.9275 306.324L89.3719 312.667C89.4454 312.858 89.3719 313.076 89.2005 313.177L84.5396 315.896C84.3236 316.022 84.0522 315.907 83.9797 315.659L81.2225 306.231C78.1908 295.865 82.9382 284.744 92.3239 280.226L94.8791 278.995ZM92.6475 280.967C83.6161 285.315 79.0479 296.016 81.9651 305.991L84.5815 314.938L88.5231 312.639L86.2076 306.63C82.8129 297.821 86.8597 287.789 95.2468 284.223C95.4286 284.146 95.6114 284.072 95.7957 284.001L94.7823 279.94L92.6475 280.967Z" fill="#1A1A1A"/>
<path d="M59.3282 427.231C66.1115 436.943 70.4323 452.463 72.3096 473.793L71.5358 473.869C69.643 452.361 65.2601 436.835 58.4065 427.296C52.8045 419.5 46.7892 413.078 40.5953 407.901C36.0498 404.101 31.7964 401.284 28.0703 399.321L28.4188 398.591C32.1911 400.579 36.49 403.427 41.0795 407.263C47.261 412.43 53.2633 418.823 58.8581 426.571L84.9439 411.733C85.1325 411.626 85.368 411.7 85.4706 411.898C85.5726 412.096 85.5027 412.343 85.3137 412.451L59.3282 427.231ZM96.384 419.517C96.2815 419.32 96.3509 419.072 96.5388 418.964C96.7274 418.856 96.963 418.929 97.0661 419.126L120.168 463.572C120.271 463.769 120.202 464.018 120.013 464.125C119.825 464.234 119.589 464.161 119.487 463.964L96.384 419.517ZM87.9078 400.761C88.0026 400.963 87.9227 401.208 87.7302 401.307C87.538 401.406 87.305 401.323 87.2107 401.121L64.3237 352.165C64.229 351.962 64.3088 351.718 64.5014 351.619C64.6936 351.519 64.9266 351.603 65.0208 351.805L87.9078 400.761Z" fill="#1A1A1A"/>
<path d="M108.393 322.839C108.298 322.637 108.066 322.554 107.873 322.653C107.681 322.753 107.601 322.997 107.696 323.199L108.393 322.839ZM119.163 347.677C119.258 347.88 119.491 347.963 119.683 347.863C119.876 347.764 119.955 347.519 119.86 347.317L119.163 347.677ZM107.696 323.199L119.163 347.677L119.86 347.317L108.393 322.839L107.696 323.199Z" fill="#1A1A1A"/>
<path d="M143.551 393.684C143.454 393.483 143.22 393.403 143.029 393.505C142.837 393.607 142.761 393.853 142.858 394.054L143.551 393.684ZM163.371 436.43C163.468 436.63 163.702 436.71 163.893 436.608C164.084 436.506 164.161 436.261 164.063 436.06L163.371 436.43ZM142.858 394.054L163.371 436.43L164.063 436.06L143.551 393.684L142.858 394.054Z" fill="#1A1A1A"/>
<path fill-rule="evenodd" clip-rule="evenodd" d="M144.515 341.367C141.999 339.473 139.941 339 138.34 339.946C135.939 341.367 132.852 344.208 134.567 347.759C136.282 351.311 137.654 354.152 139.369 354.152C141.084 354.152 144.172 354.506 145.887 350.6C147.03 347.996 146.573 344.918 144.515 341.367Z" fill="#FD650B"/>
<path fill-rule="evenodd" clip-rule="evenodd" d="M144.371 343.001C144.194 344.927 143.583 346.168 142.54 346.724C141.627 347.21 140.198 347.494 138.255 347.574C137.397 347.609 136.676 346.908 136.642 346.007C136.63 345.699 136.702 345.393 136.85 345.126C137.918 343.186 138.865 341.997 139.691 341.557C140.558 341.095 141.689 340.987 143.083 341.234C143.888 341.376 144.45 342.148 144.371 343.001Z" fill="white"/>
<path d="M143.727 343.646C143.466 344.077 142.949 344.37 142.353 344.37C141.495 344.37 140.8 343.761 140.8 343.01C140.8 342.277 141.463 341.679 142.292 341.651C141.224 341.53 140.355 341.655 139.68 342.014C138.94 342.408 138.033 343.547 136.999 345.423C136.889 345.624 136.835 345.853 136.844 346.085C136.869 346.76 137.411 347.286 138.054 347.26C139.946 347.182 141.325 346.908 142.178 346.454C142.98 346.026 143.502 345.102 143.727 343.646ZM142.997 341.772C143.126 341.815 143.245 341.882 143.349 341.966C143.243 341.888 143.124 341.822 142.997 341.772ZM144.572 343.133C144.383 345.185 143.711 346.552 142.529 347.182C141.556 347.699 140.079 347.993 138.084 348.075C137.012 348.119 136.11 347.242 136.068 346.116C136.053 345.731 136.143 345.349 136.327 345.015C137.43 343.012 138.418 341.771 139.329 341.286C140.279 340.78 141.492 340.665 142.962 340.925C143.967 341.103 144.67 342.067 144.572 343.133Z" fill="#1A1A1A"/>
<path fill-rule="evenodd" clip-rule="evenodd" d="M160.741 332.544C159.529 332.226 158.251 332.444 156.906 333.2V333.2C156.654 333.342 156.559 333.671 156.694 333.936C156.722 333.992 156.76 334.042 156.805 334.085C157.318 334.568 157.94 334.842 158.67 334.908C159.636 334.995 160.758 334.995 162.036 334.908C162.554 333.694 162.122 332.907 160.741 332.544Z" fill="#FD650B"/>
<path d="M161.091 332.09C159.78 331.746 158.404 331.981 156.978 332.783C156.537 333.031 156.371 333.607 156.607 334.071C156.657 334.169 156.723 334.257 156.801 334.331C157.379 334.874 158.08 335.184 158.892 335.257C159.88 335.345 161.021 335.345 162.316 335.257C162.46 335.247 162.587 335.155 162.646 335.017C163.268 333.558 162.695 332.511 161.091 332.09ZM158.958 334.444C158.312 334.386 157.769 334.146 157.32 333.723C157.308 333.713 157.299 333.7 157.292 333.686C157.258 333.62 157.282 333.538 157.345 333.502C158.609 332.792 159.79 332.59 160.903 332.882C161.968 333.162 162.298 333.631 162.023 334.459C160.864 334.528 159.842 334.523 158.958 334.444Z" fill="#1A1A1A"/>
<path d="M283.997 452.073C286.142 452.073 287.881 450.246 287.881 447.993C287.881 445.74 286.142 443.913 283.997 443.913C281.852 443.913 280.113 445.74 280.113 447.993C280.113 450.246 281.852 452.073 283.997 452.073Z" fill="white"/>
<path d="M283.815 452.481C286.175 452.481 288.088 450.471 288.088 447.993C288.088 445.515 286.175 443.505 283.815 443.505C281.455 443.505 279.543 445.515 279.543 447.993C279.543 450.471 281.455 452.481 283.815 452.481ZM283.815 451.665C281.884 451.665 280.319 450.021 280.319 447.993C280.319 445.965 281.884 444.321 283.815 444.321C285.746 444.321 287.311 445.965 287.311 447.993C287.311 450.021 285.746 451.665 283.815 451.665Z" fill="#1A1A1A"/>
<path d="M342.52 387.342C344.665 387.342 346.405 385.515 346.405 383.262C346.405 381.009 344.665 379.182 342.52 379.182C340.375 379.182 338.636 381.009 338.636 383.262C338.636 385.515 340.375 387.342 342.52 387.342Z" fill="white"/>
<path d="M342.522 387.75C344.882 387.75 346.795 385.74 346.795 383.262C346.795 380.784 344.882 378.774 342.522 378.774C340.163 378.774 338.25 380.784 338.25 383.262C338.25 385.74 340.163 387.75 342.522 387.75ZM342.522 386.934C340.591 386.934 339.026 385.29 339.026 383.262C339.026 381.234 340.591 379.59 342.522 379.59C344.453 379.59 346.018 381.234 346.018 383.262C346.018 385.29 344.453 386.934 342.522 386.934Z" fill="#1A1A1A"/>
<path d="M283.811 450.304C285.159 450.304 286.271 449.282 286.271 447.992C286.271 446.703 285.159 445.681 283.811 445.681C282.463 445.681 281.351 446.703 281.351 447.992C281.351 449.282 282.463 450.304 283.811 450.304ZM283.811 449.488C282.871 449.488 282.128 448.806 282.128 447.992C282.128 447.179 282.871 446.496 283.811 446.496C284.751 446.496 285.494 447.179 285.494 447.992C285.494 448.806 284.751 449.488 283.811 449.488Z" fill="#1A1A1A"/>
<path d="M342.522 385.574C343.87 385.574 344.982 384.552 344.982 383.262C344.982 381.972 343.87 380.95 342.522 380.95C341.174 380.95 340.062 381.972 340.062 383.262C340.062 384.552 341.174 385.574 342.522 385.574ZM342.522 384.758C341.581 384.758 340.839 384.075 340.839 383.262C340.839 382.449 341.581 381.766 342.522 381.766C343.462 381.766 344.205 382.449 344.205 383.262C344.205 384.075 343.462 384.758 342.522 384.758Z" fill="#1A1A1A"/>
<path d="M114.458 279.124C118.526 283.025 127.41 284.763 141.143 284.398C154.847 284.034 164.578 281.843 170.35 277.802C170.528 277.677 170.576 277.424 170.457 277.236C170.338 277.049 170.097 276.998 169.919 277.123C164.296 281.06 154.694 283.222 141.123 283.582C127.58 283.942 118.855 282.235 114.982 278.521C114.824 278.37 114.578 278.381 114.434 278.547C114.289 278.714 114.3 278.972 114.458 279.124Z" fill="#1A1A1A"/>
<path d="M270.065 278.477C259.358 285.558 251.982 292.302 247.938 298.724C243.898 305.14 240.259 315.969 237.007 331.225L237.766 331.403C240.998 316.236 244.609 305.488 248.586 299.174C252.559 292.865 259.857 286.192 270.479 279.168L270.065 278.477Z" fill="#1A1A1A"/>
<path fill-rule="evenodd" clip-rule="evenodd" d="M120.031 370.777C124.206 372.337 128.068 373.522 131.618 374.333C135.092 375.126 139.173 375.811 143.862 376.388C144.857 376.511 145.569 377.457 145.452 378.501C145.443 378.581 145.429 378.661 145.411 378.74L145.36 378.954C145.103 380.036 144.109 380.739 143.058 380.582C138.698 379.93 134.626 379.208 130.841 378.412C127.002 377.606 123.127 376.213 119.215 374.235C118.363 373.804 117.916 372.803 118.146 371.839C118.339 371.026 119.123 370.532 119.898 370.735C119.943 370.747 119.987 370.761 120.031 370.777Z" fill="white"/>
<path d="M135.376 375.864C134.049 375.618 132.792 375.359 131.605 375.088C130.158 374.758 128.651 374.332 127.084 373.809L126.524 376.356C128.091 376.848 129.632 377.253 131.145 377.571C132.347 377.823 133.579 378.069 134.839 378.306L135.376 375.864ZM136.142 376.003L135.605 378.449C138.067 378.904 140.638 379.332 143.319 379.732C143.976 379.83 144.597 379.391 144.758 378.715L144.809 378.501C144.819 378.456 144.827 378.411 144.832 378.364C144.899 377.767 144.492 377.226 143.924 377.157C141.115 376.811 138.52 376.426 136.142 376.003ZM126.342 373.556C124.322 372.853 122.204 371.994 119.988 370.98C119.94 370.958 119.889 370.94 119.838 370.926C119.325 370.793 118.806 371.12 118.678 371.658L118.597 372.002C118.444 372.647 118.757 373.314 119.337 373.578C121.532 374.579 123.68 375.425 125.779 376.116L126.342 373.556ZM120.299 370.232C124.485 372.148 128.309 373.501 131.77 374.291C135.244 375.084 139.325 375.769 144.014 376.346C145.009 376.469 145.72 377.415 145.604 378.46C145.595 378.54 145.581 378.62 145.562 378.698L145.511 378.912C145.255 379.994 144.261 380.697 143.21 380.54C138.85 379.889 134.778 379.166 130.993 378.37C127.168 377.567 123.18 376.219 119.028 374.327C118.099 373.903 117.598 372.836 117.843 371.804L117.925 371.461C118.156 370.485 119.097 369.892 120.026 370.135C120.119 370.159 120.21 370.192 120.299 370.232Z" fill="#1A1A1A"/>
<path fill-rule="evenodd" clip-rule="evenodd" d="M73.9921 326.147L77.6173 324.515L81.2425 332.402L77.6173 334.85L73.9921 326.147ZM86.1624 329.139C85.1955 329.139 84.2229 328.971 83.5729 328.323C82.8774 327.629 82.5372 326.418 82.5372 325.331C82.5372 324.461 82.8464 323.253 83.314 322.611C83.9764 321.703 84.9889 321.523 86.1624 321.523C87.2075 321.523 88.0905 321.596 88.7518 322.339C89.3577 323.02 89.7876 324.326 89.7876 325.331C89.7876 326.587 89.3852 327.901 88.4929 328.595C87.8906 329.063 86.9692 329.139 86.1624 329.139Z" fill="#FD650B"/>
<path d="M73.7421 325.933L78.0685 323.986L82.0044 332.55L77.707 335.452L73.7421 325.933ZM78.0535 334.247L81.0059 332.254L77.6914 325.043L74.7675 326.36L78.0535 334.247ZM86.4251 329.546C85.1852 329.546 84.2359 329.284 83.5684 328.618C82.8284 327.88 82.4115 326.606 82.4115 325.33C82.4115 324.331 82.7647 323.053 83.2686 322.363C83.9481 321.43 84.9097 321.115 86.4251 321.115C87.8679 321.115 88.6302 321.31 89.2983 322.06C89.9623 322.806 90.4387 324.203 90.4387 325.33C90.4387 326.819 89.9312 328.188 88.9866 328.922C88.3827 329.392 87.5722 329.546 86.4251 329.546ZM86.4251 328.73C87.4158 328.73 88.0942 328.601 88.5245 328.266C89.2454 327.706 89.6619 326.582 89.6619 325.33C89.6619 324.401 89.2538 323.205 88.7307 322.617C88.2522 322.08 87.67 321.931 86.4251 321.931C85.1278 321.931 84.3841 322.175 83.8849 322.859C83.4934 323.395 83.1883 324.499 83.1883 325.33C83.1883 326.4 83.5353 327.46 84.1028 328.026C84.5959 328.517 85.3655 328.73 86.4251 328.73Z" fill="#1A1A1A"/>
<path d="M277.004 211.644H231.948C231.09 211.644 230.394 212.375 230.394 213.276C230.394 214.177 231.09 214.908 231.948 214.908H277.004C277.862 214.908 278.557 214.177 278.557 213.276C278.557 212.375 277.862 211.644 277.004 211.644Z" fill="white"/>
<path d="M231.948 211.644H277.004C277.862 211.644 278.557 212.375 278.557 213.276C278.557 214.177 277.862 214.908 277.004 214.908H231.948C231.09 214.908 230.394 214.177 230.394 213.276C230.394 212.375 231.09 211.644 231.948 211.644ZM231.948 212.46C231.519 212.46 231.171 212.826 231.171 213.276C231.171 213.726 231.519 214.092 231.948 214.092H277.004C277.433 214.092 277.781 213.726 277.781 213.276C277.781 212.826 277.433 212.46 277.004 212.46H231.948Z" fill="#1A1A1A"/>
<path d="M164.236 435.067L143.782 392.901C143.489 392.298 142.788 392.059 142.214 392.365C141.641 392.672 141.413 393.409 141.705 394.012L162.16 436.178C162.452 436.78 163.154 437.02 163.727 436.713C164.301 436.406 164.529 435.669 164.236 435.067Z" fill="white" stroke="#1A1A1A" stroke-width="0.877811"/>
<path fill-rule="evenodd" clip-rule="evenodd" d="M151.738 326.586C150.262 327.9 143.347 322.323 141.868 321.666C141.073 321.313 140.702 320.349 141.038 319.514C141.346 318.749 142.151 318.347 142.911 318.577C147.454 319.954 150.015 320.953 150.594 321.574C152.061 323.146 153.213 325.273 151.738 326.586Z" fill="white"/>
<path fill-rule="evenodd" clip-rule="evenodd" d="M186.541 363.666L202.009 353.375C202.251 353.214 202.571 353.29 202.723 353.544C202.727 353.55 202.731 353.556 202.734 353.562L208.653 364.318C208.791 364.57 208.717 364.891 208.485 365.048L193.293 375.343C193.053 375.505 192.732 375.433 192.578 375.18C192.575 375.176 192.572 375.171 192.569 375.167L186.375 364.407C186.229 364.154 186.303 363.825 186.541 363.666Z" fill="white"/>
<path d="M185.821 363.832L202.072 353.166C202.314 353.007 202.633 353.084 202.785 353.339L209.372 364.41C209.523 364.665 209.449 365.001 209.207 365.16L192.957 375.825C192.714 375.985 192.395 375.907 192.243 375.652L185.657 364.581C185.505 364.326 185.579 363.991 185.821 363.832ZM186.453 364.38L192.765 374.989L208.576 364.612L202.264 354.002L186.453 364.38Z" fill="#1A1A1A"/>
<path d="M189.732 363.998L200.272 357.08C200.515 356.921 200.834 356.999 200.986 357.253L205.377 364.634C205.529 364.889 205.455 365.224 205.212 365.384L194.672 372.302C194.429 372.461 194.109 372.383 193.958 372.129L189.567 364.748C189.415 364.493 189.489 364.157 189.732 363.998ZM194.48 371.466L204.581 364.835L200.464 357.916L190.363 364.546L194.48 371.466Z" fill="#1A1A1A"/>
<path d="M402.945 170.919V164.267C402.945 163.985 403.164 163.755 403.432 163.755C403.7 163.755 403.92 163.985 403.92 164.267V170.919H410.253C410.521 170.919 410.74 171.149 410.74 171.431C410.74 171.712 410.521 171.942 410.253 171.942H403.92V178.595C403.92 178.876 403.7 179.106 403.432 179.106C403.164 179.106 402.945 178.876 402.945 178.595V171.942H396.612C396.344 171.942 396.125 171.712 396.125 171.431C396.125 171.149 396.344 170.919 396.612 170.919H402.945Z" fill="#1A1A1A"/>
<path d="M6.82065 164.543V157.891C6.82065 157.609 7.03989 157.379 7.30784 157.379C7.5758 157.379 7.79504 157.609 7.79504 157.891V164.543H14.1285C14.3965 164.543 14.6157 164.773 14.6157 165.055C14.6157 165.336 14.3965 165.566 14.1285 165.566H7.79504V172.219C7.79504 172.5 7.5758 172.73 7.30784 172.73C7.03989 172.73 6.82065 172.5 6.82065 172.219V165.566H0.48719C0.219235 165.566 0 165.336 0 165.055C0 164.773 0.219235 164.543 0.48719 164.543H6.82065Z" fill="#1A1A1A"/>
<path d="M397.633 423.587V416.935C397.633 416.653 397.852 416.423 398.12 416.423C398.388 416.423 398.607 416.653 398.607 416.935V423.587H404.941C405.208 423.587 405.428 423.817 405.428 424.099C405.428 424.38 405.208 424.611 404.941 424.611H398.607V431.263C398.607 431.544 398.388 431.775 398.12 431.775C397.852 431.775 397.633 431.544 397.633 431.263V424.611H391.299C391.031 424.611 390.812 424.38 390.812 424.099C390.812 423.817 391.031 423.587 391.299 423.587H397.633Z" fill="#1A1A1A"/>
<path d="M19.777 286.551V281.434C19.777 281.152 19.9963 280.922 20.2642 280.922C20.5322 280.922 20.7514 281.152 20.7514 281.434V286.551H25.6233C25.8913 286.551 26.1105 286.781 26.1105 287.063C26.1105 287.344 25.8913 287.574 25.6233 287.574H20.7514V292.692C20.7514 292.973 20.5322 293.203 20.2642 293.203C19.9963 293.203 19.777 292.973 19.777 292.692V287.574H14.9051C14.6372 287.574 14.4179 287.344 14.4179 287.063C14.4179 286.781 14.6372 286.551 14.9051 286.551H19.777Z" fill="#1A1A1A"/>
<path d="M317.767 280.716V275.855C317.767 275.573 317.987 275.343 318.255 275.343C318.523 275.343 318.742 275.573 318.742 275.855V280.716H323.37C323.638 280.716 323.857 280.946 323.857 281.228C323.857 281.509 323.638 281.74 323.37 281.74H318.742V286.601C318.742 286.882 318.523 287.113 318.255 287.113C317.987 287.113 317.767 286.882 317.767 286.601V281.74H313.139C312.871 281.74 312.652 281.509 312.652 281.228C312.652 280.946 312.871 280.716 313.139 280.716H317.767Z" fill="#1A1A1A"/>
<path d="M222.908 128.478V123.617C222.908 123.335 223.127 123.105 223.395 123.105C223.663 123.105 223.883 123.335 223.883 123.617V128.478H228.511C228.779 128.478 228.998 128.708 228.998 128.99C228.998 129.271 228.779 129.501 228.511 129.501H223.883V134.363C223.883 134.644 223.663 134.874 223.395 134.874C223.127 134.874 222.908 134.644 222.908 134.363V129.501H218.28C218.012 129.501 217.793 129.271 217.793 128.99C217.793 128.708 218.012 128.478 218.28 128.478H222.908Z" fill="#1A1A1A"/>
<path d="M325.933 179.37C325.934 179.158 326.095 178.987 326.297 178.988C326.499 178.987 326.662 179.157 326.662 179.369L326.817 213.202C326.855 221.469 333.268 228.136 341.138 228.097C342.975 228.089 344.789 227.708 346.484 226.974L353.349 224.014C360.004 221.142 367.611 224.483 370.347 231.468C371.573 234.606 371.646 238.11 370.553 241.302L365.24 256.796C362.543 264.661 363.576 273.408 368.024 280.339L374.539 290.498C374.655 290.674 374.608 290.91 374.439 291.031C374.272 291.147 374.046 291.103 373.931 290.926L367.41 280.771C362.83 273.632 361.767 264.633 364.546 256.536L369.858 241.042C370.894 238.03 370.824 234.723 369.664 231.758C367.083 225.163 359.902 222.01 353.623 224.72L346.758 227.68C344.974 228.447 343.064 228.847 341.135 228.86C332.86 228.899 326.121 221.893 326.084 213.202L325.933 179.37Z" fill="#1A1A1A"/>
<path d="M95.2065 167.805V154.758H102.54V151.176H95.2065V131.989H91.6249V151.176H65.786L86.9347 106.406H83.0119L61.8633 151.176V154.758H91.6249V167.805H95.2065ZM140.037 169.084C150.27 169.084 158.712 160.642 158.712 150.409V123.802C158.712 113.569 150.27 105.127 140.037 105.127C129.804 105.127 121.361 113.569 121.361 123.802V150.409C121.361 160.642 129.804 169.084 140.037 169.084ZM140.037 165.503C131.765 165.503 124.943 158.68 124.943 150.409V123.802C124.943 115.53 131.765 108.708 140.037 108.708C148.309 108.708 155.131 115.53 155.131 123.802V150.409C155.131 158.68 148.309 165.503 140.037 165.503ZM210.874 167.805V154.758H218.208V151.176H210.874V131.989H207.293V151.176H181.454L202.602 106.406H198.68L177.531 151.176V154.758H207.293V167.805H210.874Z" fill="#6E6E6E"/>
<path d="M95.2065 167.805V154.758H102.54V151.176H95.2065V131.989H91.6249V151.176H65.786L86.9347 106.406H83.0119L61.8633 151.176V154.758H91.6249V167.805H95.2065ZM140.037 169.084C150.27 169.084 158.712 160.642 158.712 150.409V123.802C158.712 113.569 150.27 105.127 140.037 105.127C129.804 105.127 121.361 113.569 121.361 123.802V150.409C121.361 160.642 129.804 169.084 140.037 169.084ZM140.037 165.503C131.765 165.503 124.943 158.68 124.943 150.409V123.802C124.943 115.53 131.765 108.708 140.037 108.708C148.309 108.708 155.131 115.53 155.131 123.802V150.409C155.131 158.68 148.309 165.503 140.037 165.503ZM210.874 167.805V154.758H218.208V151.176H210.874V131.989H207.293V151.176H181.454L202.602 106.406H198.68L177.531 151.176V154.758H207.293V167.805H210.874Z" fill="#6E6E6E"/>
<path d="M95.2065 167.805V154.758H102.54V151.176H95.2065V131.989H91.6249V151.176H65.786L86.9347 106.406H83.0119L61.8633 151.176V154.758H91.6249V167.805H95.2065ZM140.037 169.084C150.27 169.084 158.712 160.642 158.712 150.409V123.802C158.712 113.569 150.27 105.127 140.037 105.127C129.804 105.127 121.361 113.569 121.361 123.802V150.409C121.361 160.642 129.804 169.084 140.037 169.084ZM140.037 165.503C131.765 165.503 124.943 158.68 124.943 150.409V123.802C124.943 115.53 131.765 108.708 140.037 108.708C148.309 108.708 155.131 115.53 155.131 123.802V150.409C155.131 158.68 148.309 165.503 140.037 165.503ZM210.874 167.805V154.758H218.208V151.176H210.874V131.989H207.293V151.176H181.454L202.602 106.406H198.68L177.531 151.176V154.758H207.293V167.805H210.874Z" fill="#6E6E6E"/>
</svg>
