<svg width="20" height="20" viewBox="0 0 20 20" fill="none" xmlns="http://www.w3.org/2000/svg">
<path d="M10.3281 13.3469L9.8946 14.2481L9.90017 14.2507L10.3281 13.3469ZM11.0688 13.2907L10.5133 12.4591L10.5092 12.4619L11.0688 13.2907ZM13.4125 11.725L13.968 12.5566L13.9738 12.5526L13.4125 11.725ZM14.125 11.6594L13.7243 12.5756L13.7304 12.5783L14.125 11.6594ZM18.5125 13.5438L18.1178 14.4627L18.1282 14.467L18.5125 13.5438ZM18.9625 14.3219L17.9706 14.1945V14.1948L18.9625 14.3219ZM14.5 18.25V19.25H14.5002L14.5 18.25ZM1.75 5.50004L0.75 5.49981V5.50004H1.75ZM5.67812 1.03753L5.80521 2.02943L5.80553 2.02938L5.67812 1.03753ZM6.45625 1.48753L5.53297 1.87181L5.5371 1.88145L6.45625 1.48753ZM8.34062 5.88441L7.42147 6.27834L7.4234 6.28278L8.34062 5.88441ZM8.28437 6.58754L9.12001 7.13695L9.1266 7.12666L8.28437 6.58754ZM6.71875 8.96879L5.88315 8.4194L5.87922 8.42547L6.71875 8.96879ZM5.77185 10.1359C6.64209 11.933 8.09526 13.3824 9.8946 14.2481L10.7617 12.4458C9.36951 11.776 8.2452 10.6546 7.5719 9.2642L5.77185 10.1359ZM9.90017 14.2507C10.1748 14.3808 10.4786 14.437 10.7816 14.414L10.6302 12.4198C10.6735 12.4165 10.7168 12.4245 10.7561 12.4431L9.90017 14.2507ZM10.7816 14.414C11.0846 14.391 11.3764 14.2895 11.6283 14.1195L10.5092 12.4619C10.5452 12.4376 10.5869 12.4231 10.6302 12.4198L10.7816 14.414ZM11.6242 14.1222L13.968 12.5566L12.857 10.8935L10.5133 12.4591L11.6242 14.1222ZM13.9738 12.5526C13.9375 12.5772 13.8956 12.5922 13.852 12.5963L13.6686 10.6047C13.3758 10.6317 13.0945 10.7324 12.8512 10.8974L13.9738 12.5526ZM13.852 12.5963C13.8084 12.6003 13.7644 12.5932 13.7243 12.5756L14.5257 10.7432C14.2563 10.6254 13.9614 10.5777 13.6686 10.6047L13.852 12.5963ZM13.7304 12.5783L18.1179 14.4626L18.9071 12.6249L14.5196 10.7406L13.7304 12.5783ZM18.1282 14.467C18.0757 14.4452 18.0319 14.4066 18.0034 14.3574L19.7347 13.3561C19.5436 13.0257 19.2492 12.7672 18.8968 12.6206L18.1282 14.467ZM18.0034 14.3574C17.9749 14.3082 17.9634 14.2509 17.9706 14.1945L19.9543 14.4493C20.003 14.0707 19.9258 13.6866 19.7347 13.3561L18.0034 14.3574ZM17.9706 14.1948C17.8624 15.039 17.4504 15.8149 16.8116 16.3772L18.133 17.8784C19.1369 16.9948 19.7844 15.7756 19.9544 14.449L17.9706 14.1948ZM16.8116 16.3772C16.1727 16.9395 15.3509 17.2498 14.4998 17.25L14.5002 19.25C15.8376 19.2497 17.1291 18.7621 18.133 17.8784L16.8116 16.3772ZM14.5 17.25C11.3837 17.25 8.39505 16.0121 6.1915 13.8085L4.77728 15.2228C7.35591 17.8014 10.8533 19.25 14.5 19.25V17.25ZM6.1915 13.8085C3.98794 11.605 2.75 8.61633 2.75 5.50004H0.75C0.75 9.14676 2.19866 12.6441 4.77728 15.2228L6.1915 13.8085ZM2.75 5.50026C2.75019 4.64918 3.06049 3.82732 3.62283 3.18848L2.12159 1.86701C1.23791 2.8709 0.750301 4.16239 0.75 5.49981L2.75 5.50026ZM3.62283 3.18848C4.18517 2.54964 4.96102 2.13759 5.80521 2.02943L5.55104 0.0456412C4.22447 0.215604 3.00527 0.863113 2.12159 1.86701L3.62283 3.18848ZM5.80553 2.02938C5.74911 2.03663 5.69188 2.02513 5.64264 1.99665L6.64389 0.265325C6.31344 0.0742232 5.92933 -0.00295377 5.55072 0.0456822L5.80553 2.02938ZM5.64264 1.99665C5.59339 1.96818 5.55488 1.9243 5.53302 1.87179L7.37948 1.10328C7.2328 0.750859 6.97433 0.456428 6.64389 0.265325L5.64264 1.99665ZM5.5371 1.88145L7.42148 6.27833L9.25977 5.49049L7.37539 1.09361L5.5371 1.88145ZM7.4234 6.28278C7.40707 6.24517 7.40023 6.20412 7.4035 6.16325L9.39713 6.32274C9.42002 6.03664 9.37219 5.7493 9.25785 5.48604L7.4234 6.28278ZM7.4035 6.16325C7.40677 6.12238 7.42005 6.08294 7.44215 6.04841L9.1266 7.12666C9.28134 6.88493 9.37424 6.60885 9.39713 6.32274L7.4035 6.16325ZM7.4488 6.03816L5.88317 8.41941L7.55433 9.51816L9.11995 7.13691L7.4488 6.03816ZM5.87922 8.42547C5.71658 8.67677 5.62113 8.9656 5.60198 9.26433L7.59788 9.39227C7.59515 9.43494 7.58151 9.4762 7.55828 9.51211L5.87922 8.42547ZM5.60198 9.26433C5.58283 9.56306 5.64063 9.8617 5.76985 10.1317L7.5739 9.26836C7.59236 9.30693 7.60062 9.34959 7.59788 9.39227L5.60198 9.26433Z" fill="#6E6E6E"/>
</svg>
