<svg width="10" height="16" viewBox="0 0 10 16" fill="none" xmlns="http://www.w3.org/2000/svg">
<path d="M2.4672 1.03279C1.97904 0.544686 1.18759 0.544686 0.69943 1.03279C0.211273 1.52099 0.211273 2.31239 0.699429 2.80059L2.4672 1.03279ZM7.83331 8.16669L8.71719 9.05057C9.20535 8.56242 9.20535 7.77096 8.71719 7.28281L7.83331 8.16669ZM0.69943 13.5328C0.211274 14.021 0.211274 14.8124 0.699431 15.3006C1.18759 15.7887 1.97904 15.7887 2.4672 15.3006L0.69943 13.5328ZM0.699429 2.80059L6.94943 9.05057L8.71719 7.28281L2.4672 1.03279L0.699429 2.80059ZM6.94943 7.28281L0.69943 13.5328L2.4672 15.3006L8.71719 9.05057L6.94943 7.28281Z" fill="#1A1A1A"/>
</svg>
