<svg width="30" height="30" viewBox="0 0 30 30" fill="none" xmlns="http://www.w3.org/2000/svg">
<path d="M2.5 15.625C2.5 16.3154 3.05964 16.875 3.75 16.875C4.44036 16.875 5 16.3154 5 15.625H2.5ZM15.625 5C16.3154 5 16.875 4.44036 16.875 3.75C16.875 3.05964 16.3154 2.5 15.625 2.5V5ZM5 15.625C5 9.75286 9.75286 5 15.625 5V2.5C8.37214 2.5 2.5 8.37214 2.5 15.625H5Z" fill="#FD650B"/>
<path d="M28.7487 15.625C28.7487 14.9346 28.1891 14.375 27.4987 14.375C26.8083 14.375 26.2487 14.9346 26.2487 15.625H28.7487ZM6.08279 20.3106C5.77799 19.6912 5.02876 19.4361 4.40933 19.7409C3.78991 20.0457 3.53485 20.795 3.83965 21.4144L6.08279 20.3106ZM26.2487 15.625C26.2487 21.4971 21.4958 26.25 15.6237 26.25V28.75C22.8766 28.75 28.7487 22.8779 28.7487 15.625H26.2487ZM15.6237 26.25C11.4421 26.25 7.81763 23.8363 6.08279 20.3106L3.83965 21.4144C5.97981 25.7637 10.4553 28.75 15.6237 28.75V26.25Z" fill="#FD650B"/>
<path d="M18.75 6.25C18.0596 6.25 17.5 6.80964 17.5 7.5C17.5 8.19036 18.0596 8.75 18.75 8.75V6.25ZM26.25 8.75C26.9404 8.75 27.5 8.19036 27.5 7.5C27.5 6.80964 26.9404 6.25 26.25 6.25V8.75ZM18.75 8.75H26.25V6.25H18.75V8.75Z" fill="#FD650B"/>
<path d="M18.75 10C18.0596 10 17.5 10.5596 17.5 11.25C17.5 11.9404 18.0596 12.5 18.75 12.5V10ZM22.5 12.5C23.1904 12.5 23.75 11.9404 23.75 11.25C23.75 10.5596 23.1904 10 22.5 10V12.5ZM18.75 12.5H22.5V10H18.75V12.5Z" fill="#FD650B"/>
<path d="M27.8661 29.6339C28.3543 30.122 29.1457 30.122 29.6339 29.6339C30.122 29.1457 30.122 28.3543 29.6339 27.8661L27.8661 29.6339ZM27.1339 25.3661C26.6457 24.878 25.8543 24.878 25.3661 25.3661C24.878 25.8543 24.878 26.6457 25.3661 27.1339L27.1339 25.3661ZM29.6339 27.8661L27.1339 25.3661L25.3661 27.1339L27.8661 29.6339L29.6339 27.8661Z" fill="#FD650B"/>
</svg>
