<svg width="95" height="25" viewBox="0 0 95 25" fill="none" xmlns="http://www.w3.org/2000/svg">
<path d="M18.751 12.7573C18.7513 16.5543 15.6735 19.6325 11.8765 19.6328L11.8767 21.6328C16.7782 21.6324 20.7514 17.6586 20.751 12.7571L18.751 12.7573ZM11.8765 19.6328C8.07955 19.6331 5.00127 16.5554 5.00096 12.7584L3.00096 12.7585C3.00136 17.66 6.97515 21.6332 11.8767 21.6328L11.8765 19.6328ZM5.00096 12.7584C5.00065 8.96143 8.07845 5.88314 11.8754 5.88283L11.8752 3.88283C6.97371 3.88323 3.00056 7.85702 3.00096 12.7585L5.00096 12.7584ZM11.8754 5.88283C15.6724 5.88252 18.7507 8.96032 18.751 12.7573L20.751 12.7571C20.7506 7.85559 16.7767 3.88244 11.8752 3.88283L11.8754 5.88283Z" fill="#1A1A1A"/>
<path d="M18.1515 17.619C17.7609 17.2285 17.1277 17.2285 16.7373 17.6191C16.3468 18.0096 16.3468 18.6428 16.7374 19.0333L18.1515 17.619ZM21.294 23.5892C21.6846 23.9797 22.3178 23.9797 22.7083 23.5891C23.0987 23.1986 23.0987 22.5654 22.7081 22.1749L21.294 23.5892ZM16.7374 19.0333L21.294 23.5892L22.7081 22.1749L18.1515 17.619L16.7374 19.0333Z" fill="#1A1A1A"/>
<path d="M38.0586 20.1507C37.1106 20.1508 36.2555 19.9859 35.4935 19.6559C34.7375 19.326 34.1135 18.855 33.6214 18.2431C33.1354 17.6251 32.8263 16.8931 32.6942 16.0472L34.9442 15.705C35.1363 16.473 35.5293 17.0669 36.1233 17.4869C36.7234 17.9068 37.4134 18.1168 38.1934 18.1167C38.6554 18.1167 39.0904 18.0446 39.4984 17.9006C39.9064 17.7566 40.2363 17.5465 40.4883 17.2705C40.7463 16.9945 40.8753 16.6555 40.8752 16.2535C40.8752 16.0735 40.8452 15.9085 40.7852 15.7585C40.7252 15.6025 40.6352 15.4645 40.5152 15.3445C40.4012 15.2245 40.2512 15.1165 40.0651 15.0206C39.8851 14.9186 39.6751 14.8316 39.4351 14.7596L36.087 13.7699C35.799 13.6859 35.487 13.5749 35.151 13.437C34.821 13.293 34.506 13.098 34.206 12.852C33.9119 12.6001 33.6689 12.2821 33.4769 11.8981C33.2909 11.5081 33.1978 11.0281 33.1978 10.4581C33.1977 9.62411 33.4077 8.92509 33.8276 8.36106C34.2536 7.79103 34.8235 7.36498 35.5375 7.08292C36.2575 6.80086 37.0555 6.6628 37.9315 6.66873C38.8195 6.67466 39.6115 6.82759 40.3075 7.12754C41.0035 7.42148 41.5856 7.85044 42.0536 8.4144C42.5217 8.97836 42.8517 9.65933 43.0438 10.4573L40.7128 10.8625C40.6168 10.4065 40.4307 10.0195 40.1547 9.70155C39.8847 9.37757 39.5517 9.1316 39.1557 8.96363C38.7656 8.79566 38.3486 8.7057 37.9046 8.69373C37.4726 8.68777 37.0706 8.7538 36.6986 8.89183C36.3327 9.02386 36.0357 9.21588 35.8077 9.4679C35.5857 9.71992 35.4747 10.0139 35.4748 10.3499C35.4748 10.6679 35.5708 10.9289 35.7628 11.1329C35.9548 11.3309 36.1919 11.4899 36.4739 11.6098C36.7619 11.7238 37.0529 11.8198 37.3469 11.8978L39.6689 12.5456C39.987 12.6296 40.344 12.7435 40.74 12.8875C41.136 13.0315 41.517 13.2324 41.883 13.4904C42.249 13.7484 42.5491 14.0874 42.7831 14.5073C43.0231 14.9273 43.1432 15.4613 43.1432 16.1093C43.1433 16.7813 43.0023 17.3723 42.7204 17.8823C42.4444 18.3864 42.0694 18.8064 41.5955 19.1424C41.1215 19.4785 40.5785 19.7305 39.9665 19.8986C39.3605 20.0666 38.7246 20.1507 38.0586 20.1507ZM49.5106 20.1498C48.5266 20.1499 47.6626 19.9369 46.9186 19.511C46.1745 19.0851 45.5925 18.4941 45.1724 17.7381C44.7584 16.9822 44.5513 16.1122 44.5512 15.1282C44.5511 14.0662 44.7551 13.1452 45.163 12.3651C45.5709 11.5791 46.1379 10.9701 46.8639 10.538C47.5898 10.106 48.4298 9.88988 49.3838 9.88981C50.3918 9.88973 51.2468 10.1267 51.9489 10.6006C52.6569 11.0685 53.182 11.7315 53.524 12.5895C53.8661 13.4474 53.9952 14.4584 53.9113 15.6224L51.7603 15.6226L51.7602 14.8306C51.7541 13.7746 51.5681 13.0036 51.202 12.5177C50.836 12.0317 50.26 11.7887 49.474 11.7888C48.586 11.7889 47.926 12.0649 47.494 12.617C47.0621 13.163 46.8461 13.964 46.8462 15.02C46.8463 16.004 47.0624 16.766 47.4944 17.306C47.9264 17.8459 48.5565 18.1159 49.3845 18.1158C49.9185 18.1158 50.3775 17.9987 50.7614 17.7647C51.1514 17.5247 51.4514 17.1796 51.6614 16.7296L53.8034 17.3775C53.4315 18.2535 52.8555 18.9345 52.0756 19.4206C51.3016 19.9067 50.4466 20.1497 49.5106 20.1498ZM46.1623 15.6231L46.1621 13.9851L52.8491 13.9845L52.8493 15.6225L46.1623 15.6231ZM58.462 20.1491C57.76 20.1491 57.166 20.0172 56.6799 19.7532C56.1939 19.4833 55.8249 19.1263 55.5729 18.6823C55.3268 18.2383 55.2038 17.7493 55.2037 17.2153C55.2037 16.7473 55.2817 16.3273 55.4376 15.9553C55.5936 15.5773 55.8336 15.2533 56.1576 14.9833C56.4815 14.7072 56.9015 14.4822 57.4175 14.3082C57.8075 14.1821 58.2635 14.0681 58.7855 13.966C59.3135 13.864 59.8835 13.771 60.4955 13.6869C61.1134 13.5969 61.7584 13.5008 62.4304 13.3988L61.6565 13.8398C61.6624 13.1678 61.5124 12.6728 61.2063 12.3549C60.9003 12.0369 60.3843 11.8779 59.6583 11.878C59.2203 11.878 58.7973 11.98 58.3893 12.1841C57.9814 12.3881 57.6964 12.7391 57.5344 13.2371L55.5544 12.6163C55.7943 11.7943 56.2503 11.1343 56.9222 10.6362C57.6002 10.1381 58.5122 9.88907 59.6582 9.88898C60.5222 9.88891 61.2812 10.0298 61.9352 10.3118C62.5952 10.5937 63.0842 11.0557 63.4023 11.6977C63.5763 12.0397 63.6814 12.3907 63.7174 12.7507C63.7534 13.1046 63.7714 13.4916 63.7715 13.9116L63.772 19.8786L61.873 19.8788L61.8728 17.7728L62.1878 18.1148C61.7499 18.8168 61.2369 19.3329 60.6489 19.6629C60.067 19.9869 59.338 20.149 58.462 20.1491ZM58.8938 18.421C59.3858 18.421 59.8058 18.334 60.1538 18.1599C60.5018 17.9859 60.7778 17.7729 60.9818 17.5209C61.1917 17.2689 61.3327 17.0318 61.4047 16.8098C61.5187 16.5338 61.5817 16.2188 61.5936 15.8648C61.6116 15.5048 61.6206 15.2138 61.6206 14.9918L62.2866 15.1898C61.6326 15.2918 61.0716 15.3819 60.6036 15.4599C60.1356 15.5379 59.7336 15.613 59.3976 15.685C59.0616 15.751 58.7646 15.8261 58.5066 15.9101C58.2546 16.0001 58.0417 16.1051 57.8677 16.2251C57.6937 16.3451 57.5587 16.4831 57.4627 16.6392C57.3727 16.7952 57.3277 16.9782 57.3277 17.1882C57.3278 17.4282 57.3878 17.6412 57.5078 17.8272C57.6278 18.0071 57.8018 18.1511 58.0298 18.2591C58.2638 18.3671 58.5518 18.4211 58.8938 18.421ZM66.1151 19.8785L66.1143 10.1585L68.0313 10.1583L68.0315 12.5253L67.7974 12.2193C67.9174 11.8953 68.0764 11.6013 68.2744 11.3373C68.4783 11.0673 68.7213 10.8452 69.0033 10.6712C69.2433 10.5092 69.5073 10.3832 69.7953 10.2932C70.0893 10.1971 70.3893 10.1401 70.6953 10.1221C71.0013 10.0981 71.2983 10.11 71.5863 10.158L71.5864 12.183C71.2984 12.099 70.9654 12.0721 70.5874 12.1021C70.2154 12.1321 69.8794 12.2372 69.5794 12.4172C69.2795 12.5792 69.0335 12.7862 68.8415 13.0382C68.6555 13.2903 68.5175 13.5783 68.4276 13.9023C68.3376 14.2203 68.2926 14.5653 68.2927 14.9373L68.2931 19.8783L66.1151 19.8785ZM77.3497 20.1476C76.3477 20.1476 75.4927 19.9257 74.7847 19.4818C74.0767 19.0318 73.5336 18.4199 73.1555 17.6459C72.7835 16.8719 72.5944 15.9959 72.5883 15.0179C72.5942 14.0219 72.7892 13.1399 73.1731 12.3719C73.5631 11.5979 74.115 10.9918 74.829 10.5538C75.5429 10.1097 76.3919 9.88763 77.3759 9.88755C78.4799 9.88746 79.4129 10.1664 80.175 10.7243C80.943 11.2763 81.4441 12.0322 81.6782 12.9922L79.5182 13.5774C79.3502 13.0554 79.0711 12.6504 78.6811 12.3624C78.2911 12.0685 77.8471 11.9215 77.3491 11.9216C76.7851 11.9216 76.3201 12.0566 75.9541 12.3267C75.5881 12.5907 75.3182 12.9567 75.1442 13.4247C74.9702 13.8927 74.8833 14.4237 74.8833 15.0178C74.8834 15.9418 75.0905 16.6887 75.5045 17.2587C75.9186 17.8287 76.5336 18.1136 77.3496 18.1136C77.9256 18.1135 78.3786 17.9815 78.7085 17.7174C79.0445 17.4534 79.2965 17.0724 79.4645 16.5744L81.6785 17.0692C81.3786 18.0592 80.8536 18.8213 80.1037 19.3553C79.3537 19.8834 78.4357 20.1475 77.3497 20.1476ZM90.2052 19.8765L90.2049 15.1965C90.2048 14.8905 90.1838 14.5515 90.1418 14.1795C90.0997 13.8075 90.0007 13.4505 89.8447 13.1085C89.6947 12.7606 89.4666 12.4756 89.1606 12.2536C88.8606 12.0316 88.4526 11.9207 87.9366 11.9207C87.6606 11.9207 87.3876 11.9657 87.1176 12.0558C86.8476 12.1458 86.6016 12.3018 86.3796 12.5238C86.1637 12.7398 85.9897 13.0399 85.8577 13.4239C85.7257 13.8019 85.6598 14.2879 85.6598 14.8819L84.3728 14.333C84.3727 13.505 84.5317 12.755 84.8496 12.0829C85.1736 11.4109 85.6475 10.8769 86.2715 10.4808C86.8954 10.0788 87.6634 9.87772 88.5754 9.87765C89.2954 9.87759 89.8894 9.99754 90.3575 10.2375C90.8255 10.4775 91.1975 10.7834 91.4735 11.1554C91.7496 11.5274 91.9536 11.9234 92.0856 12.3434C92.2177 12.7634 92.3017 13.1623 92.3377 13.5403C92.3798 13.9123 92.4008 14.2153 92.4008 14.4493L92.4012 19.8763L90.2052 19.8765ZM83.4642 19.8771L83.4632 6.91706L85.3982 6.9169L85.3987 13.7389L85.6597 13.7389L85.6602 19.8769L83.4642 19.8771Z" fill="#1A1A1A"/>
</svg>
