<svg width="20" height="20" viewBox="0 0 20 20" fill="none" xmlns="http://www.w3.org/2000/svg">
<path d="M19.7548 3.22926L17.0331 5.95057L18.9283 7.84544C19.0439 7.96103 19.1225 8.10829 19.1545 8.26859C19.1864 8.42891 19.17 8.59507 19.1074 8.74608C19.0448 8.89709 18.9389 9.02615 18.803 9.11697C18.667 9.20778 18.5073 9.25626 18.3438 9.25628H13.3844C13.1652 9.25627 12.955 9.1692 12.7999 9.01422C12.6449 8.85923 12.5579 8.64903 12.5579 8.42985V3.47127C12.5579 3.30782 12.6064 3.14805 12.6972 3.01215C12.788 2.87625 12.9171 2.77033 13.0681 2.70778C13.2191 2.64523 13.3854 2.62886 13.5457 2.66073C13.7061 2.69261 13.8534 2.7713 13.9689 2.88686L15.8641 4.78173L18.5858 2.06043C18.6626 1.98368 18.7537 1.92281 18.854 1.88127C18.9543 1.83974 19.0618 1.81836 19.1703 1.81836C19.2789 1.81836 19.3863 1.83974 19.4867 1.88127C19.587 1.92281 19.6781 1.98368 19.7548 2.06043C19.8316 2.13718 19.8925 2.22829 19.9341 2.32856C19.9756 2.42884 19.9969 2.53631 19.9969 2.64484C19.9969 2.75338 19.9756 2.86085 19.9341 2.96113C19.8925 3.0614 19.8316 3.15252 19.7548 3.22926ZM8.42505 12.562H3.46568C3.3022 12.562 3.14241 12.6105 3.00648 12.7013C2.87056 12.7921 2.76462 12.9212 2.70206 13.0722C2.6395 13.2232 2.62313 13.3894 2.65501 13.5497C2.68689 13.71 2.76559 13.8573 2.88117 13.9728L4.77635 15.8677L2.05461 18.589C1.97785 18.6658 1.91696 18.7569 1.87542 18.8572C1.83388 18.9574 1.8125 19.0649 1.8125 19.1734C1.8125 19.2819 1.83388 19.3894 1.87542 19.4898C1.91696 19.59 1.97785 19.6811 2.05461 19.7578C2.20963 19.9128 2.41988 19.9999 2.63912 19.9999C2.74767 19.9999 2.85516 19.9786 2.95545 19.937C3.05574 19.8955 3.14687 19.8346 3.22363 19.7578L5.94537 17.0366L7.84054 18.9314C7.95615 19.047 8.10343 19.1256 8.26376 19.1576C8.42411 19.1894 8.5903 19.1731 8.74132 19.1105C8.89236 19.048 9.02144 18.942 9.11227 18.8061C9.2031 18.6702 9.25159 18.5105 9.25161 18.3471V13.3884C9.2516 13.1693 9.16451 12.9591 9.00951 12.804C8.8545 12.6491 8.64426 12.562 8.42505 12.562Z" fill="#636363"/>
</svg>
