<svg width="30" height="30" viewBox="0 0 30 30" fill="none" xmlns="http://www.w3.org/2000/svg">
<path d="M15.9353 12.0138L16.931 12.0147V12.0139L15.9353 12.0138ZM24.8817 10.0223L23.9692 10.4472C24.1276 10.8341 24.4859 11.0842 24.8817 11.0842V10.0223ZM29.004 10.0223L29.7081 10.7732C29.9929 10.4695 30.0781 10.0127 29.9239 9.61593C29.7698 9.2191 29.4068 8.96037 29.004 8.96036V10.0223ZM25.2395 14.0373L24.5354 13.2864C24.3644 13.4687 24.2615 13.7113 24.2459 13.9687L25.2395 14.0373ZM10.3344 28.9382V30.0002H10.3344L10.3344 28.9382ZM5.66697 27.4449L5.31735 26.4505C5.03283 26.5644 4.81261 26.8104 4.71933 27.1189C4.62605 27.4273 4.66993 27.7643 4.83849 28.034L5.66697 27.4449ZM11.2679 22.9648L12.0964 23.5538C12.2548 23.3004 12.3035 22.9867 12.2302 22.6922C12.1569 22.3978 11.9686 22.1512 11.7132 22.015L11.2679 22.9648ZM5.66697 8.03116L6.37104 7.28025C6.10917 7.00095 5.72359 6.89974 5.37008 7.01752C5.01658 7.13529 4.75357 7.45258 4.68732 7.84119L5.66697 8.03116ZM15.9337 14.0046L15.77 15.0521C16.0585 15.1034 16.3537 15.0168 16.5769 14.8152C16.8002 14.6136 16.9292 14.3175 16.9294 14.0055L15.9337 14.0046ZM16.931 12.0139C16.9311 11.1142 17.2216 10.2419 17.7537 9.54367L16.2085 8.20395C15.3878 9.28074 14.9397 10.626 14.9396 12.0137L16.931 12.0139ZM17.7537 9.54367C18.2859 8.84549 19.0272 8.364 19.8531 8.18017L19.4462 6.10107C18.1725 6.38461 17.0292 7.12718 16.2085 8.20395L17.7537 9.54367ZM19.8531 8.18017C20.6789 7.99632 21.5389 8.12134 22.2886 8.53419L23.2023 6.64707C22.0463 6.01035 20.7199 5.81755 19.4462 6.10107L19.8531 8.18017ZM22.2886 8.53419C23.0382 8.94704 23.6316 9.62256 23.9692 10.4472L25.7942 9.59737C25.2737 8.32561 24.3584 7.2838 23.2023 6.64707L22.2886 8.53419ZM24.8817 11.0842L29.004 11.0843V8.96036L24.8817 8.96032V11.0842ZM28.2999 9.2714L24.5354 13.2864L25.9436 14.7882L29.7081 10.7732L28.2999 9.2714ZM24.2459 13.9687C24.0171 17.7378 22.4519 21.2727 19.8681 23.8556L21.2301 25.4052C24.1829 22.4532 25.9717 18.4134 26.2331 14.1059L24.2459 13.9687ZM19.8681 23.8556C17.2843 26.4387 13.8758 27.8762 10.3344 27.8763L10.3344 30.0002C14.3817 30.0001 18.2773 28.3572 21.2301 25.4052L19.8681 23.8556ZM10.3344 27.8763C8.59248 27.8763 7.58342 27.5284 7.04575 27.2418C6.77594 27.0979 6.61681 26.9652 6.53727 26.8889C6.49714 26.8503 6.47602 26.825 6.47038 26.8179C6.46753 26.8143 6.46848 26.8154 6.47282 26.8215C6.47498 26.8245 6.47798 26.8289 6.48178 26.8345C6.48367 26.8374 6.48576 26.8406 6.48804 26.8442C6.48919 26.8459 6.49037 26.8478 6.49161 26.8497C6.49223 26.8507 6.49286 26.8517 6.4935 26.8527C6.49382 26.8532 6.4943 26.854 6.49446 26.8543C6.49496 26.855 6.49546 26.8559 5.66697 27.4449C4.83849 28.034 4.83899 28.0347 4.83949 28.0356C4.83967 28.0358 4.84018 28.0366 4.84053 28.0372C4.84123 28.0383 4.84194 28.0394 4.84267 28.0406C4.84414 28.0429 4.84567 28.0452 4.84728 28.0478C4.85048 28.0528 4.85397 28.0581 4.85775 28.0637C4.8653 28.0751 4.874 28.0878 4.88392 28.1018C4.90375 28.1298 4.9284 28.1629 4.95837 28.2002C5.01836 28.2748 5.09934 28.3661 5.20507 28.4676C5.41725 28.6713 5.72485 28.9119 6.15515 29.1414C7.01771 29.6013 8.34236 30.0002 10.3344 30.0002V27.8763ZM5.66697 27.4449C6.01659 28.4392 6.01683 28.4391 6.01708 28.439C6.01718 28.439 6.01745 28.4389 6.01766 28.4388C6.01807 28.4386 6.01855 28.4384 6.01907 28.4382C6.02013 28.4377 6.02142 28.4373 6.02293 28.4367C6.02595 28.4354 6.02988 28.4338 6.03468 28.4319C6.04429 28.428 6.05743 28.4226 6.07391 28.4155C6.10689 28.4017 6.1533 28.382 6.21177 28.3562C6.32866 28.3046 6.49406 28.2289 6.69683 28.129C7.1016 27.9298 7.65944 27.6324 8.2796 27.2355C9.50379 26.4521 11.0458 25.2345 12.0964 23.5538L10.4394 22.3757C9.62294 23.6818 8.36452 24.7043 7.25502 25.4143C6.70831 25.7641 6.21599 26.0266 5.86231 26.2006C5.68585 26.2875 5.54496 26.3519 5.45035 26.3936C5.40307 26.4145 5.36744 26.4297 5.3448 26.4392C5.33349 26.4439 5.32543 26.4472 5.3208 26.4491C5.31848 26.4501 5.31702 26.4506 5.31644 26.4509C5.31615 26.451 5.31608 26.451 5.31623 26.4509C5.3163 26.4509 5.31643 26.4509 5.31662 26.4508C5.31672 26.4508 5.3169 26.4507 5.31694 26.4507C5.31714 26.4506 5.31735 26.4505 5.66697 27.4449ZM11.2679 22.9648C11.7132 22.015 11.7137 22.0152 11.7141 22.0155C11.7142 22.0155 11.7147 22.0157 11.7149 22.0159C11.7154 22.0161 11.7158 22.0164 11.716 22.0165C11.7165 22.0168 11.7166 22.0168 11.7162 22.0166C11.7155 22.0161 11.713 22.0149 11.7089 22.0125C11.7006 22.0079 11.6857 21.9995 11.6646 21.987C11.6224 21.9623 11.5558 21.922 11.4686 21.8653C11.2941 21.7519 11.0384 21.5741 10.7331 21.3263C10.1214 20.83 9.31848 20.0597 8.56891 18.9747C7.08789 16.8311 5.76518 13.3916 6.64663 8.22113L4.68732 7.84119C3.7018 13.6221 5.17953 17.6493 6.9657 20.2346C7.84973 21.5143 8.79707 22.424 9.52726 23.0166C9.89291 23.3133 10.2061 23.5321 10.4327 23.6793C10.546 23.7529 10.638 23.8088 10.7043 23.8477C10.7375 23.8672 10.7643 23.8824 10.7842 23.8936C10.7941 23.8991 10.8023 23.9037 10.8087 23.9072C10.8119 23.9089 10.8147 23.9103 10.817 23.9116C10.8182 23.9123 10.8192 23.9128 10.8201 23.9133C10.8206 23.9135 10.8212 23.9138 10.8214 23.9141C10.822 23.9144 10.8226 23.9146 11.2679 22.9648ZM5.66697 8.03116C4.96289 8.78207 4.96308 8.78227 4.96329 8.78249C4.96338 8.78259 4.96361 8.78283 4.9638 8.78303C4.96417 8.78343 4.96461 8.7839 4.96513 8.78445C4.96616 8.78554 4.96748 8.78694 4.96908 8.78864C4.97228 8.79203 4.97663 8.79661 4.98209 8.80234C4.99301 8.81381 5.00843 8.8299 5.02823 8.85034C5.06783 8.89121 5.12496 8.9495 5.19872 9.02299C5.34619 9.16992 5.56039 9.37792 5.834 9.6292C6.38059 10.1312 7.16768 10.8092 8.13645 11.5196C10.0596 12.9299 12.7661 14.518 15.77 15.0521L16.0975 12.9571C13.502 12.4956 11.0751 11.0971 9.26473 9.76949C8.36673 9.11098 7.63701 8.48226 7.13348 8.01981C6.88203 7.78887 6.68785 7.60018 6.5582 7.471C6.4934 7.40643 6.44479 7.3568 6.41327 7.32427C6.39752 7.30801 6.38605 7.29603 6.37897 7.2886C6.37543 7.28488 6.373 7.28231 6.37167 7.2809C6.371 7.2802 6.37062 7.2798 6.37052 7.27968C6.37047 7.27963 6.37049 7.27965 6.37057 7.27974C6.37062 7.27979 6.37074 7.27992 6.37075 7.27994C6.37089 7.28009 6.37104 7.28025 5.66697 8.03116ZM16.9294 14.0055L16.931 12.0147L14.9396 12.0129L14.938 14.0037L16.9294 14.0055Z" fill="#FD650B"/>
</svg>
