<svg width="30" height="30" viewBox="0 0 30 30" fill="none" xmlns="http://www.w3.org/2000/svg">
<path d="M15.9355 12.0138L16.9312 12.0147V12.0139L15.9355 12.0138ZM24.882 10.0223L23.9694 10.4472C24.1278 10.8341 24.4861 11.0842 24.882 11.0842V10.0223ZM29.0043 10.0223L29.7083 10.7732C29.9931 10.4695 30.0783 10.0127 29.9242 9.61593C29.7701 9.2191 29.407 8.96037 29.0043 8.96036V10.0223ZM25.2398 14.0373L24.5357 13.2864C24.3646 13.4687 24.2618 13.7113 24.2461 13.9687L25.2398 14.0373ZM10.3346 28.9382V30.0002H10.3346L10.3346 28.9382ZM5.66721 27.4449L5.3176 26.4505C5.03308 26.5644 4.81285 26.8104 4.71957 27.1189C4.6263 27.4273 4.67018 27.7643 4.83873 28.034L5.66721 27.4449ZM11.2681 22.9648L12.0966 23.5538C12.255 23.3004 12.3038 22.9867 12.2305 22.6922C12.1572 22.3978 11.9689 22.1512 11.7134 22.015L11.2681 22.9648ZM5.66721 8.03116L6.37129 7.28025C6.10941 7.00095 5.72383 6.89974 5.37032 7.01752C5.01682 7.13529 4.75381 7.45258 4.68756 7.84119L5.66721 8.03116ZM15.9339 14.0046L15.7702 15.0521C16.0588 15.1034 16.3539 15.0168 16.5771 14.8152C16.8005 14.6136 16.9294 14.3175 16.9296 14.0055L15.9339 14.0046ZM16.9312 12.0139C16.9313 11.1142 17.2219 10.2419 17.754 9.54367L16.2087 8.20395C15.3881 9.28074 14.9399 10.626 14.9398 12.0137L16.9312 12.0139ZM17.754 9.54367C18.2862 8.84549 19.0275 8.364 19.8533 8.18017L19.4465 6.10107C18.1728 6.38461 17.0295 7.12718 16.2087 8.20395L17.754 9.54367ZM19.8533 8.18017C20.6792 7.99632 21.5392 8.12134 22.2889 8.53419L23.2025 6.64707C22.0465 6.01035 20.7201 5.81755 19.4465 6.10107L19.8533 8.18017ZM22.2889 8.53419C23.0384 8.94704 23.6319 9.62256 23.9694 10.4472L25.7945 9.59737C25.2739 8.32561 24.3586 7.2838 23.2025 6.64707L22.2889 8.53419ZM24.882 11.0842L29.0043 11.0843V8.96036L24.882 8.96032V11.0842ZM28.3002 9.2714L24.5357 13.2864L25.9438 14.7882L29.7083 10.7732L28.3002 9.2714ZM24.2461 13.9687C24.0173 17.7378 22.4522 21.2727 19.8684 23.8556L21.2303 25.4052C24.1831 22.4532 25.9719 18.4134 26.2334 14.1059L24.2461 13.9687ZM19.8684 23.8556C17.2846 26.4387 13.876 27.8762 10.3346 27.8763L10.3346 30.0002C14.3819 30.0001 18.2775 28.3572 21.2303 25.4052L19.8684 23.8556ZM10.3346 27.8763C8.59273 27.8763 7.58366 27.5284 7.04599 27.2418C6.77619 27.0979 6.61705 26.9652 6.53751 26.8889C6.49739 26.8503 6.47627 26.825 6.47062 26.8179C6.46777 26.8143 6.46873 26.8154 6.47306 26.8215C6.47522 26.8245 6.47823 26.8289 6.48202 26.8345C6.48391 26.8374 6.486 26.8406 6.48828 26.8442C6.48943 26.8459 6.49061 26.8478 6.49185 26.8497C6.49248 26.8507 6.4931 26.8517 6.49374 26.8527C6.49406 26.8532 6.49455 26.854 6.49471 26.8543C6.4952 26.855 6.4957 26.8559 5.66721 27.4449C4.83873 28.034 4.83923 28.0347 4.83974 28.0356C4.83991 28.0358 4.84042 28.0366 4.84077 28.0372C4.84147 28.0383 4.84219 28.0394 4.84292 28.0406C4.84438 28.0429 4.84592 28.0452 4.84752 28.0478C4.85073 28.0528 4.85422 28.0581 4.85799 28.0637C4.86555 28.0751 4.87425 28.0878 4.88416 28.1018C4.90399 28.1298 4.92865 28.1629 4.95861 28.2002C5.01861 28.2748 5.09959 28.3661 5.20532 28.4676C5.41749 28.6713 5.72509 28.9119 6.1554 29.1414C7.01795 29.6013 8.3426 30.0002 10.3346 30.0002V27.8763ZM5.66721 27.4449C6.01683 28.4392 6.01707 28.4391 6.01733 28.439C6.01743 28.439 6.0177 28.4389 6.0179 28.4388C6.01832 28.4386 6.01879 28.4384 6.01932 28.4382C6.02038 28.4377 6.02166 28.4373 6.02317 28.4367C6.0262 28.4354 6.03012 28.4338 6.03492 28.4319C6.04453 28.428 6.05767 28.4226 6.07416 28.4155C6.10713 28.4017 6.15355 28.382 6.21202 28.3562C6.3289 28.3046 6.49431 28.2289 6.69708 28.129C7.10184 27.9298 7.65968 27.6324 8.27984 27.2355C9.50404 26.4521 11.0461 25.2345 12.0966 23.5538L10.4396 22.3757C9.62318 23.6818 8.36477 24.7043 7.25526 25.4143C6.70856 25.7641 6.21623 26.0266 5.86255 26.2006C5.68609 26.2875 5.5452 26.3519 5.45059 26.3936C5.40331 26.4145 5.36768 26.4297 5.34505 26.4392C5.33373 26.4439 5.32567 26.4472 5.32104 26.4491C5.31872 26.4501 5.31726 26.4506 5.31668 26.4509C5.31639 26.451 5.31632 26.451 5.31647 26.4509C5.31655 26.4509 5.31668 26.4509 5.31687 26.4508C5.31696 26.4508 5.31714 26.4507 5.31719 26.4507C5.31738 26.4506 5.3176 26.4505 5.66721 27.4449ZM11.2681 22.9648C11.7134 22.015 11.7139 22.0152 11.7144 22.0155C11.7145 22.0155 11.7149 22.0157 11.7152 22.0159C11.7156 22.0161 11.716 22.0164 11.7162 22.0165C11.7167 22.0168 11.7168 22.0168 11.7164 22.0166C11.7157 22.0161 11.7132 22.0149 11.7091 22.0125C11.7008 22.0079 11.6859 21.9995 11.6648 21.987C11.6227 21.9623 11.556 21.922 11.4688 21.8653C11.2943 21.7519 11.0387 21.5741 10.7334 21.3263C10.1217 20.83 9.31872 20.0597 8.56916 18.9747C7.08813 16.8311 5.76542 13.3916 6.64687 8.22113L4.68756 7.84119C3.70205 13.6221 5.17978 17.6493 6.96595 20.2346C7.84997 21.5143 8.79732 22.424 9.5275 23.0166C9.89315 23.3133 10.2063 23.5321 10.4329 23.6793C10.5463 23.7529 10.6382 23.8088 10.7046 23.8477C10.7377 23.8672 10.7645 23.8824 10.7844 23.8936C10.7943 23.8991 10.8025 23.9037 10.809 23.9072C10.8122 23.9089 10.8149 23.9103 10.8173 23.9116C10.8184 23.9123 10.8195 23.9128 10.8204 23.9133C10.8208 23.9135 10.8214 23.9138 10.8217 23.9141C10.8223 23.9144 10.8228 23.9146 11.2681 22.9648ZM5.66721 8.03116C4.96314 8.78207 4.96333 8.78227 4.96353 8.78249C4.96363 8.78259 4.96385 8.78283 4.96404 8.78303C4.96441 8.78343 4.96486 8.7839 4.96537 8.78445C4.96641 8.78554 4.96772 8.78694 4.96932 8.78864C4.97253 8.79203 4.97687 8.79661 4.98233 8.80234C4.99326 8.81381 5.00868 8.8299 5.02848 8.85034C5.06807 8.89121 5.1252 8.9495 5.19896 9.02299C5.34643 9.16992 5.56063 9.37792 5.83424 9.6292C6.38084 10.1312 7.16792 10.8092 8.13669 11.5196C10.0598 12.9299 12.7663 14.518 15.7702 15.0521L16.0977 12.9571C13.5022 12.4956 11.0754 11.0971 9.26497 9.76949C8.36698 9.11098 7.63725 8.48226 7.13373 8.01981C6.88228 7.78887 6.68809 7.60018 6.55844 7.471C6.49364 7.40643 6.44503 7.3568 6.41352 7.32427C6.39776 7.30801 6.38629 7.29603 6.37921 7.2886C6.37568 7.28488 6.37324 7.28231 6.37192 7.2809C6.37125 7.2802 6.37086 7.2798 6.37076 7.27968C6.37071 7.27963 6.37073 7.27965 6.37081 7.27974C6.37086 7.27979 6.37098 7.27992 6.371 7.27994C6.37114 7.28009 6.37129 7.28025 5.66721 8.03116ZM16.9296 14.0055L16.9312 12.0147L14.9398 12.0129L14.9382 14.0037L16.9296 14.0055Z" fill="#FD650B"/>
</svg>
