<svg width="24" height="24" viewBox="0 0 24 24" fill="none" xmlns="http://www.w3.org/2000/svg">
<path d="M18 10C18 12.7614 15.7614 15 13 15V17C16.866 17 20 13.866 20 10H18ZM13 15C10.2386 15 8 12.7614 8 10H6C6 13.866 9.13401 17 13 17V15ZM8 10C8 7.23858 10.2386 5 13 5V3C9.13401 3 6 6.13401 6 10H8ZM13 5C15.7614 5 18 7.23858 18 10H20C20 6.13401 16.866 3 13 3V5Z" fill="#6E6E6E"/>
<path d="M3.04035 20.7501C2.76425 21.2284 2.92818 21.84 3.4065 22.1161C3.88481 22.3922 4.49639 22.2282 4.77249 21.7499L3.04035 20.7501ZM21.2278 21.7499C21.5039 22.2282 22.1155 22.3922 22.5938 22.1161C23.0721 21.84 23.2361 21.2284 22.96 20.7501L21.2278 21.7499ZM4.77249 21.7499C5.60623 20.3055 6.80552 19.1061 8.24979 18.2721L7.24971 16.5401C5.50138 17.5496 4.04961 19.0016 3.04035 20.7501L4.77249 21.7499ZM8.24979 18.2721C9.69406 17.4382 11.3324 16.9991 13.0002 16.9991V14.9991C10.9813 14.9991 8.99804 15.5306 7.24971 16.5401L8.24979 18.2721ZM13.0002 16.9991C14.6679 16.9991 16.3063 17.4382 17.7505 18.2721L18.7506 16.5401C17.0023 15.5306 15.019 14.9991 13.0002 14.9991V16.9991ZM17.7505 18.2721C19.1948 19.1061 20.3941 20.3055 21.2278 21.7499L22.96 20.7501C21.9507 19.0016 20.4989 17.5496 18.7506 16.5401L17.7505 18.2721Z" fill="#6E6E6E"/>
</svg>
