<svg width="31" height="30" viewBox="0 0 31 30" fill="none" xmlns="http://www.w3.org/2000/svg">
<path d="M6.92683 13.7931C6.67372 13.7931 6.40729 13.6876 6.22079 13.503C5.94104 13.2129 5.84779 12.7909 6.00765 12.4217L8.48544 6.56689C8.53873 6.44821 8.56537 6.36909 8.60534 6.30316C10.5769 1.80651 13.0947 0.712024 17.5441 2.39991C17.7972 2.49222 17.997 2.69002 18.1036 2.94057C18.2102 3.19112 18.2102 3.46803 18.1036 3.71858L14.2004 12.6854C14.0405 13.0547 13.6808 13.2788 13.2812 13.2788H9.48455C8.72523 13.2788 8.00587 13.4239 7.31315 13.714C7.19326 13.7667 7.06004 13.7931 6.92683 13.7931ZM14.1338 3.62627C12.4819 3.62627 11.4695 4.69439 10.4171 7.12073C10.4037 7.16029 10.3771 7.19985 10.3638 7.23941L8.61866 11.3405C8.91173 11.3141 9.19148 11.3009 9.48455 11.3009H12.6151L15.8256 3.91638C15.1995 3.71858 14.64 3.62627 14.1338 3.62627Z" fill="#FD650B"/>
<path d="M24.3632 13.5427C24.27 13.5427 24.1634 13.5295 24.0701 13.5031C23.5639 13.3581 23.0311 13.279 22.4716 13.279H13.2797C12.9467 13.279 12.627 13.1075 12.4405 12.8306C12.2673 12.5537 12.2273 12.1976 12.3605 11.8943L16.2238 3.01973C16.4236 2.54501 17.0098 2.21535 17.5026 2.38677C17.6625 2.43952 17.809 2.50545 17.9689 2.57138L21.1128 3.87686C22.9511 4.6285 24.1767 5.4197 24.976 6.36914C25.1358 6.55375 25.2691 6.75155 25.4023 6.96253C25.5488 7.18671 25.682 7.45044 25.7753 7.72736C25.8152 7.81967 25.8819 7.99109 25.9218 8.1757C26.2948 9.42843 26.1083 10.9581 25.309 12.9361C25.1358 13.3053 24.7628 13.5427 24.3632 13.5427ZM14.7984 11.3009H22.4849C22.9112 11.3009 23.3241 11.3405 23.7371 11.4064C24.1101 10.2592 24.19 9.37569 23.9769 8.66361C23.9502 8.54493 23.9236 8.49218 23.9103 8.43944C23.8303 8.22845 23.7771 8.10977 23.7105 8.00428C23.6172 7.85923 23.5506 7.74055 23.444 7.62187C22.8712 6.93616 21.8588 6.3032 20.3401 5.68343L17.7158 4.60213L14.7984 11.3009Z" fill="#FD650B"/>
<path d="M21.1829 29.9999H10.7922C10.4192 29.9999 10.0728 29.9735 9.72647 29.934C5.05062 29.6307 2.38632 26.9802 2.06661 22.2989C2.02664 22.0088 2 21.6528 2 21.2967V18.7253C2 15.7584 3.78508 13.0815 6.54263 11.8947C7.48845 11.4991 8.47425 11.3013 9.5 11.3013H22.5018C23.2611 11.3013 23.9938 11.4068 24.6732 11.6177C27.8037 12.554 30.0018 15.4814 30.0018 18.7253V21.2967C30.0018 21.5868 29.9885 21.8638 29.9751 22.1275C29.6821 27.2835 26.6448 29.9999 21.1829 29.9999ZM9.48668 13.2793C8.72735 13.2793 8.00799 13.4243 7.31528 13.7144C5.29041 14.5847 3.9849 16.5495 3.9849 18.7253V21.2967C3.9849 21.5737 4.01155 21.8506 4.03819 22.1143C4.2913 25.8725 6.15631 27.7186 9.89964 27.9692C10.2327 28.0087 10.4991 28.0351 10.7789 28.0351H21.1696C25.5657 28.0351 27.7238 26.123 27.9369 22.0352C27.9503 21.7978 27.9636 21.5605 27.9636 21.2967V18.7253C27.9636 16.3386 26.3517 14.2023 24.0604 13.5034C23.5542 13.3584 23.0213 13.2793 22.4618 13.2793H9.48668Z" fill="#FD650B"/>
<path d="M2.98349 19.7142C2.43731 19.7142 1.98438 19.2658 1.98438 18.7252V14.8615C1.98438 10.7077 4.95507 7.12092 9.05809 6.32972C9.41777 6.26379 9.79077 6.39566 10.0306 6.67258C10.257 6.9495 10.3236 7.34509 10.1771 7.67476L7.84583 13.1868C7.73926 13.4241 7.55276 13.6087 7.32629 13.7142C5.30143 14.5846 3.99592 16.5494 3.99592 18.7252C3.9826 19.2658 3.54299 19.7142 2.98349 19.7142ZM7.45951 8.99342C5.75436 9.94286 4.51546 11.6044 4.12914 13.5428C4.71528 12.9494 5.39468 12.4483 6.16732 12.0791L7.45951 8.99342Z" fill="#FD650B"/>
<path d="M28.9812 19.7135C28.435 19.7135 27.9821 19.2651 27.9821 18.7245C27.9821 16.3377 26.3702 14.2015 24.0789 13.5026C23.8125 13.4235 23.586 13.2389 23.4661 12.9883C23.3462 12.7378 23.3329 12.4477 23.4395 12.1971C24.0656 10.6543 24.2254 9.53342 23.9723 8.6631C23.9457 8.54443 23.919 8.49167 23.9057 8.43893C23.7325 8.05652 23.8258 7.60817 24.1322 7.31807C24.4386 7.02796 24.9048 6.96203 25.2778 7.15983C28.1819 8.6631 29.9803 11.6169 29.9803 14.8608V18.7245C29.9803 19.2651 29.5274 19.7135 28.9812 19.7135ZM25.6375 11.9861C26.4768 12.3685 27.2228 12.9092 27.8489 13.5553C27.5958 12.2631 26.9696 11.0894 26.0505 10.1664C25.9839 10.7202 25.8506 11.3268 25.6375 11.9861Z" fill="#FD650B"/>
</svg>
