<svg width="30" height="30" viewBox="0 0 30 30" fill="none" xmlns="http://www.w3.org/2000/svg">
<path d="M20.2997 18.232L20.8698 19.1801C21.1557 18.9687 21.3275 18.613 21.3275 18.232C21.3275 17.851 21.1557 17.4952 20.8698 17.2838L20.2997 18.232ZM14.5181 13.9588L15.0882 13.0107C14.7728 12.7776 14.3673 12.7559 14.0331 12.9542C13.6989 13.1525 13.4902 13.5386 13.4902 13.9588H14.5181ZM14.5181 22.5051H13.4902C13.4902 22.9253 13.6989 23.3115 14.0331 23.5098C14.3673 23.7081 14.7728 23.6863 15.0882 23.4532L14.5181 22.5051ZM20.8698 17.2838L15.0882 13.0107L13.9479 14.907L19.7295 19.1801L20.8698 17.2838ZM13.4902 13.9588V22.5051H15.5459V13.9588H13.4902ZM15.0882 23.4532L20.8698 19.1801L19.7295 17.2838L13.9479 21.557L15.0882 23.4532Z" fill="#FD650B"/>
<path d="M4.57023 25.7348L5.56623 25.4533L5.56488 25.4476L4.57023 25.7348ZM5.7305 27.1896L5.35655 28.251L5.3618 28.2533L5.7305 27.1896ZM16.4452 28.8603L16.4518 27.7207L16.4387 27.7208L16.4452 28.8603ZM27.1599 27.1896L27.5286 28.2533L27.5338 28.251L27.1599 27.1896ZM28.3202 25.7349L27.3255 25.4476L27.3243 25.4533L28.3202 25.7349ZM28.3202 10.729L27.3243 11.0105L27.3256 11.0162L28.3202 10.729ZM27.1599 9.27422L27.5339 8.2128L27.5287 8.21056L27.1599 9.27422ZM16.4452 7.6035L16.4387 8.74306L16.4518 8.74297L16.4452 7.6035ZM5.73053 9.27421L5.36183 8.21052L5.35659 8.21279L5.73053 9.27421ZM4.57025 10.729L5.56491 11.0162L5.56624 11.0105L4.57025 10.729ZM2.89062 18.2319C2.89062 22.2819 3.26786 24.7122 3.57557 26.022L5.56488 25.4476C5.30963 24.3611 4.9463 22.1288 4.9463 18.2319H2.89062ZM3.57424 26.0162C3.68982 26.519 3.91178 26.9839 4.22173 27.3725L5.76174 25.8629C5.66814 25.7455 5.60111 25.6051 5.56621 25.4533L3.57424 26.0162ZM4.22173 27.3725C4.53168 27.7611 4.9207 28.0623 5.35655 28.251L6.10444 26.1282C5.97282 26.0712 5.85534 25.9802 5.76174 25.8629L4.22173 27.3725ZM5.3618 28.2533C7.52019 29.1728 10.3199 29.6 12.5138 29.8046C13.6238 29.9082 14.6044 29.957 15.3079 29.9799C15.6601 29.9913 15.9435 29.9963 16.1402 29.9984C16.2385 29.9995 16.3151 29.9998 16.3678 29.9999C16.3941 29.9999 16.4145 29.9999 16.4286 29.9999C16.4357 29.9999 16.4411 29.9998 16.445 29.9998C16.447 29.9998 16.4485 29.9998 16.4496 29.9998C16.4502 29.9998 16.4507 29.9998 16.451 29.9998C16.4512 29.9998 16.4514 29.9998 16.4515 29.9998C16.4516 29.9998 16.4518 29.9998 16.4452 28.8603C16.4387 27.7208 16.4388 27.7208 16.4389 27.7208C16.4389 27.7208 16.4387 27.7208 16.4384 27.7208C16.4379 27.7208 16.437 27.7208 16.4358 27.7208C16.4332 27.7209 16.429 27.7209 16.4232 27.7209C16.4118 27.7209 16.3941 27.7209 16.3706 27.7209C16.3234 27.7208 16.2525 27.7206 16.1603 27.7196C15.9757 27.7175 15.7056 27.7128 15.3683 27.7018C14.6929 27.6799 13.7507 27.6331 12.6862 27.5337C10.5308 27.3326 7.97308 26.9243 6.09919 26.126L5.3618 28.2533ZM16.4452 28.8603C16.4387 29.9998 16.4389 29.9998 16.439 29.9998C16.4391 29.9998 16.4393 29.9998 16.4395 29.9998C16.4398 29.9998 16.4403 29.9998 16.4408 29.9998C16.4419 29.9998 16.4435 29.9998 16.4454 29.9998C16.4493 29.9998 16.4548 29.9999 16.4619 29.9999C16.476 29.9999 16.4963 29.9999 16.5226 29.9999C16.5754 29.9998 16.6519 29.9995 16.7503 29.9984C16.9469 29.9963 17.2304 29.9913 17.5825 29.9799C18.2861 29.957 19.2665 29.9082 20.3767 29.8046C22.5705 29.6 25.3702 29.1728 27.5286 28.2533L26.7912 26.126C24.9173 26.9243 22.3596 27.3326 20.2042 27.5337C19.1397 27.6331 18.1976 27.6799 17.5222 27.7018C17.1849 27.7128 16.9147 27.7175 16.7301 27.7196C16.6379 27.7206 16.567 27.7208 16.5199 27.7209C16.4963 27.7209 16.4786 27.7209 16.4672 27.7209C16.4615 27.7209 16.4573 27.7209 16.4547 27.7208C16.4535 27.7208 16.4525 27.7208 16.452 27.7208C16.4518 27.7208 16.4516 27.7208 16.4516 27.7208C16.4517 27.7208 16.4518 27.7208 16.4452 28.8603ZM27.5338 28.251C27.9698 28.0623 28.3587 27.7611 28.6687 27.3726L27.1287 25.8629C27.035 25.9802 26.9177 26.0712 26.786 26.1282L27.5338 28.251ZM28.6687 27.3726C28.9787 26.9839 29.2006 26.519 29.3162 26.0163L27.3243 25.4533C27.2893 25.6051 27.2223 25.7456 27.1287 25.8629L28.6687 27.3726ZM29.3149 26.022C29.6226 24.7122 29.9998 22.2819 29.9998 18.2319H27.9442C27.9442 22.1288 27.5808 24.3611 27.3255 25.4476L29.3149 26.022ZM29.9998 18.2319C29.9998 14.182 29.6226 11.7516 29.3149 10.4418L27.3256 11.0162C27.5808 12.1027 27.9442 14.335 27.9442 18.2319H29.9998ZM29.3162 10.4475C29.2006 9.94486 28.9787 9.47995 28.6687 9.09132L27.1287 10.6009C27.2223 10.7183 27.2893 10.8587 27.3243 11.0105L29.3162 10.4475ZM28.6687 9.09132C28.3588 8.70269 27.9698 8.40154 27.5339 8.21281L26.786 10.3356C26.9177 10.3926 27.0351 10.4836 27.1287 10.6009L28.6687 9.09132ZM27.5287 8.21056C25.3702 7.29101 22.5706 6.8639 20.3767 6.65916C19.2666 6.55557 18.2861 6.50684 17.5825 6.48396C17.2304 6.47251 16.9469 6.46751 16.7503 6.46538C16.6519 6.46431 16.5754 6.46397 16.5226 6.46389C16.4963 6.46385 16.476 6.46388 16.4619 6.46392C16.4548 6.46394 16.4493 6.46396 16.4454 6.46398C16.4435 6.46399 16.4419 6.464 16.4408 6.46401C16.4403 6.46401 16.4398 6.46401 16.4395 6.46401C16.4393 6.46402 16.4391 6.46402 16.439 6.46402C16.4389 6.46402 16.4387 6.46402 16.4452 7.6035C16.4518 8.74297 16.4517 8.74297 16.4516 8.74297C16.4516 8.74297 16.4518 8.74297 16.452 8.74297C16.4525 8.74297 16.4535 8.74296 16.4547 8.74296C16.4573 8.74295 16.4615 8.74293 16.4672 8.74292C16.4786 8.74288 16.4963 8.74285 16.5199 8.74288C16.567 8.74296 16.6379 8.74327 16.7301 8.74427C16.9147 8.74628 17.1849 8.75101 17.5222 8.76198C18.1976 8.78394 19.1397 8.83078 20.2042 8.93014C22.3597 9.13128 24.9174 9.53954 26.7912 10.3379L27.5287 8.21056ZM16.4452 7.6035C16.4518 6.46402 16.4516 6.46402 16.4515 6.46402C16.4514 6.46402 16.4512 6.46402 16.451 6.46401C16.4507 6.46401 16.4502 6.46401 16.4496 6.46401C16.4485 6.464 16.447 6.46399 16.445 6.46398C16.4411 6.46396 16.4357 6.46394 16.4286 6.46392C16.4145 6.46388 16.3941 6.46385 16.3678 6.46389C16.3151 6.46397 16.2385 6.46431 16.1402 6.46538C15.9435 6.46751 15.6601 6.47251 15.3079 6.48396C14.6044 6.50684 13.6239 6.55557 12.5138 6.65916C10.3199 6.8639 7.52025 7.291 5.36184 8.21054L6.09922 10.3379C7.97314 9.53953 10.5308 9.13128 12.6862 8.93014C13.7508 8.83078 14.6929 8.78394 15.3683 8.76198C15.7056 8.75101 15.9757 8.74628 16.1603 8.74427C16.2525 8.74327 16.3234 8.74296 16.3706 8.74288C16.3941 8.74285 16.4118 8.74288 16.4232 8.74292C16.429 8.74293 16.4332 8.74295 16.4358 8.74296C16.437 8.74296 16.4379 8.74297 16.4384 8.74297C16.4387 8.74297 16.4389 8.74297 16.4389 8.74297C16.4388 8.74297 16.4387 8.74297 16.4452 7.6035ZM5.35659 8.21279C4.92074 8.40152 4.53172 8.70267 4.22177 9.0913L5.76178 10.6009C5.85537 10.4836 5.97284 10.3926 6.10447 10.3356L5.35659 8.21279ZM4.22177 9.0913C3.91182 9.47991 3.68985 9.94483 3.57427 10.4475L5.56624 11.0105C5.60114 10.8587 5.66817 10.7183 5.76178 10.6009L4.22177 9.0913ZM3.5756 10.4418C3.26787 11.7516 2.89062 14.182 2.89062 18.2319H4.9463C4.9463 14.335 5.30964 12.1027 5.5649 11.0162L3.5756 10.4418Z" fill="#FD650B"/>
</svg>
