<svg width="30" height="30" viewBox="0 0 30 30" fill="none" xmlns="http://www.w3.org/2000/svg">
<path d="M20.2998 18.232L20.8699 19.1801C21.1559 18.9687 21.3276 18.613 21.3276 18.232C21.3276 17.851 21.1559 17.4952 20.8699 17.2838L20.2998 18.232ZM14.5182 13.9588L15.0883 13.0107C14.7729 12.7776 14.3674 12.7559 14.0332 12.9542C13.699 13.1525 13.4904 13.5386 13.4904 13.9588H14.5182ZM14.5182 22.5051H13.4904C13.4904 22.9253 13.699 23.3115 14.0332 23.5098C14.3674 23.7081 14.7729 23.6863 15.0883 23.4532L14.5182 22.5051ZM20.8699 17.2838L15.0883 13.0107L13.9481 14.907L19.7296 19.1801L20.8699 17.2838ZM13.4904 13.9588V22.5051H15.546V13.9588H13.4904ZM15.0883 23.4532L20.8699 19.1801L19.7296 17.2838L13.9481 21.557L15.0883 23.4532Z" fill="#FD650B"/>
<path d="M4.57035 25.7348L5.56635 25.4533L5.565 25.4476L4.57035 25.7348ZM5.73062 27.1896L5.35667 28.251L5.36192 28.2533L5.73062 27.1896ZM16.4454 28.8603L16.4519 27.7207L16.4388 27.7208L16.4454 28.8603ZM27.16 27.1896L27.5287 28.2533L27.534 28.251L27.16 27.1896ZM28.3204 25.7349L27.3256 25.4476L27.3244 25.4533L28.3204 25.7349ZM28.3204 10.729L27.3244 11.0105L27.3257 11.0162L28.3204 10.729ZM27.16 9.27422L27.5341 8.2128L27.5288 8.21056L27.16 9.27422ZM16.4454 7.6035L16.4388 8.74306L16.4519 8.74297L16.4454 7.6035ZM5.73065 9.27421L5.36196 8.21052L5.35671 8.21279L5.73065 9.27421ZM4.57037 10.729L5.56504 11.0162L5.56636 11.0105L4.57037 10.729ZM2.89075 18.2319C2.89075 22.2819 3.26798 24.7122 3.57569 26.022L5.565 25.4476C5.30975 24.3611 4.94642 22.1288 4.94642 18.2319H2.89075ZM3.57436 26.0162C3.68994 26.519 3.9119 26.9839 4.22185 27.3725L5.76187 25.8629C5.66826 25.7455 5.60126 25.6051 5.56635 25.4533L3.57436 26.0162ZM4.22185 27.3725C4.5318 27.7611 4.92082 28.0623 5.35667 28.251L6.10456 26.1282C5.97294 26.0712 5.85546 25.9802 5.76187 25.8629L4.22185 27.3725ZM5.36192 28.2533C7.52031 29.1728 10.32 29.6 12.5139 29.8046C13.624 29.9082 14.6045 29.957 15.308 29.9799C15.6602 29.9913 15.9437 29.9963 16.1403 29.9984C16.2387 29.9995 16.3152 29.9998 16.368 29.9999C16.3943 29.9999 16.4146 29.9999 16.4287 29.9999C16.4358 29.9999 16.4412 29.9998 16.4451 29.9998C16.4471 29.9998 16.4486 29.9998 16.4498 29.9998C16.4503 29.9998 16.4508 29.9998 16.4511 29.9998C16.451 29.9998 16.4513 29.9998 16.4511 29.9998C16.4512 29.9998 16.4519 29.9998 16.4454 28.8603C16.4388 27.7208 16.4387 27.7208 16.4388 27.7208C16.4383 27.7208 16.4371 27.7208 16.4359 27.7208C16.4333 27.7209 16.4291 27.7209 16.4234 27.7209C16.4119 27.7209 16.3943 27.7209 16.3707 27.7209C16.3236 27.7208 16.2526 27.7206 16.1604 27.7196C15.9758 27.7175 15.7057 27.7128 15.3684 27.7018C14.693 27.6799 13.7509 27.6331 12.6863 27.5337C10.5309 27.3326 7.97321 26.9243 6.09932 26.126L5.36192 28.2533ZM16.4454 28.8603C16.4388 29.9998 16.439 29.9998 16.4391 29.9998C16.4389 29.9998 16.4392 29.9998 16.4391 29.9998C16.4394 29.9998 16.4404 29.9998 16.4409 29.9998C16.4421 29.9998 16.4432 29.9998 16.4451 29.9998C16.4491 29.9998 16.4549 29.9999 16.462 29.9999C16.4761 29.9999 16.4964 29.9999 16.5227 29.9999C16.5755 29.9998 16.652 29.9995 16.7504 29.9984C16.947 29.9963 17.2305 29.9913 17.5827 29.9799C18.2862 29.957 19.2667 29.9082 20.3768 29.8046C22.5706 29.6 25.3704 29.1728 27.5287 28.2533L26.7914 26.126C24.9174 26.9243 22.3597 27.3326 20.2044 27.5337C19.1398 27.6331 18.1977 27.6799 17.5223 27.7018C17.185 27.7128 16.9149 27.7175 16.7303 27.7196C16.6381 27.7206 16.5671 27.7208 16.52 27.7209C16.4964 27.7209 16.4788 27.7209 16.4673 27.7209C16.4616 27.7209 16.4574 27.7209 16.4548 27.7208C16.4536 27.7208 16.4524 27.7207 16.4519 27.7207C16.452 27.7207 16.4519 27.7208 16.4454 28.8603ZM27.534 28.251C27.9699 28.0623 28.3588 27.7611 28.6688 27.3726L27.1288 25.8629C27.0352 25.9802 26.9178 26.0712 26.7861 26.1282L27.534 28.251ZM28.6688 27.3726C28.9788 26.9839 29.2007 26.519 29.3163 26.0163L27.3244 25.4533C27.2894 25.6051 27.2224 25.7456 27.1288 25.8629L28.6688 27.3726ZM29.315 26.022C29.6227 24.7122 30 22.2819 30 18.2319H27.9443C27.9443 22.1288 27.5809 24.3611 27.3256 25.4476L29.315 26.022ZM30 18.2319C30 14.182 29.6227 11.7516 29.315 10.4418L27.3257 11.0162C27.5809 12.1027 27.9443 14.335 27.9443 18.2319H30ZM29.3163 10.4475C29.2007 9.94486 28.9788 9.47995 28.6688 9.09132L27.1288 10.6009C27.2224 10.7183 27.2894 10.8587 27.3244 11.0105L29.3163 10.4475ZM28.6688 9.09132C28.3589 8.70269 27.9699 8.40153 27.5341 8.2128L26.7861 10.3356C26.9178 10.3926 27.0353 10.4836 27.1288 10.6009L28.6688 9.09132ZM27.5288 8.21056C25.3704 7.29101 22.5707 6.8639 20.3768 6.65916C19.2668 6.55557 18.2862 6.50684 17.5827 6.48396C17.2305 6.47251 16.947 6.46751 16.7504 6.46538C16.652 6.46431 16.5755 6.46397 16.5227 6.46389C16.4964 6.46385 16.4761 6.46388 16.462 6.46392C16.4549 6.46394 16.4495 6.46396 16.4456 6.46398C16.4436 6.46399 16.4421 6.464 16.4409 6.46401C16.4404 6.46401 16.4399 6.46401 16.4396 6.46401C16.4397 6.46401 16.4394 6.46402 16.4396 6.46401C16.4395 6.46402 16.4388 6.46402 16.4454 7.6035C16.4519 8.74297 16.452 8.74297 16.4519 8.74297C16.4524 8.74297 16.4536 8.74296 16.4548 8.74296C16.4574 8.74295 16.4616 8.74293 16.4673 8.74292C16.4788 8.74288 16.4964 8.74285 16.52 8.74288C16.5671 8.74296 16.6381 8.74327 16.7303 8.74427C16.9149 8.74628 17.185 8.75101 17.5223 8.76198C18.1977 8.78394 19.1398 8.83078 20.2044 8.93014C22.3598 9.13128 24.9175 9.53954 26.7914 10.3379L27.5288 8.21056ZM16.4454 7.6035C16.4519 6.46402 16.4517 6.46402 16.4516 6.46402C16.4518 6.46402 16.4515 6.46402 16.4516 6.46402C16.4513 6.46402 16.4503 6.46401 16.4498 6.46401C16.4486 6.464 16.4475 6.46399 16.4456 6.46398C16.4417 6.46396 16.4358 6.46394 16.4287 6.46392C16.4146 6.46388 16.3943 6.46385 16.368 6.46389C16.3152 6.46397 16.2387 6.46431 16.1403 6.46538C15.9437 6.46751 15.6602 6.47251 15.308 6.48396C14.6045 6.50684 13.624 6.55557 12.5139 6.65916C10.32 6.8639 7.52036 7.29098 5.36196 8.21052L6.09935 10.3379C7.97326 9.53953 10.531 9.13128 12.6863 8.93014C13.7509 8.83078 14.693 8.78394 15.3684 8.76198C15.7057 8.75101 15.9758 8.74628 16.1604 8.74427C16.2526 8.74327 16.3236 8.74296 16.3707 8.74288C16.3943 8.74285 16.4119 8.74288 16.4234 8.74292C16.4291 8.74293 16.4333 8.74295 16.4359 8.74296C16.4371 8.74296 16.4383 8.74306 16.4388 8.74306C16.4387 8.74306 16.4388 8.74297 16.4454 7.6035ZM5.35671 8.21279C4.92086 8.40152 4.53184 8.70267 4.22189 9.0913L5.7619 10.6009C5.85549 10.4836 5.97296 10.3926 6.10459 10.3356L5.35671 8.21279ZM4.22189 9.0913C3.91194 9.47991 3.68998 9.94483 3.57439 10.4475L5.56636 11.0105C5.60127 10.8587 5.66829 10.7183 5.7619 10.6009L4.22189 9.0913ZM3.57572 10.4418C3.268 11.7516 2.89075 14.182 2.89075 18.2319H4.94642C4.94642 14.335 5.30977 12.1027 5.56504 11.0162L3.57572 10.4418Z" fill="#FD650B"/>
</svg>
